<svg width="235" height="209" viewBox="0 0 235 209" fill="none" xmlns="http://www.w3.org/2000/svg">
<ellipse opacity="0.1" cx="132.514" cy="103.724" rx="64.4471" ry="64.2981" fill="#1E64D3"/>
<ellipse cx="132.514" cy="103.724" rx="51.1786" ry="51.0603" fill="#1E64D3"/>
<path d="M135.434 77.766V82.4286C135.439 82.7515 135.38 83.0722 135.26 83.372C135.14 83.6718 134.961 83.9448 134.735 84.1749C134.508 84.4051 134.238 84.5878 133.94 84.7126C133.642 84.8374 133.323 84.9016 133 84.9016C132.677 84.9016 132.357 84.8374 132.059 84.7126C131.761 84.5878 131.491 84.4051 131.265 84.1749C131.038 83.9448 130.859 83.6718 130.739 83.372C130.619 83.0722 130.56 82.7515 130.565 82.4286V77.766C130.56 77.4431 130.619 77.1224 130.739 76.8226C130.859 76.5227 131.038 76.2498 131.265 76.0197C131.491 75.7895 131.761 75.6067 132.059 75.482C132.357 75.3572 132.677 75.293 133 75.293C133.323 75.293 133.642 75.3572 133.94 75.482C134.238 75.6067 134.508 75.7895 134.735 76.0197C134.961 76.2498 135.14 76.5227 135.26 76.8226C135.38 77.1224 135.439 77.4431 135.434 77.766ZM147.251 79.152C146.691 78.832 146.028 78.7462 145.405 78.9132C144.782 79.0802 144.251 79.4865 143.927 80.0436L141.597 84.081C141.422 84.3582 141.305 84.6678 141.252 84.9914C141.2 85.315 141.213 85.6458 141.292 85.9641C141.37 86.2823 141.512 86.5814 141.709 86.8435C141.906 87.1056 142.154 87.3252 142.437 87.4892C142.721 87.6532 143.035 87.7581 143.361 87.7978C143.686 87.8375 144.016 87.8111 144.331 87.7201C144.646 87.6292 144.939 87.4756 145.193 87.2685C145.448 87.0615 145.657 86.8052 145.81 86.5152L148.14 82.4784C148.463 81.9194 148.551 81.2549 148.384 80.631C148.217 80.0072 147.81 79.4752 147.251 79.152ZM151.536 95.5716C151.963 95.5716 152.383 95.4594 152.753 95.2458L156.794 92.916C157.071 92.7562 157.314 92.5433 157.509 92.2897C157.703 92.036 157.846 91.7465 157.929 91.4377C158.012 91.1288 158.033 90.8067 157.991 90.4896C157.95 90.1726 157.846 89.8668 157.686 89.5899C157.526 89.3129 157.313 89.0702 157.06 88.8755C156.806 88.6807 156.517 88.5379 156.208 88.4551C155.899 88.3723 155.577 88.3511 155.26 88.3928C154.943 88.4344 154.637 88.5382 154.36 88.698L150.318 91.0284C149.854 91.2964 149.492 91.7101 149.287 92.2052C149.082 92.7004 149.046 93.2493 149.184 93.767C149.323 94.2846 149.629 94.7421 150.054 95.0684C150.479 95.3946 151 95.5715 151.536 95.5716ZM159.068 101.411L154.403 101.406H154.398C153.759 101.415 153.15 101.676 152.701 102.131C152.252 102.586 152 103.199 151.999 103.838C151.999 104.477 152.249 105.091 152.697 105.547C153.145 106.003 153.755 106.264 154.394 106.275L159.059 106.28H159.063C159.386 106.285 159.706 106.226 160.006 106.106C160.306 105.987 160.579 105.808 160.81 105.582C161.04 105.356 161.223 105.086 161.348 104.788C161.473 104.49 161.538 104.171 161.538 103.848C161.538 103.525 161.475 103.205 161.35 102.907C161.226 102.609 161.043 102.339 160.813 102.112C160.583 101.885 160.311 101.706 160.011 101.586C159.711 101.466 159.391 101.406 159.068 101.411ZM156.776 114.77L152.739 112.436C152.462 112.26 152.152 112.143 151.828 112.09C151.504 112.037 151.173 112.05 150.855 112.128C150.536 112.207 150.237 112.349 149.974 112.546C149.712 112.743 149.492 112.99 149.328 113.274C149.164 113.558 149.059 113.873 149.019 114.198C148.98 114.524 149.006 114.854 149.097 115.169C149.188 115.484 149.342 115.778 149.55 116.032C149.757 116.286 150.014 116.496 150.304 116.648L154.341 118.983C154.71 119.199 155.131 119.312 155.559 119.311C156.094 119.31 156.614 119.133 157.038 118.807C157.462 118.48 157.767 118.023 157.906 117.507C158.044 116.99 158.008 116.442 157.804 115.947C157.6 115.452 157.238 115.039 156.776 114.77ZM145.787 121.154C145.629 120.874 145.417 120.627 145.163 120.429C144.909 120.231 144.618 120.085 144.308 120C143.997 119.915 143.673 119.892 143.353 119.933C143.034 119.974 142.725 120.078 142.446 120.239C142.167 120.4 141.923 120.614 141.727 120.87C141.532 121.126 141.389 121.418 141.307 121.73C141.225 122.041 141.205 122.366 141.249 122.685C141.294 123.004 141.401 123.311 141.564 123.589L143.894 127.63C144.054 127.907 144.267 128.151 144.521 128.346C144.775 128.541 145.064 128.684 145.373 128.767C145.683 128.85 146.005 128.871 146.322 128.829C146.64 128.788 146.946 128.684 147.223 128.524C147.5 128.364 147.743 128.151 147.938 127.898C148.133 127.644 148.276 127.354 148.359 127.045C148.442 126.736 148.464 126.413 148.422 126.096C148.381 125.779 148.277 125.473 148.117 125.195L145.787 121.154ZM132.977 122.789H132.971C132.327 122.79 131.709 123.047 131.252 123.502C130.796 123.957 130.539 124.575 130.537 125.219L130.528 129.882C130.527 130.202 130.59 130.518 130.712 130.814C130.833 131.11 131.012 131.379 131.238 131.605C131.463 131.832 131.731 132.011 132.027 132.134C132.322 132.257 132.638 132.321 132.958 132.322H132.963C133.608 132.321 134.226 132.066 134.682 131.61C135.139 131.154 135.396 130.536 135.397 129.892L135.407 125.23C135.407 124.91 135.345 124.593 135.223 124.297C135.102 124.002 134.923 123.733 134.697 123.506C134.471 123.28 134.203 123.1 133.908 122.977C133.613 122.854 133.296 122.79 132.977 122.789H132.975H132.977ZM123.494 120.236C122.935 119.913 122.271 119.825 121.647 119.99C121.023 120.156 120.49 120.563 120.165 121.121L117.825 125.156C117.507 125.714 117.423 126.376 117.59 126.996C117.758 127.616 118.164 128.145 118.72 128.468C119.276 128.79 119.936 128.88 120.558 128.717C121.18 128.555 121.712 128.153 122.039 127.6L124.378 123.565C124.701 123.006 124.79 122.342 124.624 121.718C124.458 121.094 124.052 120.561 123.494 120.236ZM113.237 112.378L109.196 114.704C108.636 115.025 108.226 115.556 108.058 116.18C107.889 116.803 107.975 117.468 108.297 118.028C108.619 118.588 109.15 118.997 109.773 119.166C110.397 119.334 111.061 119.248 111.621 118.927L115.662 116.601C115.94 116.442 116.183 116.229 116.378 115.976C116.573 115.723 116.717 115.434 116.8 115.125C116.884 114.816 116.906 114.494 116.865 114.177C116.824 113.86 116.72 113.554 116.561 113.277C116.402 113 116.19 112.757 115.936 112.561C115.683 112.366 115.394 112.223 115.085 112.139C114.777 112.056 114.455 112.034 114.138 112.075C113.82 112.116 113.514 112.219 113.237 112.378ZM111.602 106.216C111.921 106.217 112.238 106.154 112.534 106.032C112.829 105.91 113.098 105.731 113.324 105.505C113.55 105.279 113.73 105.011 113.853 104.715C113.975 104.42 114.038 104.104 114.039 103.784C114.039 103.464 113.976 103.147 113.854 102.852C113.732 102.556 113.553 102.288 113.327 102.061C113.101 101.835 112.833 101.656 112.538 101.533C112.243 101.41 111.926 101.347 111.606 101.347L106.941 101.337H106.937C106.291 101.336 105.672 101.592 105.215 102.048C104.758 102.505 104.501 103.124 104.5 103.769C104.499 104.415 104.755 105.035 105.211 105.492C105.668 105.949 106.287 106.206 106.932 106.207L111.597 106.216L111.602 106.216ZM115.714 90.978L111.682 88.641C111.405 88.4669 111.096 88.3503 110.774 88.2982C110.451 88.246 110.121 88.2595 109.803 88.3376C109.486 88.4158 109.187 88.5571 108.926 88.7531C108.664 88.9491 108.444 89.1959 108.28 89.4786C108.116 89.7613 108.01 90.0741 107.97 90.3986C107.929 90.723 107.954 91.0523 108.043 91.3668C108.132 91.6813 108.284 91.9746 108.489 92.2293C108.694 92.4839 108.949 92.6946 109.237 92.8488L113.269 95.1906C113.546 95.3562 113.853 95.4652 114.172 95.5112C114.491 95.5572 114.816 95.5394 115.128 95.4588C115.44 95.3782 115.733 95.2363 115.99 95.0415C116.247 94.8467 116.463 94.6028 116.625 94.324C116.787 94.0451 116.892 93.7369 116.934 93.4171C116.975 93.0974 116.953 92.7726 116.869 92.4615C116.784 92.1503 116.638 91.8592 116.44 91.6048C116.242 91.3505 115.995 91.138 115.714 90.9798V90.978ZM122.141 80.0106C121.816 79.4573 121.286 79.0547 120.666 78.8902C120.046 78.7257 119.386 78.8126 118.829 79.1321C118.273 79.4516 117.865 79.9778 117.695 80.5963C117.524 81.2148 117.604 81.8757 117.918 82.4352L120.239 86.4798C120.564 87.0331 121.094 87.4357 121.714 87.6002C122.335 87.7647 122.995 87.6778 123.551 87.3583C124.107 87.0388 124.515 86.5126 124.686 85.8941C124.856 85.2756 124.776 84.6147 124.462 84.0552L122.141 80.0106Z" fill="white"/>
<path d="M1.43665 148.84C11.1085 152.771 35.7076 156.973 36.9002 134.902C38.3904 107.322 11.7839 127.39 32.6016 137.046C53.4192 146.703 57.3186 127.397 57.3186 127.397" stroke="#76D2FD" stroke-width="2" stroke-linecap="round"/>
<path d="M198.1 45.8569C204.548 45.8569 217.873 42.2116 219.593 27.6301C221.742 9.4032 231.414 9.4032 233.563 10.4754" stroke="#76D2FD" stroke-width="2" stroke-linecap="round" stroke-linejoin="round"/>
<path d="M186.279 170.23C192.011 170.945 203.689 176.449 204.548 192.746" stroke="#F4C36D" stroke-width="2" stroke-linecap="round" stroke-linejoin="round"/>
<ellipse cx="217.442" cy="98.3958" rx="7.52257" ry="7.50518" fill="#76D2FD"/>
<ellipse cx="155.112" cy="201.322" rx="7.52257" ry="7.50518" fill="#14A3BF"/>
<ellipse cx="135.767" cy="194.888" rx="3.22396" ry="3.21651" fill="#70C043"/>
<ellipse cx="64.8417" cy="179.88" rx="7.52257" ry="7.50518" fill="#70C043"/>
<ellipse cx="49.7971" cy="74.806" rx="7.52257" ry="7.50518" fill="#F4C36D"/>
<ellipse cx="112.123" cy="8.3333" rx="7.52257" ry="7.50518" fill="#C05DFE"/>
<ellipse cx="133.621" cy="21.2009" rx="3.22396" ry="3.21651" fill="#F8C264"/>
</svg>
