<svg width="20" height="20" viewBox="0 0 20 20" fill="none" xmlns="http://www.w3.org/2000/svg">
<g clip-path="url(#clip0_1_20324)">
<path d="M6.06692 4.04512C2.72168 5.97649 1.57136 10.2695 3.50274 13.6148C5.43411 16.96 9.72715 18.1103 13.0724 16.1789C16.4176 14.2476 17.5679 9.95454 15.6366 6.6093C13.7052 3.26405 9.41216 2.11374 6.06692 4.04512ZM12.6345 15.4206C9.70735 17.1106 5.95112 16.1041 4.2611 13.1769C2.57109 10.2497 3.57757 6.4935 6.50476 4.80348C9.43195 3.11346 13.1882 4.11995 14.8782 7.04714C16.5682 9.97433 15.5617 13.7306 12.6345 15.4206ZM11.9581 8.37565C12.0136 8.3905 12.0657 8.41615 12.1113 8.45114C12.1569 8.48613 12.1952 8.52977 12.224 8.57956C12.2527 8.62936 12.2714 8.68433 12.2789 8.74134C12.2863 8.79835 12.2825 8.85628 12.2676 8.91181L11.4663 11.9023C11.435 12.0191 11.3593 12.1122 11.2624 12.1682C11.1654 12.2242 11.0469 12.2432 10.9301 12.2119C10.8746 12.197 10.8225 12.1714 10.7769 12.1364C10.7313 12.1014 10.693 12.0578 10.6642 12.008C10.6355 11.9582 10.6168 11.9032 10.6093 11.8462C10.6018 11.7892 10.6057 11.7312 10.6206 11.6757L11.1483 9.70616L7.51348 11.8047C7.30408 11.9256 7.03639 11.8541 6.91538 11.6445C6.79437 11.4349 6.86623 11.1673 7.07564 11.0464L10.7105 8.9478L8.74093 8.42006C8.50722 8.35744 8.36869 8.11751 8.43137 7.8839C8.49405 7.65028 8.73392 7.51166 8.96754 7.57434L11.9581 8.37565Z" fill="#1E64D3"/>
</g>
<defs>
<clipPath id="clip0_1_20324">
<rect width="14.0109" height="14.0109" fill="white" transform="translate(0 7.64209) rotate(-30)"/>
</clipPath>
</defs>
</svg>
