<svg width="16" height="16" viewBox="0 0 16 16" fill="none" xmlns="http://www.w3.org/2000/svg">
<g clip-path="url(#clip0_1_21317)">
<path d="M9.71515 5.714C11.293 5.714 12.5722 4.43488 12.5722 2.857C12.5722 1.27912 11.293 0 9.71515 0C8.13728 0 6.85815 1.27912 6.85815 2.857C6.85815 4.43488 8.13728 5.714 9.71515 5.714Z" fill="#172327"/>
<path d="M4.40004 7.60547L1.14404 8.63497V12.7435C1.12793 13.2076 1.22597 13.6686 1.42954 14.086C2.14404 15.5035 3.94404 15.909 4.40104 15.995C4.85254 15.909 6.65254 15.5035 7.36654 14.086C7.5685 13.6741 7.66668 13.219 7.65254 12.7605V8.63497L4.40004 7.60547ZM6.79504 10.783L4.56604 13.005C4.51389 13.0592 4.45134 13.1023 4.38213 13.1317C4.31293 13.1611 4.2385 13.1763 4.16329 13.1763C4.08809 13.1763 4.01365 13.1611 3.94445 13.1317C3.87525 13.1023 3.8127 13.0592 3.76054 13.005L2.57754 11.828C2.52458 11.7751 2.48257 11.7123 2.4539 11.6432C2.42523 11.5741 2.41048 11.5 2.41048 11.4252C2.41048 11.3504 2.42523 11.2763 2.4539 11.2072C2.48257 11.1381 2.52458 11.0753 2.57754 11.0225C2.68543 10.9154 2.83128 10.8553 2.98329 10.8553C3.1353 10.8553 3.28115 10.9154 3.38904 11.0225L4.16604 11.794L5.98354 9.97647C6.09141 9.86954 6.23715 9.80955 6.38904 9.80955C6.54093 9.80955 6.68667 9.86954 6.79454 9.97647C6.84761 10.0293 6.88973 10.0921 6.91848 10.1612C6.94723 10.2304 6.96206 10.3045 6.96211 10.3794C6.96215 10.4542 6.94742 10.5284 6.91875 10.5976C6.89008 10.6667 6.84804 10.7301 6.79504 10.783Z" fill="#172327"/>
<path d="M14.8576 16.0004H13.1436V10.8574C13.1436 10.7059 13.0834 10.5605 12.9762 10.4533C12.869 10.3461 12.7236 10.2859 12.5721 10.2859C12.4205 10.2859 12.2751 10.3461 12.168 10.4533C12.0608 10.5605 12.0006 10.7059 12.0006 10.8574V16.0004H7.42908V15.8204C7.82473 15.4785 8.14996 15.0628 8.38658 14.5964C8.67406 14.0228 8.81444 13.3867 8.79508 12.7454V8.21492C8.79535 8.09341 8.75678 7.975 8.685 7.87696C8.61322 7.77891 8.51199 7.70637 8.39608 7.66992L7.26758 7.31342C7.89847 7.01421 8.58782 6.85847 9.28608 6.85742H10.1431C11.393 6.85888 12.5913 7.35605 13.4751 8.23987C14.3589 9.1237 14.8561 10.322 14.8576 11.5719V16.0004Z" fill="#172327"/>
</g>
<defs>
<clipPath id="clip0_1_21317">
<rect width="16" height="16" fill="white"/>
</clipPath>
</defs>
</svg>
