<svg width="20" height="20" viewBox="0 0 20 20" fill="none" xmlns="http://www.w3.org/2000/svg">
<g clip-path="url(#clip0_481_30240)">
<path fill-rule="evenodd" clip-rule="evenodd" d="M10.3868 0.496094C15.6842 0.496094 19.9786 4.7905 19.9786 10.0879C19.9786 15.3854 15.6842 19.6798 10.3868 19.6798C5.08933 19.6798 0.794922 15.3854 0.794922 10.0879C0.794922 4.7905 5.08933 0.496094 10.3868 0.496094ZM15.125 6.59841H13.4679V5.67198C13.4675 5.45071 13.3794 5.23861 13.223 5.08216C13.0665 4.92572 12.8544 4.83769 12.6331 4.83737H8.14028C7.919 4.83761 7.70685 4.92562 7.55038 5.08208C7.39391 5.23855 7.30589 5.4507 7.30564 5.67198V6.59841H5.6485C5.31367 6.59881 4.9909 6.72343 4.74267 6.94814C4.49445 7.17285 4.33843 7.48167 4.30482 7.81481L5.77957 8.72454L7.88569 10.0237H8.54471V9.45138C8.54471 9.40948 8.55296 9.36798 8.56899 9.32926C8.58503 9.29054 8.60854 9.25536 8.63817 9.22572C8.6678 9.19609 8.70298 9.17258 8.7417 9.15655C8.78042 9.14051 8.82192 9.13226 8.86383 9.13227H11.8855C11.9701 9.13225 12.0513 9.16586 12.1112 9.2257C12.1711 9.28555 12.2048 9.36673 12.2048 9.45138V10.0237H12.8875L14.611 8.96055L16.4687 7.81463C16.435 7.48156 16.2789 7.17283 16.0307 6.94817C15.7825 6.72351 15.4598 6.59888 15.1251 6.59837L15.125 6.59841ZM5.77953 9.47443L4.29819 8.56069V13.9884C4.29862 14.3464 4.44102 14.6896 4.69416 14.9427C4.9473 15.1958 5.29051 15.3382 5.6485 15.3386H15.125C15.483 15.3382 15.8262 15.1957 16.0793 14.9426C16.3324 14.6895 16.4748 14.3463 16.4753 13.9884V8.56062L14.611 9.71063L13.1456 10.6145C13.0953 10.6456 13.0373 10.6621 12.9781 10.6621H12.2048V11.2342C12.2048 11.2761 12.1966 11.3177 12.1805 11.3564C12.1645 11.3951 12.1409 11.4303 12.1113 11.46C12.0816 11.4896 12.0464 11.5132 12.0077 11.5292C11.9689 11.5452 11.9274 11.5535 11.8855 11.5535H8.86383C8.8219 11.5535 8.78039 11.5452 8.74165 11.5292C8.70292 11.5132 8.66772 11.4896 8.63808 11.46C8.60844 11.4303 8.58494 11.3951 8.56892 11.3564C8.5529 11.3176 8.54467 11.2761 8.54471 11.2342V10.6621H7.79509C7.73596 10.662 7.67802 10.6456 7.62772 10.6145L5.77953 9.4745V9.47443ZM9.18291 10.9151H11.5664V9.7705H9.18291V10.9151ZM7.94384 5.47561V6.59845H12.8295V5.47561H7.94384Z" fill="#1E64D3"/>
</g>
<defs>
<clipPath id="clip0_481_30240">
<rect width="19.1837" height="19.1837" fill="white" transform="translate(0.794922 0.496094)"/>
</clipPath>
</defs>
</svg>
