<svg width="221" height="207" viewBox="0 0 221 207" fill="none" xmlns="http://www.w3.org/2000/svg">
<path fill-rule="evenodd" clip-rule="evenodd" d="M5.26308 -14.1572H215.04V-13.8281L5.26308 -13.8283V-14.1572ZM0 -8.64304V201.134H0.329078V-8.64304H0ZM20.0508 6.22279V25.9442H5.26308V26.2732H20.0508V45.9947H5.26308V46.3238H20.0508V66.0452H5.26308V66.3742H20.0508V86.0954H5.26308V86.4243H20.0508V106.146H5.26308V106.475H20.0508V126.196H5.26308V126.525H20.0508V146.245H5.26308V146.574H20.0508V166.295H5.26308V166.625H20.0508V186.347H5.26308V186.676H20.0508V201.134H20.3798V186.676H40.1015V201.134H40.4306V186.676H60.1511V201.134H60.4802V186.676H80.2016V201.134H80.5306V186.676H100.252V201.134H100.581V186.676H120.302V201.134H120.631V186.676H140.353V201.134H140.682V186.676H160.403V201.134H160.732V186.676H180.453V201.134H180.782V186.676H200.504V201.134H200.833V186.676H215.041V186.347H200.833V166.625H215.041V166.295H200.833V146.574H215.04V146.245H200.833V126.525H215.041V126.196H200.833V106.475H215.041V106.146H200.833V86.4243H215.041V86.0954H200.833V66.3742H215.041V66.0452H200.833V46.3238H215.041V45.9947H200.833V26.2733H215.041V25.9442H200.833V6.22279H215.041V5.89371H200.833V-8.6427H200.504V5.89371H180.782V-8.64287H180.453V5.89371H160.732V-8.64287H160.403V5.89371H140.682V-8.64304H140.353V5.89371H120.631V-8.64304H120.302V5.89371H100.581V-8.64287H100.252V5.89371H80.5306V-8.6427H80.2016V5.89371H60.4802V-8.64304H60.1511V5.89371H40.4306V-8.64304H40.1015V5.89371H20.3798V-8.64287H20.0508V5.89371H5.26308V6.22279H20.0508ZM40.1015 186.347H20.3798V166.625H40.1015V186.347ZM60.1511 186.347H40.4306V166.625H60.1511V186.347ZM80.2016 186.347H60.4802V166.625H80.2016L80.2016 186.347ZM100.252 186.347H80.5306V166.625H100.252L100.252 186.347ZM120.302 186.347H100.581L100.581 166.625H120.302V186.347ZM140.353 186.347H120.631V166.625H140.353V186.347ZM160.403 186.347H140.682V166.625H160.403V186.347ZM180.453 186.347H160.732V166.625H180.453V186.347ZM200.504 186.347H180.782V166.625H200.504V186.347ZM200.504 166.295V146.574H180.782V166.295H200.504ZM180.453 166.295V146.574H160.732V166.295H180.453ZM160.403 166.295V146.574H140.682V166.295H160.403ZM140.353 166.295V146.574H120.631V166.295H140.353ZM120.302 166.295V146.574H100.581V166.295H120.302ZM100.252 166.295V146.574H80.5306V166.295H100.252ZM80.2016 166.295V146.574H60.4802V166.295H80.2016ZM60.1511 166.295V146.574H40.4306V166.295H60.1511ZM40.1015 166.295V146.574H20.3798V166.295H40.1015ZM40.1015 146.245H20.3798V126.525H40.1015V146.245ZM60.1511 146.245H40.4306V126.525H60.1511V146.245ZM80.2016 146.245H60.4802V126.525H80.2016V146.245ZM100.252 146.245H80.5306L80.5306 126.525H100.252V146.245ZM120.302 146.245H100.581V126.525H120.302V146.245ZM140.353 146.245H120.631V126.525H140.353V146.245ZM160.403 146.245H140.682V126.525H160.403V146.245ZM180.453 146.245H160.732V126.525H180.453V146.245ZM200.504 146.245H180.782V126.525H200.504V146.245ZM200.504 126.196V106.475H180.782V126.196H200.504ZM180.453 126.196V106.475H160.732V126.196H180.453ZM160.403 126.196V106.475H140.682V126.196H160.403ZM140.353 126.196V106.475H120.631V126.196H140.353ZM120.302 126.196V106.475H100.581V126.196H120.302ZM100.252 126.196V106.475H80.5306V126.196H100.252ZM80.2016 126.196V106.475H60.4802V126.196H80.2016ZM60.1511 126.196V106.475H40.4306V126.196H60.1511ZM40.1015 126.196V106.475H20.3798V126.196H40.1015ZM40.1015 106.146H20.3798V86.4243H40.1015V106.146ZM60.1511 106.146H40.4306V86.4243H60.1511V106.146ZM80.2016 106.146H60.4802V86.4243H80.2016V106.146ZM100.252 106.146H80.5306V86.4243H100.252V106.146ZM120.302 106.146H100.581V86.4243H120.302V106.146ZM140.353 106.146H120.631V86.4243H140.353V106.146ZM160.403 106.146H140.682V86.4243H160.403V106.146ZM180.453 106.146H160.732V86.4243H180.453V106.146ZM200.504 106.146H180.782V86.4243H200.504V106.146ZM200.504 86.0954V66.3742H180.782V86.0954H200.504ZM180.453 86.0954V66.3742H160.732V86.0954H180.453ZM160.403 86.0954V66.3742H140.682V86.0954H160.403ZM140.353 86.0954V66.3742H120.631V86.0954H140.353ZM120.302 86.0954V66.3742H100.581V86.0954H120.302ZM100.252 86.0954V66.3742H80.5306V86.0954H100.252ZM80.2016 86.0954V66.3742H60.4802V86.0954H80.2016ZM60.1511 86.0954V66.3742H40.4306V86.0954H60.1511ZM40.1015 86.0954V66.3742H20.3798V86.0954H40.1015ZM40.1015 66.0452H20.3798V46.3238H40.1015V66.0452ZM60.1511 66.0452H40.4306V46.3238H60.1511V66.0452ZM80.2016 66.0452H60.4802V46.3238H80.2016V66.0452ZM100.252 66.0452H80.5306V46.3238H100.252V66.0452ZM120.302 66.0452H100.581V46.3238H120.302V66.0452ZM140.353 66.0452H120.631V46.3238H140.353V66.0452ZM160.403 66.0452H140.682V46.3238H160.403V66.0452ZM180.453 66.0452H160.732V46.3238H180.453V66.0452ZM200.504 66.0452H180.782V46.3238H200.504V66.0452ZM200.504 45.9947V26.2733L180.782 26.2733V45.9947H200.504ZM180.453 45.9947V26.2733H160.732V45.9947H180.453ZM160.403 45.9947V26.2733H140.682V45.9947H160.403ZM140.353 45.9947V26.2733H120.631V45.9947H140.353ZM120.302 45.9947V26.2733L100.581 26.2733V45.9947H120.302ZM100.252 45.9947V26.2733H80.5306V45.9947H100.252ZM80.2016 45.9947V26.2733L60.4802 26.2732V45.9947H80.2016ZM60.1511 45.9947V26.2732H40.4306V45.9947H60.1511ZM40.1015 45.9947V26.2732H20.3798V45.9947H40.1015ZM40.1015 25.9442H20.3798V6.22279H40.1015V25.9442ZM60.1511 25.9442H40.4306V6.22279H60.1511V25.9442ZM80.2016 25.9442L60.4802 25.9442V6.22279H80.2016V25.9442ZM100.252 25.9442H80.5306V6.22279H100.252V25.9442ZM120.302 25.9442L100.581 25.9442V6.22279H120.302V25.9442ZM140.353 25.9442L120.631 25.9442V6.22279H140.353V25.9442ZM160.403 25.9442H140.682V6.22279H160.403V25.9442ZM180.453 25.9442H160.732V6.22279H180.453V25.9442ZM200.504 25.9442L180.782 25.9442V6.22279H200.504V25.9442ZM220.555 -8.6427V201.134H220.884V-8.6427H220.555ZM215.041 206.397H5.26308V206.727H215.041V206.397Z" fill="url(#paint0_radial_1_20204)"/>
<rect x="60.5488" y="66.3628" width="19.8289" height="19.8289" fill="#E0DDFF"/>
<rect x="80.6082" y="106.482" width="19.8289" height="19.8289" fill="#E0DDFF"/>
<defs>
<radialGradient id="paint0_radial_1_20204" cx="0" cy="0" r="1" gradientUnits="userSpaceOnUse" gradientTransform="translate(103.117 75.4955) rotate(71.0092) scale(72.2827)">
<stop stop-color="#E0DDFF"/>
<stop offset="1" stop-color="#0A2259" stop-opacity="0"/>
</radialGradient>
</defs>
</svg>
