<svg width="18" height="16" viewBox="0 0 18 16" fill="none" xmlns="http://www.w3.org/2000/svg">
<path d="M9.69176 1.13643L2.31035 0.0147776C1.96781 -0.0389543 1.61855 0.0550764 1.35661 0.27672C1.09466 0.505081 0.940186 0.834188 0.940186 1.17673V15.3284C0.940186 15.6978 1.24243 16 1.61183 16H3.79469V12.4738C3.79469 11.8223 4.31858 11.2985 4.97007 11.2985H6.64919C7.30069 11.2985 7.82458 11.8223 7.82458 12.4738V16H10.6791V2.29838C10.6791 1.72076 10.2627 1.23046 9.69176 1.13643ZM4.63425 9.78726H3.62678C3.49318 9.78726 3.36505 9.73418 3.27058 9.63971C3.17611 9.54525 3.12304 9.41712 3.12304 9.28352C3.12304 9.14992 3.17611 9.02179 3.27058 8.92733C3.36505 8.83286 3.49318 8.77978 3.62678 8.77978H4.63425C4.76785 8.77978 4.89598 8.83286 4.99045 8.92733C5.08491 9.02179 5.13799 9.14992 5.13799 9.28352C5.13799 9.41712 5.08491 9.54525 4.99045 9.63971C4.89598 9.73418 4.76785 9.78726 4.63425 9.78726ZM4.63425 7.77231H3.62678C3.49318 7.77231 3.36505 7.71924 3.27058 7.62477C3.17611 7.5303 3.12304 7.40217 3.12304 7.26858C3.12304 7.13498 3.17611 7.00685 3.27058 6.91238C3.36505 6.81791 3.49318 6.76484 3.62678 6.76484H4.63425C4.76785 6.76484 4.89598 6.81791 4.99045 6.91238C5.08491 7.00685 5.13799 7.13498 5.13799 7.26858C5.13799 7.40217 5.08491 7.5303 4.99045 7.62477C4.89598 7.71924 4.76785 7.77231 4.63425 7.77231ZM4.63425 5.75737H3.62678C3.49318 5.75737 3.36505 5.7043 3.27058 5.60983C3.17611 5.51536 3.12304 5.38723 3.12304 5.25363C3.12304 5.12003 3.17611 4.99191 3.27058 4.89744C3.36505 4.80297 3.49318 4.7499 3.62678 4.7499H4.63425C4.76785 4.7499 4.89598 4.80297 4.99045 4.89744C5.08491 4.99191 5.13799 5.12003 5.13799 5.25363C5.13799 5.38723 5.08491 5.51536 4.99045 5.60983C4.89598 5.7043 4.76785 5.75737 4.63425 5.75737ZM4.63425 3.74242H3.62678C3.49318 3.74242 3.36505 3.68935 3.27058 3.59488C3.17611 3.50041 3.12304 3.37229 3.12304 3.23869C3.12304 3.10509 3.17611 2.97696 3.27058 2.88249C3.36505 2.78802 3.49318 2.73495 3.62678 2.73495H4.63425C4.76785 2.73495 4.89598 2.78802 4.99045 2.88249C5.08491 2.97696 5.13799 3.10509 5.13799 3.23869C5.13799 3.37229 5.08491 3.50041 4.99045 3.59488C4.89598 3.68935 4.76785 3.74242 4.63425 3.74242ZM7.99249 9.78726H6.98502C6.85142 9.78726 6.72329 9.73418 6.62882 9.63971C6.53435 9.54525 6.48128 9.41712 6.48128 9.28352C6.48128 9.14992 6.53435 9.02179 6.62882 8.92733C6.72329 8.83286 6.85142 8.77978 6.98502 8.77978H7.99249C8.12609 8.77978 8.25422 8.83286 8.34868 8.92733C8.44315 9.02179 8.49623 9.14992 8.49623 9.28352C8.49623 9.41712 8.44315 9.54525 8.34868 9.63971C8.25422 9.73418 8.12609 9.78726 7.99249 9.78726ZM7.99249 7.77231H6.98502C6.85142 7.77231 6.72329 7.71924 6.62882 7.62477C6.53435 7.5303 6.48128 7.40217 6.48128 7.26858C6.48128 7.13498 6.53435 7.00685 6.62882 6.91238C6.72329 6.81791 6.85142 6.76484 6.98502 6.76484H7.99249C8.12609 6.76484 8.25422 6.81791 8.34868 6.91238C8.44315 7.00685 8.49623 7.13498 8.49623 7.26858C8.49623 7.40217 8.44315 7.5303 8.34868 7.62477C8.25422 7.71924 8.12609 7.77231 7.99249 7.77231ZM7.99249 5.75737H6.98502C6.85142 5.75737 6.72329 5.7043 6.62882 5.60983C6.53435 5.51536 6.48128 5.38723 6.48128 5.25363C6.48128 5.12003 6.53435 4.99191 6.62882 4.89744C6.72329 4.80297 6.85142 4.7499 6.98502 4.7499H7.99249C8.12609 4.7499 8.25422 4.80297 8.34868 4.89744C8.44315 4.99191 8.49623 5.12003 8.49623 5.25363C8.49623 5.38723 8.44315 5.51536 8.34868 5.60983C8.25422 5.7043 8.12609 5.75737 7.99249 5.75737ZM7.99249 3.74242H6.98502C6.85142 3.74242 6.72329 3.68935 6.62882 3.59488C6.53435 3.50041 6.48128 3.37229 6.48128 3.23869C6.48128 3.10509 6.53435 2.97696 6.62882 2.88249C6.72329 2.78802 6.85142 2.73495 6.98502 2.73495H7.99249C8.12609 2.73495 8.25422 2.78802 8.34868 2.88249C8.44315 2.97696 8.49623 3.10509 8.49623 3.23869C8.49623 3.37229 8.44315 3.50041 8.34868 3.59488C8.25422 3.68935 8.12609 3.74242 7.99249 3.74242ZM16.1329 7.16246L11.3507 6.16103V16H15.8844C16.5325 16 17.0597 15.4728 17.0597 14.8246V8.31097C17.0597 7.75619 16.6816 7.28402 16.1329 7.16246ZM14.5411 13.9851H13.5336C13.4 13.9851 13.2719 13.932 13.1774 13.8375C13.0829 13.743 13.0299 13.6149 13.0299 13.4813C13.0299 13.3477 13.0829 13.2196 13.1774 13.1251C13.2719 13.0307 13.4 12.9776 13.5336 12.9776H14.5411C14.6747 12.9776 14.8028 13.0307 14.8973 13.1251C14.9917 13.2196 15.0448 13.3477 15.0448 13.4813C15.0448 13.6149 14.9917 13.743 14.8973 13.8375C14.8028 13.932 14.6747 13.9851 14.5411 13.9851ZM14.5411 11.9701H13.5336C13.4 11.9701 13.2719 11.917 13.1774 11.8226C13.0829 11.7281 13.0299 11.6 13.0299 11.4664C13.0299 11.3328 13.0829 11.2046 13.1774 11.1102C13.2719 11.0157 13.4 10.9626 13.5336 10.9626H14.5411C14.6747 10.9626 14.8028 11.0157 14.8973 11.1102C14.9917 11.2046 15.0448 11.3328 15.0448 11.4664C15.0448 11.6 14.9917 11.7281 14.8973 11.8226C14.8028 11.917 14.6747 11.9701 14.5411 11.9701ZM14.5411 9.95517H13.5336C13.4 9.95517 13.2719 9.9021 13.1774 9.80763C13.0829 9.71316 13.0299 9.58503 13.0299 9.45143C13.0299 9.31783 13.0829 9.18971 13.1774 9.09524C13.2719 9.00077 13.4 8.9477 13.5336 8.9477H14.5411C14.6747 8.9477 14.8028 9.00077 14.8973 9.09524C14.9917 9.18971 15.0448 9.31783 15.0448 9.45143C15.0448 9.58503 14.9917 9.71316 14.8973 9.80763C14.8028 9.9021 14.6747 9.95517 14.5411 9.95517Z" fill="white"/>
</svg>
