<svg width="20" height="20" viewBox="0 0 20 20" fill="none" xmlns="http://www.w3.org/2000/svg">
<path d="M17.4119 1.17578H15.6472V2.94049C15.6472 3.29343 15.3531 3.52872 15.059 3.52872C14.7649 3.52872 14.4707 3.29343 14.4707 2.94049V1.17578H5.05897V2.94049C5.05897 3.29343 4.76485 3.52872 4.47073 3.52872C4.17661 3.52872 3.8825 3.29343 3.8825 2.94049V1.17578H2.11779C1.23544 1.17578 0.588379 1.94049 0.588379 2.94049V5.05813H19.4119V2.94049C19.4119 1.94049 18.3531 1.17578 17.4119 1.17578ZM0.588379 6.29343V17.0581C0.588379 18.117 1.23544 18.8228 2.17661 18.8228H17.4707C18.4119 18.8228 19.4707 18.0581 19.4707 17.0581V6.29343H0.588379ZM5.82367 16.1758H4.41191C4.17661 16.1758 3.94132 15.9993 3.94132 15.7052V14.2346C3.94132 13.9993 4.11779 13.764 4.41191 13.764H5.8825C6.11779 13.764 6.35309 13.9405 6.35309 14.2346V15.7052C6.29426 15.9993 6.11779 16.1758 5.82367 16.1758ZM5.82367 10.8817H4.41191C4.17661 10.8817 3.94132 10.7052 3.94132 10.4111V8.94049C3.94132 8.70519 4.11779 8.4699 4.41191 8.4699H5.8825C6.11779 8.4699 6.35309 8.64637 6.35309 8.94049V10.4111C6.29426 10.7052 6.11779 10.8817 5.82367 10.8817ZM10.5296 16.1758H9.05897C8.82367 16.1758 8.58838 15.9993 8.58838 15.7052V14.2346C8.58838 13.9993 8.76485 13.764 9.05897 13.764H10.5296C10.7648 13.764 11.0001 13.9405 11.0001 14.2346V15.7052C11.0001 15.9993 10.8237 16.1758 10.5296 16.1758ZM10.5296 10.8817H9.05897C8.82367 10.8817 8.58838 10.7052 8.58838 10.4111V8.94049C8.58838 8.70519 8.76485 8.4699 9.05897 8.4699H10.5296C10.7648 8.4699 11.0001 8.64637 11.0001 8.94049V10.4111C11.0001 10.7052 10.8237 10.8817 10.5296 10.8817ZM15.2354 16.1758H13.7648C13.5296 16.1758 13.2943 15.9993 13.2943 15.7052V14.2346C13.2943 13.9993 13.4707 13.764 13.7648 13.764H15.2354C15.4707 13.764 15.706 13.9405 15.706 14.2346V15.7052C15.706 15.9993 15.5296 16.1758 15.2354 16.1758ZM15.2354 10.8817H13.7648C13.5296 10.8817 13.2943 10.7052 13.2943 10.4111V8.94049C13.2943 8.70519 13.4707 8.4699 13.7648 8.4699H15.2354C15.4707 8.4699 15.706 8.64637 15.706 8.94049V10.4111C15.706 10.7052 15.5296 10.8817 15.2354 10.8817Z" fill="#1E64D3"/>
</svg>
