<svg width="21" height="21" viewBox="0 0 21 21" fill="none" xmlns="http://www.w3.org/2000/svg">
<path d="M6 1C6 0.447715 5.55228 0 5 0C4.44772 0 4 0.447715 4 1V2C4 2.55228 4.44772 3 5 3C5.55228 3 6 2.55228 6 2V1Z" fill="white"/>
<path d="M17 1C17 0.447715 16.5523 0 16 0C15.4477 0 15 0.447715 15 1V2C15 2.55228 15.4477 3 16 3C16.5523 3 17 2.55228 17 2V1Z" fill="white"/>
<path d="M0.5 7.5V19C0.5 19.5304 0.710714 20.0391 1.08579 20.4142C1.46086 20.7893 1.96957 21 2.5 21H18.5C19.0304 21 19.5391 20.7893 19.9142 20.4142C20.2893 20.0391 20.5 19.5304 20.5 19V7.5H0.5ZM6.5 17.5C6.5 17.7652 6.39464 18.0196 6.20711 18.2071C6.01957 18.3946 5.76522 18.5 5.5 18.5H4.5C4.23478 18.5 3.98043 18.3946 3.79289 18.2071C3.60536 18.0196 3.5 17.7652 3.5 17.5V16.5C3.5 16.2348 3.60536 15.9804 3.79289 15.7929C3.98043 15.6054 4.23478 15.5 4.5 15.5H5.5C5.76522 15.5 6.01957 15.6054 6.20711 15.7929C6.39464 15.9804 6.5 16.2348 6.5 16.5V17.5ZM6.5 12C6.5 12.2652 6.39464 12.5196 6.20711 12.7071C6.01957 12.8946 5.76522 13 5.5 13H4.5C4.23478 13 3.98043 12.8946 3.79289 12.7071C3.60536 12.5196 3.5 12.2652 3.5 12V11C3.5 10.7348 3.60536 10.4804 3.79289 10.2929C3.98043 10.1054 4.23478 10 4.5 10H5.5C5.76522 10 6.01957 10.1054 6.20711 10.2929C6.39464 10.4804 6.5 10.7348 6.5 11V12ZM12 17.5C12 17.7652 11.8946 18.0196 11.7071 18.2071C11.5196 18.3946 11.2652 18.5 11 18.5H10C9.73478 18.5 9.48043 18.3946 9.29289 18.2071C9.10536 18.0196 9 17.7652 9 17.5V16.5C9 16.2348 9.10536 15.9804 9.29289 15.7929C9.48043 15.6054 9.73478 15.5 10 15.5H11C11.2652 15.5 11.5196 15.6054 11.7071 15.7929C11.8946 15.9804 12 16.2348 12 16.5V17.5ZM12 12C12 12.2652 11.8946 12.5196 11.7071 12.7071C11.5196 12.8946 11.2652 13 11 13H10C9.73478 13 9.48043 12.8946 9.29289 12.7071C9.10536 12.5196 9 12.2652 9 12V11C9 10.7348 9.10536 10.4804 9.29289 10.2929C9.48043 10.1054 9.73478 10 10 10H11C11.2652 10 11.5196 10.1054 11.7071 10.2929C11.8946 10.4804 12 10.7348 12 11V12ZM17.5 17.5C17.5 17.7652 17.3946 18.0196 17.2071 18.2071C17.0196 18.3946 16.7652 18.5 16.5 18.5H15.5C15.2348 18.5 14.9804 18.3946 14.7929 18.2071C14.6054 18.0196 14.5 17.7652 14.5 17.5V16.5C14.5 16.2348 14.6054 15.9804 14.7929 15.7929C14.9804 15.6054 15.2348 15.5 15.5 15.5H16.5C16.7652 15.5 17.0196 15.6054 17.2071 15.7929C17.3946 15.9804 17.5 16.2348 17.5 16.5V17.5ZM17.5 12C17.5 12.2652 17.3946 12.5196 17.2071 12.7071C17.0196 12.8946 16.7652 13 16.5 13H15.5C15.2348 13 14.9804 12.8946 14.7929 12.7071C14.6054 12.5196 14.5 12.2652 14.5 12V11C14.5 10.7348 14.6054 10.4804 14.7929 10.2929C14.9804 10.1054 15.2348 10 15.5 10H16.5C16.7652 10 17.0196 10.1054 17.2071 10.2929C17.3946 10.4804 17.5 10.7348 17.5 11V12ZM20.5 6.5V3.5C20.5 2.96957 20.2893 2.46086 19.9142 2.08579C19.5391 1.71071 19.0304 1.5 18.5 1.5H18V2C18 3.103 17.103 4 16 4C14.897 4 14 3.103 14 2V1.5H7V2C7 3.103 6.103 4 5 4C3.897 4 3 3.103 3 2V1.5H2.5C1.96957 1.5 1.46086 1.71071 1.08579 2.08579C0.710714 2.46086 0.5 2.96957 0.5 3.5V6.5H20.5Z" fill="white"/>
</svg>
