<svg width="16" height="18" viewBox="0 0 16 18" fill="none" xmlns="http://www.w3.org/2000/svg">
<path d="M15.2241 4.88857C15.1274 3.28059 13.7847 2.02083 12.1676 2.02083H11.3803V1.40885C11.3803 1.24655 11.3158 1.09089 11.201 0.97612C11.0863 0.861351 10.9306 0.796875 10.7683 0.796875C10.606 0.796875 10.4503 0.861351 10.3356 0.97612C10.2208 1.09089 10.1563 1.24655 10.1563 1.40885V2.02083H5.26049V1.40885C5.26049 1.24655 5.19601 1.09089 5.08125 0.97612C4.96648 0.861351 4.81082 0.796875 4.64851 0.796875C4.48621 0.796875 4.33055 0.861351 4.21578 0.97612C4.10101 1.09089 4.03653 1.24655 4.03653 1.40885V2.02083H3.24922C1.63176 2.02083 0.289079 3.28059 0.192692 4.88857C0.0112406 7.91297 0.0146065 10.9808 0.20279 14.0068C0.298259 15.5434 1.52925 16.7744 3.06593 16.8699C4.60598 16.9657 6.15704 17.0134 7.7081 17.0134C9.25886 17.0134 10.8102 16.9657 12.3503 16.8699C13.8869 16.7744 15.1179 15.5434 15.2134 14.0068C15.4019 10.9824 15.4053 7.9148 15.2241 4.88857ZM13.9922 13.9309C13.9639 14.3771 13.7738 14.7977 13.4576 15.1138C13.1415 15.43 12.7209 15.62 12.2747 15.6484C9.24478 15.8366 6.17203 15.8366 3.14213 15.6484C2.69591 15.62 2.27534 15.43 1.95918 15.1138C1.64302 14.7977 1.45296 14.3771 1.42461 13.9309C1.28117 11.5957 1.2488 9.25495 1.32761 6.91667H14.0895C14.1666 9.25443 14.1369 11.6053 13.9922 13.9309ZM4.64851 4.46875C4.81082 4.46875 4.96648 4.40427 5.08125 4.28951C5.19601 4.17474 5.26049 4.01908 5.26049 3.85677V3.24479H10.1563V3.85677C10.1563 4.01908 10.2208 4.17474 10.3356 4.28951C10.4503 4.40427 10.606 4.46875 10.7683 4.46875C10.9306 4.46875 11.0863 4.40427 11.201 4.28951C11.3158 4.17474 11.3803 4.01908 11.3803 3.85677V3.24479H12.1676C13.1385 3.24479 13.9445 3.99906 14.0023 4.9617C14.0167 5.20466 14.0228 5.44914 14.0347 5.69271H1.38207C1.39431 5.44914 1.40013 5.20466 1.41451 4.9617C1.47234 3.99906 2.27801 3.24479 3.24922 3.24479H4.03653V3.85677C4.03653 4.01908 4.10101 4.17474 4.21578 4.28951C4.33055 4.40427 4.48621 4.46875 4.64851 4.46875Z" fill="#525866"/>
<path d="M4.64844 10.5898C5.15542 10.5898 5.56641 10.1789 5.56641 9.67188C5.56641 9.16489 5.15542 8.75391 4.64844 8.75391C4.14146 8.75391 3.73047 9.16489 3.73047 9.67188C3.73047 10.1789 4.14146 10.5898 4.64844 10.5898Z" fill="#525866"/>
<path d="M7.7085 10.5898C8.21548 10.5898 8.62646 10.1789 8.62646 9.67188C8.62646 9.16489 8.21548 8.75391 7.7085 8.75391C7.20152 8.75391 6.79053 9.16489 6.79053 9.67188C6.79053 10.1789 7.20152 10.5898 7.7085 10.5898Z" fill="#525866"/>
<path d="M4.64844 13.6484C5.15542 13.6484 5.56641 13.2374 5.56641 12.7305C5.56641 12.2235 5.15542 11.8125 4.64844 11.8125C4.14146 11.8125 3.73047 12.2235 3.73047 12.7305C3.73047 13.2374 4.14146 13.6484 4.64844 13.6484Z" fill="#525866"/>
<path d="M10.7683 10.5898C11.2753 10.5898 11.6863 10.1789 11.6863 9.67188C11.6863 9.16489 11.2753 8.75391 10.7683 8.75391C10.2613 8.75391 9.85034 9.16489 9.85034 9.67188C9.85034 10.1789 10.2613 10.5898 10.7683 10.5898Z" fill="#525866"/>
<path d="M10.7683 13.6484C11.2753 13.6484 11.6863 13.2374 11.6863 12.7305C11.6863 12.2235 11.2753 11.8125 10.7683 11.8125C10.2613 11.8125 9.85034 12.2235 9.85034 12.7305C9.85034 13.2374 10.2613 13.6484 10.7683 13.6484Z" fill="#525866"/>
<path d="M7.7085 13.6484C8.21548 13.6484 8.62646 13.2374 8.62646 12.7305C8.62646 12.2235 8.21548 11.8125 7.7085 11.8125C7.20152 11.8125 6.79053 12.2235 6.79053 12.7305C6.79053 13.2374 7.20152 13.6484 7.7085 13.6484Z" fill="#525866"/>
</svg>
