<svg width="10" height="10" viewBox="0 0 10 10" fill="none" xmlns="http://www.w3.org/2000/svg">
<path d="M5.0017 0.09375C3.71697 0.09375 2.67177 1.13895 2.67177 2.42367C2.67177 3.7084 3.71697 4.75359 5.0017 4.75359C6.28642 4.75359 7.33162 3.7084 7.33162 2.42367C7.33162 1.13895 6.28642 0.09375 5.0017 0.09375ZM3.95402 7.01332L2.71933 7.16238L2.06699 6.10378L1.84523 6.02817L0.888672 9.018L2.61074 8.92329L3.95805 10L4.75089 7.52191L3.95402 7.01332ZM7.9364 6.1038L7.28404 7.16238L6.04937 7.01332L5.2525 7.52191L6.04534 10L7.39265 8.92329L9.11472 9.018L8.15816 6.02817L7.9364 6.1038Z" fill="#0E121B"/>
</svg>
