<svg width="10" height="12" viewBox="0 0 10 12" fill="none" xmlns="http://www.w3.org/2000/svg">
<path d="M3.53196 9.71975C3.21358 9.62916 2.93024 9.44398 2.71946 9.18875C2.68004 9.14677 2.63918 9.10616 2.59696 9.067C2.55621 9.05825 2.47896 9.05 2.42521 9.04425C2.09903 9.03308 1.78391 8.92325 1.52146 8.72925C1.38284 8.61436 1.26947 8.47204 1.18846 8.31125L0.21346 10C0.166365 10.0816 0.143273 10.1748 0.146844 10.2689C0.150415 10.3631 0.180503 10.4543 0.233644 10.532C0.286784 10.6098 0.360815 10.671 0.447208 10.7086C0.5336 10.7461 0.628841 10.7585 0.72196 10.7443L1.59221 10.6117L1.91296 11.4323C1.94691 11.5202 2.00519 11.5966 2.08098 11.6526C2.15678 11.7086 2.24695 11.7419 2.34096 11.7485C2.35396 11.7495 2.36688 11.75 2.37971 11.75C2.46739 11.7502 2.55356 11.7272 2.62945 11.6833C2.70533 11.6394 2.76822 11.5761 2.81171 11.5L3.82296 9.748C3.81546 9.74825 3.80846 9.74975 3.80096 9.74975C3.71045 9.74992 3.62021 9.73986 3.53196 9.71975ZM8.10346 8.311C8.02248 8.47195 7.9091 8.61443 7.77046 8.7295C7.50798 8.92344 7.19288 9.03327 6.86671 9.0445C6.81246 9.05025 6.73496 9.05875 6.69446 9.067C6.66321 9.0945 6.60946 9.15025 6.57196 9.1895C6.36169 9.44392 6.07929 9.6287 5.76196 9.7195C5.67275 9.73997 5.58149 9.7502 5.48996 9.75C5.48271 9.75 5.47621 9.7485 5.46896 9.7485L6.48021 11.5C6.52367 11.5761 6.58652 11.6393 6.66236 11.6832C6.7382 11.7271 6.82432 11.7502 6.91196 11.75C6.92496 11.75 6.93796 11.7495 6.95096 11.7485C7.045 11.7419 7.13522 11.7086 7.21105 11.6526C7.28689 11.5966 7.34522 11.5202 7.37921 11.4323L7.69971 10.6117L8.56971 10.7443C8.66285 10.7585 8.75812 10.7462 8.84456 10.7087C8.93099 10.6712 9.00506 10.61 9.05824 10.5322C9.11141 10.4544 9.14152 10.3632 9.1451 10.269C9.14868 10.1749 9.12558 10.0816 9.07846 10L8.10346 8.311ZM4.64596 2.25C4.15151 2.25 3.66816 2.39662 3.25703 2.67133C2.84591 2.94603 2.52548 3.33648 2.33626 3.79329C2.14704 4.25011 2.09753 4.75277 2.194 5.23773C2.29046 5.72268 2.52856 6.16814 2.87819 6.51777C3.22782 6.8674 3.67328 7.1055 4.15823 7.20196C4.64319 7.29843 5.14585 7.24892 5.60267 7.0597C6.05948 6.87048 6.44993 6.55005 6.72463 6.13893C6.99934 5.7278 7.14596 5.24445 7.14596 4.75C7.14517 4.0872 6.88152 3.45178 6.41285 2.98311C5.94418 2.51444 5.30876 2.25079 4.64596 2.25ZM5.85396 4.13875L4.85396 5.63875C4.83344 5.66949 4.80637 5.6953 4.77468 5.71432C4.743 5.73334 4.70749 5.7451 4.67071 5.74875C4.66249 5.74957 4.65423 5.74999 4.64596 5.75C4.57966 5.74999 4.51608 5.72364 4.46921 5.67675L3.71921 4.92675C3.67367 4.8796 3.64847 4.81645 3.64904 4.7509C3.64961 4.68535 3.6759 4.62265 3.72226 4.5763C3.76861 4.52994 3.83131 4.50365 3.89686 4.50308C3.96241 4.50251 4.02556 4.52771 4.07271 4.57325L4.60721 5.10775L5.43796 3.86125C5.45618 3.83394 5.4796 3.81048 5.50689 3.79221C5.53418 3.77395 5.56479 3.76124 5.59699 3.75481C5.62919 3.74838 5.66234 3.74835 5.69455 3.75474C5.72676 3.76112 5.75739 3.77378 5.78471 3.792C5.81203 3.81022 5.83548 3.83364 5.85375 3.86093C5.87201 3.88822 5.88472 3.91883 5.89115 3.95103C5.89758 3.98323 5.8976 4.01638 5.89122 4.04859C5.88484 4.0808 5.87218 4.11144 5.85396 4.13875Z" fill="white"/>
<path d="M5.64898 9.23206C5.87094 9.16029 6.06684 9.02473 6.21223 8.84231C6.28678 8.75424 6.37438 8.67811 6.47198 8.61656C6.58124 8.57573 6.69622 8.55228 6.81273 8.54706C7.04224 8.54338 7.26557 8.47207 7.45473 8.34206C7.62096 8.18072 7.73763 7.97524 7.79098 7.74981C7.82173 7.63469 7.86969 7.52487 7.93323 7.42406C8.01384 7.33989 8.10693 7.26864 8.20923 7.21281C8.41567 7.10753 8.58704 6.9445 8.70248 6.74356C8.78296 6.52766 8.80073 6.29339 8.75373 6.06781C8.7322 5.94783 8.729 5.82526 8.74423 5.70431C8.78054 5.59417 8.8333 5.49016 8.90073 5.39581C9.0427 5.20839 9.12798 4.98421 9.14648 4.74981C9.12786 4.51564 9.04268 4.29167 8.90098 4.10431C8.83345 4.00999 8.7806 3.90597 8.74423 3.79581C8.72897 3.67487 8.73218 3.5523 8.75373 3.43231C8.80068 3.20675 8.78301 2.97252 8.70273 2.75656C8.58725 2.55581 8.41599 2.39289 8.20973 2.28756C8.10724 2.23169 8.01398 2.16036 7.93323 2.07606C7.86968 1.97509 7.82172 1.8651 7.79098 1.74981C7.73779 1.52425 7.62111 1.31865 7.45473 1.15731C7.26564 1.02735 7.04241 0.956043 6.81298 0.952313C6.69649 0.947255 6.58152 0.923973 6.47223 0.883313C6.37464 0.821564 6.28697 0.745363 6.21223 0.657313C6.06681 0.474868 5.87093 0.339236 5.64898 0.267313C5.42432 0.235483 5.19526 0.270342 4.99023 0.367563C4.88109 0.415515 4.76509 0.446052 4.64648 0.458063C4.52796 0.446155 4.41205 0.4157 4.30298 0.367813C4.09793 0.2704 3.86871 0.235616 3.64398 0.267813C3.42206 0.339519 3.22616 0.474987 3.08073 0.657313C3.00619 0.745387 2.91859 0.82152 2.82098 0.883063C2.71173 0.923894 2.59675 0.947345 2.48023 0.952563C2.25073 0.956244 2.0274 1.02755 1.83823 1.15756C1.672 1.3189 1.55534 1.52439 1.50198 1.74981C1.47124 1.86494 1.42328 1.97476 1.35973 2.07556C1.27913 2.15974 1.18604 2.23099 1.08373 2.28681C0.877297 2.3921 0.705925 2.55513 0.590484 2.75606C0.510008 2.97197 0.492241 3.20624 0.539234 3.43181C0.56077 3.5518 0.563973 3.67436 0.548734 3.79531C0.512432 3.90545 0.459667 4.00947 0.392234 4.10381C0.25027 4.29124 0.164987 4.51542 0.146484 4.74981C0.165104 4.98399 0.250284 5.20795 0.391984 5.39531C0.459518 5.48964 0.512368 5.59365 0.548734 5.70381C0.563996 5.82476 0.560793 5.94733 0.539234 6.06731C0.492284 6.29287 0.509962 6.52711 0.590234 6.74306C0.705714 6.94382 0.876974 7.10674 1.08323 7.21206C1.18574 7.26801 1.279 7.33943 1.35973 7.42381C1.42324 7.52464 1.4712 7.63445 1.50198 7.74956C1.55518 7.97513 1.67186 8.18073 1.83823 8.34206C2.02733 8.47203 2.25056 8.54333 2.47998 8.54706C2.59649 8.5522 2.71147 8.57557 2.82073 8.61631C2.91832 8.67799 3.00598 8.7541 3.08073 8.84206C3.22612 9.0246 3.42201 9.16032 3.64398 9.23231C3.86865 9.26404 4.09768 9.22919 4.30273 9.13206C4.41188 9.08411 4.52787 9.05358 4.64648 9.04156C4.765 9.05347 4.88092 9.08393 4.98998 9.13181C5.14863 9.20012 5.31803 9.24006 5.49048 9.24981C5.54382 9.25002 5.59701 9.24406 5.64898 9.23206ZM4.64648 7.74981C4.05314 7.74981 3.47312 7.57387 2.97977 7.24422C2.48643 6.91458 2.10191 6.44604 1.87485 5.89786C1.64778 5.34969 1.58837 4.74649 1.70413 4.16454C1.81988 3.5826 2.10561 3.04805 2.52516 2.62849C2.94472 2.20894 3.47927 1.92321 4.06121 1.80746C4.64316 1.6917 5.24636 1.75111 5.79453 1.97817C6.34271 2.20524 6.81125 2.58976 7.14089 3.0831C7.47054 3.57645 7.64648 4.15647 7.64648 4.74981C7.64562 5.5452 7.32928 6.30776 6.76685 6.87018C6.20443 7.43261 5.44187 7.74895 4.64648 7.74981Z" fill="white"/>
</svg>
