<svg width="26" height="26" viewBox="0 0 26 26" fill="none" xmlns="http://www.w3.org/2000/svg">
<path fill-rule="evenodd" clip-rule="evenodd" d="M17.1845 2.4502H8.19043C4.66544 2.4502 2.31299 4.97402 2.31299 8.58805V17.0624C2.31299 20.6798 4.65916 23.2002 8.19043 23.2002H17.1834C20.7157 23.2002 23.063 20.6798 23.063 17.0624V8.58805C23.063 4.97081 20.7159 2.4502 17.1845 2.4502ZM8.19043 4.00645H17.1845C19.8306 4.00645 21.5067 5.80648 21.5067 8.58805V17.0624C21.5067 19.844 19.8305 21.644 17.1834 21.644H8.19043C5.54455 21.644 3.86924 19.8442 3.86924 17.0624V8.58805C3.86924 5.81002 5.55034 4.00645 8.19043 4.00645ZM16.9312 9.81299C16.6273 9.50912 16.1346 9.50912 15.8308 9.81299L11.456 14.1862L9.54407 12.2748L9.45678 12.1995C9.15211 11.9735 8.71983 11.9987 8.44364 12.2751C8.13982 12.579 8.13992 13.0717 8.44387 13.3755L10.9069 15.8375L10.9941 15.9128C11.2987 16.1388 11.731 16.1136 12.0073 15.8374L16.9312 10.9134L17.0066 10.8262C17.2325 10.5215 17.2074 10.0892 16.9312 9.81299Z" fill="#1E64D3"/>
</svg>
