<svg width="14" height="14" viewBox="0 0 14 14" fill="none" xmlns="http://www.w3.org/2000/svg">
<g clip-path="url(#clip0_208_9517)">
<path d="M12.1881 0.824219H10.9528V2.05951C10.9528 2.30657 10.7469 2.47128 10.541 2.47128C10.3352 2.47128 10.1293 2.30657 10.1293 2.05951V0.824219H3.54103V2.05951C3.54103 2.30657 3.33515 2.47128 3.12927 2.47128C2.92339 2.47128 2.7175 2.30657 2.7175 2.05951V0.824219H1.48221C0.864562 0.824219 0.411621 1.35951 0.411621 2.05951V3.54187H13.5881V2.05951C13.5881 1.35951 12.8469 0.824219 12.1881 0.824219ZM0.411621 4.40657V11.9419C0.411621 12.683 0.864562 13.1772 1.52339 13.1772H12.2293C12.8881 13.1772 13.6293 12.6419 13.6293 11.9419V4.40657H0.411621ZM4.07633 11.3242H3.08809C2.92339 11.3242 2.75868 11.2007 2.75868 10.9948V9.9654C2.75868 9.80069 2.88221 9.63598 3.08809 9.63598H4.1175C4.28221 9.63598 4.44692 9.75951 4.44692 9.9654V10.9948C4.40574 11.2007 4.28221 11.3242 4.07633 11.3242ZM4.07633 7.61834H3.08809C2.92339 7.61834 2.75868 7.49481 2.75868 7.28893V6.25951C2.75868 6.09481 2.88221 5.9301 3.08809 5.9301H4.1175C4.28221 5.9301 4.44692 6.05363 4.44692 6.25951V7.28893C4.40574 7.49481 4.28221 7.61834 4.07633 7.61834ZM7.37044 11.3242H6.34103C6.17633 11.3242 6.01162 11.2007 6.01162 10.9948V9.9654C6.01162 9.80069 6.13515 9.63598 6.34103 9.63598H7.37044C7.53515 9.63598 7.69986 9.75951 7.69986 9.9654V10.9948C7.69986 11.2007 7.57633 11.3242 7.37044 11.3242ZM7.37044 7.61834H6.34103C6.17633 7.61834 6.01162 7.49481 6.01162 7.28893V6.25951C6.01162 6.09481 6.13515 5.9301 6.34103 5.9301H7.37044C7.53515 5.9301 7.69986 6.05363 7.69986 6.25951V7.28893C7.69986 7.49481 7.57633 7.61834 7.37044 7.61834ZM10.6646 11.3242H9.63515C9.47044 11.3242 9.30574 11.2007 9.30574 10.9948V9.9654C9.30574 9.80069 9.42927 9.63598 9.63515 9.63598H10.6646C10.8293 9.63598 10.994 9.75951 10.994 9.9654V10.9948C10.994 11.2007 10.8704 11.3242 10.6646 11.3242ZM10.6646 7.61834H9.63515C9.47044 7.61834 9.30574 7.49481 9.30574 7.28893V6.25951C9.30574 6.09481 9.42927 5.9301 9.63515 5.9301H10.6646C10.8293 5.9301 10.994 6.05363 10.994 6.25951V7.28893C10.994 7.49481 10.8704 7.61834 10.6646 7.61834Z" fill="#525866"/>
</g>
<defs>
<clipPath id="clip0_208_9517">
<rect width="14" height="14" fill="white"/>
</clipPath>
</defs>
</svg>
