<svg width="28" height="28" viewBox="0 0 28 28" fill="none" xmlns="http://www.w3.org/2000/svg">
<path d="M14 0.25C11.2805 0.25 8.62209 1.05642 6.36092 2.56729C4.09974 4.07816 2.33737 6.22562 1.29666 8.7381C0.255958 11.2506 -0.0163382 14.0153 0.514209 16.6825C1.04476 19.3497 2.35432 21.7997 4.27729 23.7227C6.20026 25.6457 8.65028 26.9552 11.3175 27.4858C13.9848 28.0163 16.7494 27.744 19.2619 26.7033C21.7744 25.6626 23.9218 23.9003 25.4327 21.6391C26.9436 19.3779 27.75 16.7195 27.75 14C27.7457 10.3546 26.2957 6.85973 23.718 4.28203C21.1403 1.70434 17.6454 0.254301 14 0.25ZM18.6338 18.6337C18.3993 18.8681 18.0815 18.9997 17.75 18.9997C17.4186 18.9997 17.1007 18.8681 16.8663 18.6337L13.1163 14.8837C12.8818 14.6494 12.7501 14.3315 12.75 14V6.5C12.75 6.16848 12.8817 5.85054 13.1161 5.61612C13.3505 5.3817 13.6685 5.25 14 5.25C14.3315 5.25 14.6495 5.3817 14.8839 5.61612C15.1183 5.85054 15.25 6.16848 15.25 6.5V13.4825L18.6338 16.8663C18.8681 17.1007 18.9997 17.4185 18.9997 17.75C18.9997 18.0815 18.8681 18.3993 18.6338 18.6337Z" fill="white"/>
</svg>
