<svg width="25" height="25" viewBox="0 0 25 25" fill="none" xmlns="http://www.w3.org/2000/svg">
<path d="M12.4998 1.5C10.3242 1.5 8.19743 2.14514 6.38849 3.35383C4.57955 4.56253 3.16965 6.28049 2.33709 8.29048C1.50452 10.3005 1.28669 12.5122 1.71112 14.646C2.13556 16.7798 3.18321 18.7398 4.72159 20.2782C6.25996 21.8166 8.21998 22.8642 10.3538 23.2886C12.4876 23.7131 14.6993 23.4952 16.7093 22.6627C18.7193 21.8301 20.4372 20.4202 21.6459 18.6113C22.8546 16.8023 23.4998 14.6756 23.4998 12.5C23.4963 9.58367 22.3363 6.78778 20.2741 4.72563C18.212 2.66347 15.4161 1.50344 12.4998 1.5ZM16.2068 16.207C16.0192 16.3945 15.7649 16.4998 15.4998 16.4998C15.2346 16.4998 14.9803 16.3945 14.7928 16.207L11.7928 13.207C11.6052 13.0195 11.4998 12.7652 11.4998 12.5V6.5C11.4998 6.23478 11.6051 5.98043 11.7927 5.79289C11.9802 5.60536 12.2345 5.5 12.4998 5.5C12.765 5.5 13.0193 5.60536 13.2069 5.79289C13.3944 5.98043 13.4998 6.23478 13.4998 6.5V12.086L16.2068 14.793C16.3942 14.9805 16.4995 15.2348 16.4995 15.5C16.4995 15.7652 16.3942 16.0195 16.2068 16.207Z" fill="white"/>
</svg>
