<svg width="130" height="130" viewBox="0 0 130 130" fill="none" xmlns="http://www.w3.org/2000/svg">
<ellipse opacity="0.1" cx="65.1209" cy="65.2239" rx="64.4471" ry="64.2981" fill="#1E64D3"/>
<ellipse cx="65.1219" cy="65.2243" rx="51.1786" ry="51.0603" fill="#1E64D3" fill-opacity="0.15"/>
<g clip-path="url(#clip0_602_4721)">
<path d="M91.6074 47.2966V73.9044C91.6074 77.5702 88.6357 80.542 84.9698 80.542H82.5921C81.3457 80.542 80.1331 80.9473 79.1372 81.6967L68.4616 89.7294C67.4907 90.4597 66.1357 89.5808 66.4089 88.3965L67.6614 82.9582C67.9462 81.722 67.0072 80.542 65.7385 80.542H46.2439C42.5787 80.5421 39.6074 77.5708 39.6074 73.9055V47.2967C39.6074 43.6314 42.5787 40.6602 46.2439 40.6602H84.9708C88.6361 40.6601 91.6074 43.6314 91.6074 47.2966Z" fill="#FE646F"/>
<path d="M42.9168 47.2967V73.9056C42.9168 77.5707 45.8882 80.5421 49.5534 80.5421H46.2439C42.5788 80.5421 39.6074 77.5706 39.6074 73.9055V47.2967C39.6074 43.6316 42.5788 40.6602 46.2439 40.6602H49.5533C45.8882 40.6601 42.9168 43.6315 42.9168 47.2967Z" fill="#FD4755"/>
<path d="M73.5903 58.9508C73.6934 58.9508 73.7954 58.9305 73.8906 58.8911C73.9858 58.8517 74.0723 58.7939 74.1452 58.721C74.2181 58.6482 74.2759 58.5617 74.3153 58.4664C74.3547 58.3712 74.375 58.2692 74.375 58.1661V53.1483L78.0397 58.455C78.2766 58.7971 78.6694 58.9434 79.04 58.8274C79.4197 58.7087 79.6651 58.3493 79.6651 57.9041L79.5945 50.6093C79.5925 50.4025 79.509 50.2049 79.3621 50.0594C79.2152 49.9138 79.0168 49.8322 78.81 49.8321H78.8023C78.5942 49.8341 78.3954 49.9187 78.2496 50.0673C78.1039 50.2159 78.0231 50.4163 78.0252 50.6244L78.0748 55.7438L74.2361 50.1851C74.1409 50.0475 74.0043 49.9438 73.8462 49.8893C73.688 49.8348 73.5166 49.8323 73.3569 49.882C73.1972 49.9318 73.0575 50.0313 72.9584 50.166C72.8592 50.3008 72.8056 50.4636 72.8055 50.6309V58.1661C72.8055 58.2692 72.8258 58.3712 72.8653 58.4665C72.9047 58.5617 72.9625 58.6482 73.0354 58.721C73.1083 58.7939 73.1948 58.8517 73.29 58.8911C73.3852 58.9305 73.4873 58.9508 73.5903 58.9508ZM67.659 58.2545C67.6783 58.3557 67.7174 58.4521 67.774 58.5382C67.8306 58.6243 67.9036 58.6985 67.9888 58.7563C68.0741 58.8142 68.1699 58.8548 68.2708 58.8756C68.3717 58.8965 68.4757 58.8973 68.5769 58.8779C68.6782 58.8586 68.7746 58.8195 68.8607 58.7629C68.9468 58.7063 69.0209 58.6333 69.0788 58.5481C69.1367 58.4628 69.1772 58.367 69.1981 58.2661C69.2189 58.1652 69.2197 58.0612 69.2004 57.96L67.7931 50.5965C67.7508 50.3898 67.6413 50.2029 67.4817 50.0649C67.3221 49.927 67.1213 49.8457 66.9107 49.8338C66.6953 49.822 66.4822 49.8834 66.3061 50.0079C66.1299 50.1324 66.0011 50.3128 65.9403 50.5198L64.4378 55.7905L62.8804 50.5117C62.8178 50.3049 62.687 50.1254 62.5093 50.0025C62.3316 49.8796 62.1175 49.8206 61.9019 49.835C61.4692 49.864 61.1099 50.1818 61.0263 50.6164L59.6994 57.968C59.6653 58.1716 59.7128 58.3804 59.8316 58.5492C59.9504 58.718 60.1309 58.8332 60.334 58.8699C60.5371 58.9066 60.7465 58.8617 60.9168 58.7451C61.0871 58.6285 61.2046 58.4494 61.2439 58.2468L62.1101 53.4473L63.5336 58.2721C63.5927 58.4685 63.7135 58.6407 63.8782 58.763C64.0429 58.8853 64.2426 58.9512 64.4478 58.9509H64.4528C64.6587 58.9501 64.8587 58.8827 65.023 58.7588C65.1873 58.6349 65.3072 58.4611 65.3646 58.2634L66.739 53.442L67.659 58.2545ZM71.0158 58.9508C71.1189 58.9508 71.2209 58.9305 71.3161 58.8911C71.4113 58.8517 71.4978 58.7939 71.5707 58.721C71.6436 58.6482 71.7014 58.5617 71.7408 58.4664C71.7802 58.3712 71.8005 58.2692 71.8005 58.1661V50.6169C71.8005 50.4088 71.7178 50.2092 71.5707 50.0621C71.4235 49.9149 71.2239 49.8322 71.0158 49.8322C70.8077 49.8322 70.6081 49.9149 70.461 50.0621C70.3138 50.2092 70.2311 50.4088 70.2311 50.6169V58.1661C70.2311 58.3743 70.3138 58.5738 70.461 58.721C70.6081 58.8681 70.8077 58.9508 71.0158 58.9508ZM87.965 53.6068H85.7066C85.4985 53.6068 85.2989 53.6895 85.1518 53.8366C85.0046 53.9838 84.922 54.1834 84.922 54.3915C84.922 54.5996 85.0046 54.7992 85.1518 54.9463C85.2989 55.0935 85.4985 55.1761 85.7066 55.1761H87.109C86.8971 56.316 86.1915 57.3814 84.7064 57.3814C83.0578 57.3814 81.7164 56.0401 81.7164 54.3915C81.7164 52.7428 83.0577 51.4016 84.7064 51.4016C85.3057 51.4016 85.8836 51.578 86.3776 51.9117C86.5502 52.0233 86.7595 52.0627 86.9608 52.0216C87.162 51.9805 87.3392 51.8622 87.4542 51.6919C87.5691 51.5217 87.6128 51.3132 87.5758 51.1112C87.5388 50.9091 87.424 50.7296 87.2562 50.6112C86.5018 50.1015 85.6201 49.832 84.7064 49.832C82.1924 49.832 80.1471 51.8774 80.1471 54.3914C80.1471 56.9054 82.1925 58.9507 84.7064 58.9507C87.0871 58.9507 88.7496 57.0759 88.7496 54.3914C88.7496 54.1833 88.6669 53.9837 88.5198 53.8366C88.3726 53.6895 88.1731 53.6068 87.965 53.6068ZM50.0052 57.605C50.1353 57.4452 50.1973 57.2406 50.1778 57.0355C50.1583 56.8303 50.0589 56.641 49.9011 56.5085C49.7433 56.376 49.5397 56.3109 49.3342 56.3273C49.1288 56.3437 48.9381 56.4402 48.8032 56.596C48.7331 56.6795 48.6572 56.7579 48.5759 56.8306C48.1656 57.1961 47.6441 57.3814 47.0261 57.3814C45.3775 57.3814 44.0361 56.0401 44.0361 54.3915C44.0361 52.7428 45.3774 51.4016 47.0261 51.4016C47.6254 51.4016 48.2034 51.578 48.6974 51.9117C48.8699 52.0233 49.0792 52.0627 49.2805 52.0216C49.4817 51.9805 49.6589 51.8622 49.7739 51.6919C49.8888 51.5217 49.9325 51.3132 49.8955 51.1112C49.8585 50.9091 49.7437 50.7296 49.5759 50.6112C48.8215 50.1015 47.9398 49.832 47.0261 49.832C44.5121 49.832 42.4668 51.8774 42.4668 54.3914C42.4668 56.9054 44.5122 58.9507 47.0261 58.9507C48.0263 58.9507 48.9231 58.6229 49.6197 58.0024C49.7576 57.8794 49.8865 57.7466 50.0052 57.605ZM54.7863 58.9508C57.3004 58.9508 59.3457 56.9055 59.3457 54.3915C59.3457 51.8775 57.3003 49.8321 54.7863 49.8321C52.2724 49.8321 50.227 51.8775 50.227 54.3915C50.227 56.9055 52.2723 58.9508 54.7863 58.9508ZM54.7863 51.4016C56.435 51.4016 57.7763 52.7428 57.7763 54.3915C57.7763 56.0401 56.4351 57.3814 54.7863 57.3814C53.1376 57.3814 51.7963 56.0401 51.7963 54.3915C51.7963 52.7428 53.1376 51.4016 54.7863 51.4016ZM81.2987 62.4892H81.291C81.0829 62.4912 80.8841 62.5758 80.7383 62.7243C80.5926 62.8729 80.5118 63.0733 80.5138 63.2814L80.5635 68.4008L76.7247 62.8421C76.6296 62.7045 76.493 62.601 76.3348 62.5465C76.1767 62.4921 76.0053 62.4895 75.8456 62.5393C75.686 62.5891 75.5463 62.6885 75.4472 62.8232C75.348 62.9579 75.2944 63.1207 75.2942 63.2879V70.8232C75.2942 71.0313 75.3769 71.2309 75.5241 71.378C75.6712 71.5252 75.8708 71.6078 76.0789 71.6078C76.287 71.6078 76.4866 71.5252 76.6338 71.378C76.7809 71.2309 76.8636 71.0313 76.8636 70.8232V65.8052L80.5283 71.1119C80.7652 71.454 81.1579 71.6003 81.5285 71.4844C81.9083 71.3657 82.1537 71.0063 82.1537 70.5611L82.0831 63.2663C82.0811 63.0596 81.9976 62.8619 81.8507 62.7164C81.7039 62.5709 81.5055 62.4892 81.2987 62.4892ZM60.3385 62.4892C57.8245 62.4892 55.7792 64.5345 55.7792 67.0485C55.7792 69.5625 57.8246 71.6078 60.3385 71.6078C62.8525 71.6078 64.8979 69.5625 64.8979 67.0485C64.8979 64.5345 62.8525 62.4892 60.3385 62.4892ZM60.3385 70.0384C58.6899 70.0384 57.3485 68.6972 57.3485 67.0485C57.3485 65.3998 58.6898 64.0586 60.3385 64.0586C61.9873 64.0586 63.3285 65.3998 63.3285 67.0485C63.3285 68.6972 61.9872 70.0384 60.3385 70.0384ZM70.0029 62.4892C67.4889 62.4892 65.4436 64.5345 65.4436 67.0485C65.4436 69.5625 67.489 71.6078 70.0029 71.6078C72.517 71.6078 74.5623 69.5625 74.5623 67.0485C74.5623 64.5345 72.5169 62.4892 70.0029 62.4892ZM70.0029 70.0384C68.3543 70.0384 67.0129 68.6972 67.0129 67.0485C67.0129 65.3998 68.3542 64.0586 70.0029 64.0586C71.6517 64.0586 72.9929 65.3998 72.9929 67.0485C72.9929 68.6972 71.6516 70.0384 70.0029 70.0384ZM53.4053 66.3717C53.1513 66.2779 52.9107 66.1954 52.6983 66.1225C51.9698 65.8722 51.4885 65.7069 51.1631 65.3703C50.9834 65.1843 51.0252 64.9298 51.0514 64.8291C51.1341 64.5114 51.4045 64.2552 51.7745 64.1437C52.9248 63.7972 53.9738 64.6333 53.9986 64.6533C54.1587 64.7832 54.3634 64.8448 54.5686 64.8249C54.7737 64.805 54.9628 64.7052 55.095 64.5471C55.2272 64.3889 55.2918 64.1851 55.275 63.9797C55.2582 63.7743 55.1612 63.5838 55.0051 63.4492C54.9365 63.3915 53.3029 62.0441 51.3217 62.6411C50.4234 62.9117 49.7545 63.5817 49.5326 64.4333C49.3387 65.1771 49.5263 65.9351 50.0343 66.461C50.6219 67.0688 51.3477 67.3181 52.1883 67.6069C52.4137 67.6834 52.6383 67.7626 52.8619 67.8443C53.6408 68.1317 54.0386 68.5708 53.9531 69.0492C53.8663 69.5356 53.2907 70.0386 52.4779 70.0386C51.6835 70.0386 50.9174 69.7167 50.4287 69.1774C50.2889 69.0235 50.0937 68.9314 49.886 68.9213C49.6783 68.9112 49.4751 68.984 49.321 69.1236C49.167 69.2632 49.0746 69.4583 49.0642 69.6659C49.0539 69.8736 49.1264 70.0769 49.2658 70.2312C50.047 71.0933 51.2479 71.608 52.478 71.608C53.9674 71.608 55.2659 70.6266 55.4982 69.3251C55.675 68.3356 55.2179 67.0404 53.4053 66.3717Z" fill="#F9F7F8"/>
</g>
<defs>
<clipPath id="clip0_602_4721">
<rect width="52" height="52" fill="white" transform="translate(39.6074 39.3281)"/>
</clipPath>
</defs>
</svg>
