<svg width="16" height="12" viewBox="0 0 16 12" fill="none" xmlns="http://www.w3.org/2000/svg">
<path d="M14.1667 0H1.83333C1.34721 0.000353158 0.881101 0.193621 0.537361 0.537361C0.193621 0.881101 0.000353158 1.34721 0 1.83333L0 10.1667C0.000353158 10.6528 0.193621 11.1189 0.537361 11.4626C0.881101 11.8064 1.34721 11.9996 1.83333 12H14.1667C14.6528 11.9996 15.1189 11.8064 15.4626 11.4626C15.8064 11.1189 15.9996 10.6528 16 10.1667V1.83333C15.9996 1.34721 15.8064 0.881101 15.4626 0.537361C15.1189 0.193621 14.6528 0.000353158 14.1667 0ZM5 2.66667C5.91867 2.66667 6.66667 3.41467 6.66667 4.33333C6.66667 5.252 5.91867 6 5 6C4.08133 6 3.33333 5.252 3.33333 4.33333C3.33333 3.41467 4.08133 2.66667 5 2.66667ZM8 8.83333C8 8.96594 7.94732 9.09312 7.85355 9.18689C7.75979 9.28066 7.63261 9.33333 7.5 9.33333H2.5C2.36739 9.33333 2.24021 9.28066 2.14645 9.18689C2.05268 9.09312 2 8.96594 2 8.83333V8.5C2.00035 8.01388 2.19362 7.54777 2.53736 7.20403C2.8811 6.86029 3.34721 6.66702 3.83333 6.66667H6.16667C6.65279 6.66702 7.1189 6.86029 7.46264 7.20403C7.80638 7.54777 7.99965 8.01388 8 8.5V8.83333ZM13.5 9.33333H9.83333C9.70073 9.33333 9.57355 9.28066 9.47978 9.18689C9.38601 9.09312 9.33333 8.96594 9.33333 8.83333C9.33333 8.70073 9.38601 8.57355 9.47978 8.47978C9.57355 8.38601 9.70073 8.33333 9.83333 8.33333H13.5C13.6326 8.33333 13.7598 8.38601 13.8536 8.47978C13.9473 8.57355 14 8.70073 14 8.83333C14 8.96594 13.9473 9.09312 13.8536 9.18689C13.7598 9.28066 13.6326 9.33333 13.5 9.33333ZM13.5 6.66667H9.83333C9.70073 6.66667 9.57355 6.61399 9.47978 6.52022C9.38601 6.42645 9.33333 6.29927 9.33333 6.16667C9.33333 6.03406 9.38601 5.90688 9.47978 5.81311C9.57355 5.71935 9.70073 5.66667 9.83333 5.66667H13.5C13.6326 5.66667 13.7598 5.71935 13.8536 5.81311C13.9473 5.90688 14 6.03406 14 6.16667C14 6.29927 13.9473 6.42645 13.8536 6.52022C13.7598 6.61399 13.6326 6.66667 13.5 6.66667ZM13.5 4H9.83333C9.70073 4 9.57355 3.94732 9.47978 3.85355C9.38601 3.75979 9.33333 3.63261 9.33333 3.5C9.33333 3.36739 9.38601 3.24021 9.47978 3.14645C9.57355 3.05268 9.70073 3 9.83333 3H13.5C13.6326 3 13.7598 3.05268 13.8536 3.14645C13.9473 3.24021 14 3.36739 14 3.5C14 3.63261 13.9473 3.75979 13.8536 3.85355C13.7598 3.94732 13.6326 4 13.5 4Z" fill="#525866"/>
</svg>
