<svg width="14" height="14" viewBox="0 0 14 14" fill="none" xmlns="http://www.w3.org/2000/svg">
<g clip-path="url(#clip0_481_31282)">
<path d="M12.1886 0.824219H10.9533V2.05951C10.9533 2.30657 10.7474 2.47128 10.5415 2.47128C10.3356 2.47128 10.1298 2.30657 10.1298 2.05951V0.824219H3.54152V2.05951C3.54152 2.30657 3.33564 2.47128 3.12976 2.47128C2.92387 2.47128 2.71799 2.30657 2.71799 2.05951V0.824219H1.4827C0.865051 0.824219 0.412109 1.35951 0.412109 2.05951V3.54187H13.5886V2.05951C13.5886 1.35951 12.8474 0.824219 12.1886 0.824219ZM0.412109 4.40657V11.9419C0.412109 12.683 0.865051 13.1772 1.52387 13.1772H12.2298C12.8886 13.1772 13.6298 12.6419 13.6298 11.9419V4.40657H0.412109ZM4.07682 11.3242H3.08858C2.92387 11.3242 2.75917 11.2007 2.75917 10.9948V9.9654C2.75917 9.80069 2.8827 9.63598 3.08858 9.63598H4.11799C4.2827 9.63598 4.4474 9.75951 4.4474 9.9654V10.9948C4.40623 11.2007 4.2827 11.3242 4.07682 11.3242ZM4.07682 7.61834H3.08858C2.92387 7.61834 2.75917 7.49481 2.75917 7.28893V6.25951C2.75917 6.09481 2.8827 5.9301 3.08858 5.9301H4.11799C4.2827 5.9301 4.4474 6.05363 4.4474 6.25951V7.28893C4.40623 7.49481 4.2827 7.61834 4.07682 7.61834ZM7.37093 11.3242H6.34152C6.17682 11.3242 6.01211 11.2007 6.01211 10.9948V9.9654C6.01211 9.80069 6.13564 9.63598 6.34152 9.63598H7.37093C7.53564 9.63598 7.70035 9.75951 7.70035 9.9654V10.9948C7.70035 11.2007 7.57682 11.3242 7.37093 11.3242ZM7.37093 7.61834H6.34152C6.17682 7.61834 6.01211 7.49481 6.01211 7.28893V6.25951C6.01211 6.09481 6.13564 5.9301 6.34152 5.9301H7.37093C7.53564 5.9301 7.70035 6.05363 7.70035 6.25951V7.28893C7.70035 7.49481 7.57682 7.61834 7.37093 7.61834ZM10.6651 11.3242H9.63564C9.47093 11.3242 9.30623 11.2007 9.30623 10.9948V9.9654C9.30623 9.80069 9.42976 9.63598 9.63564 9.63598H10.6651C10.8298 9.63598 10.9945 9.75951 10.9945 9.9654V10.9948C10.9945 11.2007 10.8709 11.3242 10.6651 11.3242ZM10.6651 7.61834H9.63564C9.47093 7.61834 9.30623 7.49481 9.30623 7.28893V6.25951C9.30623 6.09481 9.42976 5.9301 9.63564 5.9301H10.6651C10.8298 5.9301 10.9945 6.05363 10.9945 6.25951V7.28893C10.9945 7.49481 10.8709 7.61834 10.6651 7.61834Z" fill="#727A90"/>
</g>
<defs>
<clipPath id="clip0_481_31282">
<rect width="14" height="14" fill="white"/>
</clipPath>
</defs>
</svg>
