<svg width="26" height="26" viewBox="0 0 26 26" fill="none" xmlns="http://www.w3.org/2000/svg">
<path d="M13.1129 0.911133C9.81872 0.915276 6.66069 2.2257 4.33138 4.55501C2.00207 6.88432 0.691643 10.0424 0.6875 13.3365C0.689986 16.6317 1.99968 19.7914 4.32917 22.122C6.65866 24.4527 9.81764 25.764 13.1129 25.7681C16.4092 25.7656 19.5698 24.4551 21.9006 22.1242C24.2314 19.7934 25.542 16.6328 25.5445 13.3365C25.5403 10.0407 24.2286 6.88127 21.8973 4.5517C19.5659 2.22212 16.4086 0.912789 13.1129 0.911133ZM13.1129 2.56764C14.5283 2.56558 15.9303 2.84275 17.2385 3.38329C18.5467 3.92383 19.7354 4.71711 20.7366 5.71771C21.7378 6.7183 22.5318 7.90657 23.0731 9.21445C23.6144 10.5223 23.8923 11.9242 23.8911 13.3396C23.8915 14.755 23.613 16.1566 23.0714 17.4643C22.5299 18.772 21.7359 19.9601 20.735 20.9608C19.734 21.9615 18.5456 22.7551 17.2378 23.2963C15.9299 23.8374 14.5282 24.1156 13.1129 24.1147C11.6974 24.116 10.2956 23.838 8.98769 23.2967C7.6798 22.7554 6.49154 21.9614 5.49094 20.9602C4.49034 19.9591 3.69706 18.7703 3.15652 17.4621C2.61599 16.1539 2.33881 14.752 2.34087 13.3365C2.33923 11.9214 2.61673 10.5199 3.15749 9.21228C3.69824 7.90462 4.49164 6.71647 5.49224 5.71587C6.49284 4.71527 7.68099 3.92188 8.98865 3.38112C10.2963 2.84036 11.6978 2.56286 13.1129 2.56451V2.56764ZM13.1035 6.7136C12.8845 6.71772 12.676 6.80825 12.5235 6.96546C12.371 7.12266 12.2868 7.33379 12.2893 7.55281V8.25111C10.9522 8.50162 9.80611 9.36276 9.80611 10.8564C9.80611 11.8898 10.2758 12.729 10.9021 13.2175C11.5284 13.706 12.2361 13.9189 12.8561 14.1256C13.4792 14.3354 14.0147 14.5327 14.3184 14.7707C14.6253 15.0055 14.7694 15.2091 14.7694 15.8291C14.7694 17.2069 11.4626 17.2069 11.4626 15.8291C11.4696 15.716 11.4533 15.6027 11.4148 15.4962C11.3763 15.3897 11.3165 15.2922 11.2389 15.2097C11.1613 15.1271 11.0676 15.0614 10.9637 15.0164C10.8597 14.9715 10.7476 14.9483 10.6344 14.9483C10.5211 14.9483 10.409 14.9715 10.3051 15.0164C10.2011 15.0614 10.1074 15.1271 10.0298 15.2097C9.95225 15.2922 9.89237 15.3897 9.8539 15.4962C9.81542 15.6027 9.79916 15.716 9.80611 15.8291C9.80611 17.3196 10.9522 18.1839 12.2893 18.4344V19.1296C12.2823 19.2426 12.2986 19.3559 12.3371 19.4624C12.3756 19.569 12.4354 19.6665 12.513 19.749C12.5906 19.8315 12.6843 19.8973 12.7883 19.9422C12.8922 19.9871 13.0043 20.0103 13.1176 20.0103C13.2308 20.0103 13.3429 19.9871 13.4469 19.9422C13.5508 19.8973 13.6445 19.8315 13.7221 19.749C13.7997 19.6665 13.8595 19.569 13.898 19.4624C13.9365 19.3559 13.9528 19.2426 13.9458 19.1296V18.4313C15.2829 18.1808 16.429 17.3165 16.429 15.8259C16.429 14.7895 15.9593 13.9502 15.333 13.4649C14.7067 12.9764 13.999 12.7572 13.379 12.5505C12.7559 12.3438 12.2204 12.1466 11.9135 11.9117C11.6098 11.6737 11.4626 11.4733 11.4626 10.8533C11.4626 9.47235 14.7694 9.47235 14.7694 10.8533C14.7694 11.0734 14.8568 11.2844 15.0124 11.4401C15.168 11.5957 15.3791 11.6831 15.5992 11.6831C15.8193 11.6831 16.0303 11.5957 16.186 11.4401C16.3416 11.2844 16.429 11.0734 16.429 10.8533C16.429 9.36276 15.2829 8.50162 13.9458 8.24798V7.54968C13.9471 7.43859 13.926 7.32837 13.8839 7.22557C13.8418 7.12276 13.7795 7.02946 13.7006 6.95119C13.6218 6.87292 13.528 6.81129 13.4249 6.76994C13.3218 6.72859 13.2114 6.70836 13.1003 6.71047L13.1035 6.7136Z" fill="#525866"/>
</svg>
