<svg width="21" height="21" viewBox="0 0 21 21" fill="none" xmlns="http://www.w3.org/2000/svg">
<path d="M10.4167 0.917969C5.00909 0.917969 0.625 5.30206 0.625 10.7096C0.625 16.1172 5.00909 20.5013 10.4167 20.5013C15.8242 20.5013 20.2083 16.1172 20.2083 10.7096C20.2083 5.30206 15.8242 0.917969 10.4167 0.917969ZM13.2293 14.5699C12.8021 15.0897 12.2461 15.4403 11.5973 15.6176C11.3152 15.6941 11.1863 15.8432 11.2024 16.1374C11.2145 16.4275 11.2024 16.7136 11.1984 17.0037C11.1984 17.2616 11.0654 17.3986 10.8116 17.4067C10.6463 17.4107 10.4811 17.4147 10.3159 17.4147C10.1709 17.4147 10.0258 17.4147 9.88074 17.4107C9.60674 17.4067 9.4778 17.2495 9.4778 16.9836C9.47377 16.774 9.47377 16.5605 9.47377 16.3509C9.46974 15.8835 9.45362 15.8674 9.00634 15.7949C8.43416 15.7022 7.87003 15.5732 7.34619 15.3194C6.93519 15.1179 6.89086 15.0172 7.00772 14.582C7.09636 14.2596 7.18501 13.9373 7.28575 13.6189C7.35828 13.3852 7.42678 13.2805 7.5517 13.2805C7.62423 13.2805 7.71691 13.3167 7.84182 13.3812C8.42207 13.6834 9.03858 13.8526 9.68733 13.9332C9.79613 13.9453 9.90492 13.9534 10.0137 13.9534C10.3159 13.9534 10.6101 13.897 10.8962 13.772C11.6175 13.4578 11.7303 12.6236 11.1218 12.124C10.9163 11.9547 10.6786 11.8298 10.4328 11.721C9.80015 11.443 9.14335 11.2335 8.54698 10.8748C7.5799 10.2946 6.96742 9.50079 7.03995 8.32418C7.12054 6.99444 7.87406 6.16437 9.09499 5.72112C9.59868 5.5398 9.60271 5.54383 9.60271 5.01999C9.60271 4.84269 9.59868 4.6654 9.60674 4.48407C9.61883 4.08918 9.6833 4.02068 10.0782 4.00859H10.5376C11.287 4.00859 11.287 4.04083 11.2911 4.85075C11.2951 5.44712 11.2951 5.44712 11.8874 5.5398C12.3428 5.61233 12.7739 5.7453 13.193 5.93066C13.4227 6.03139 13.5113 6.19257 13.4388 6.43837C13.334 6.80103 13.2333 7.16771 13.1205 7.52634C13.0479 7.74393 12.9794 7.84467 12.8505 7.84467C12.7779 7.84467 12.6893 7.81646 12.5765 7.76005C11.9962 7.47798 11.3878 7.34098 10.7511 7.34098C10.6705 7.34098 10.5859 7.34501 10.5053 7.34904C10.3159 7.36113 10.1306 7.3853 9.95328 7.46186C9.32467 7.73587 9.22394 8.42894 9.75986 8.85607C10.0298 9.07366 10.3401 9.22678 10.6584 9.35976C11.2145 9.58944 11.7706 9.81106 12.2984 10.1012C13.9586 11.028 14.4099 13.1354 13.2293 14.5699Z" fill="black"/>
</svg>
