<svg width="20" height="20" viewBox="0 0 20 20" fill="none" xmlns="http://www.w3.org/2000/svg">
<g clip-path="url(#clip0_216_3537)">
<path d="M10 0C4.4767 0 0 4.47713 0 10C0 15.5229 4.4767 20 10 20C15.5233 20 20 15.5224 20 10C20 4.47757 15.5229 0 10 0ZM10.6053 14.4545V15.6121C10.6053 15.7927 10.4648 15.9241 10.2837 15.9241H9.51216C9.33113 15.9241 9.18534 15.7927 9.18534 15.6121V14.5563C8.47513 14.5241 7.75882 14.3727 7.21659 14.1664C7.07461 14.1125 6.95744 14.0083 6.88744 13.8735C6.81745 13.7387 6.79953 13.5829 6.83711 13.4357L6.96288 12.9457C6.98452 12.861 7.02389 12.7819 7.07838 12.7136C7.13287 12.6452 7.20123 12.5892 7.27897 12.5492C7.3567 12.5092 7.44204 12.4862 7.52933 12.4816C7.61662 12.4771 7.70389 12.4911 7.78537 12.5227C8.30193 12.7225 8.91205 12.8678 9.56351 12.8678C10.393 12.8678 10.9609 12.5475 10.9609 11.9653C10.9609 11.4122 10.4952 11.0627 9.41773 10.6985C7.86022 10.1745 6.79359 9.44689 6.79359 8.03473C6.79359 6.75399 7.70007 5.7496 9.24975 5.44367V4.38792C9.24975 4.20732 9.40424 4.04543 9.58527 4.04543H10.3568C10.5379 4.04543 10.6706 4.20732 10.6706 4.38792V5.3414C11.3482 5.37056 11.8373 5.47108 12.2464 5.60425C12.5558 5.70521 12.7386 6.02942 12.6572 6.34536L12.5467 6.78402C12.5256 6.86671 12.4877 6.94414 12.4352 7.01141C12.3827 7.07868 12.3168 7.13434 12.2418 7.17487C12.1667 7.2154 12.084 7.23991 11.999 7.24687C11.9139 7.25383 11.8284 7.24307 11.7477 7.21528C11.2745 7.05217 10.7773 6.96993 10.2768 6.97202C9.33069 6.97202 9.02476 7.37978 9.02476 7.78755C9.02476 8.26798 9.53436 8.57348 10.7716 9.03956C12.5036 9.65099 13.1994 10.4517 13.1994 11.7612C13.199 13.0567 12.2838 14.1638 10.6053 14.4545Z" fill="#1E64D3"/>
</g>
<defs>
<clipPath id="clip0_216_3537">
<rect width="20" height="20" fill="white"/>
</clipPath>
</defs>
</svg>
