<svg width="17" height="16" viewBox="0 0 17 16" fill="none" xmlns="http://www.w3.org/2000/svg">
<g clip-path="url(#clip0_122_9698)">
<path d="M15.7656 10.0134C15.5452 10.0134 15.3666 10.192 15.3666 10.4124V13.9551C15.3658 14.6159 14.8305 15.1515 14.1696 15.1521H2.97402C2.31315 15.1515 1.77781 14.6159 1.77701 13.9551V3.55751C1.77781 2.8968 2.31319 2.3613 2.97402 2.36051H6.51676C6.73713 2.36051 6.91576 2.18187 6.91576 1.9615C6.91576 1.74125 6.73713 1.5625 6.51676 1.5625H2.97402C1.87269 1.56374 0.980241 2.45619 0.979004 3.55751V13.9553C0.980241 15.0566 1.87269 15.949 2.97402 15.9503H14.1696C15.2709 15.949 16.1634 15.0566 16.1646 13.9553V10.4124C16.1646 10.192 15.986 10.0134 15.7656 10.0134Z" fill="#525866"/>
<path d="M16.0067 0.535671C15.3055 -0.165536 14.1686 -0.165536 13.4674 0.535671L6.34892 7.65415C6.3002 7.70287 6.26492 7.76339 6.24654 7.82979L5.31044 11.2093C5.29155 11.2774 5.29106 11.3492 5.30902 11.4175C5.32698 11.4858 5.36276 11.5481 5.41268 11.5981C5.46261 11.648 5.5249 11.6838 5.59319 11.7018C5.66148 11.7198 5.73332 11.7193 5.80137 11.7004L9.18092 10.7642C9.24733 10.7458 9.30784 10.7105 9.35656 10.6618L16.4748 3.54319C17.175 2.84147 17.175 1.70559 16.4748 1.0039L16.0067 0.535671ZM7.21831 7.9135L13.0443 2.08743L14.9232 3.96633L9.09709 9.79241L7.21831 7.9135ZM6.84301 8.66662L8.34405 10.1679L6.26773 10.7431L6.84301 8.66662ZM15.9107 2.97896L15.4875 3.40206L13.6085 1.523L14.0318 1.09986C14.4213 0.710354 15.0528 0.710354 15.4423 1.09986L15.9107 1.56805C16.2996 1.95803 16.2996 2.58914 15.9107 2.97896Z" fill="#525866"/>
</g>
<defs>
<clipPath id="clip0_122_9698">
<rect width="16.0209" height="16" fill="white" transform="translate(0.979004)"/>
</clipPath>
</defs>
</svg>
