<svg width="16" height="16" viewBox="0 0 16 16" fill="none" xmlns="http://www.w3.org/2000/svg">
<path d="M14.6667 6.16732C14.5347 6.16904 14.4085 6.22228 14.3151 6.31567C14.2217 6.40907 14.1685 6.53525 14.1667 6.66732V10.6673L11.3801 7.48065C11.203 7.29216 10.9892 7.14194 10.7519 7.03925C10.5146 6.93656 10.2587 6.88359 10.0001 6.88359C9.74148 6.88359 9.48561 6.93656 9.24827 7.03925C9.01093 7.14194 8.79714 7.29216 8.62008 7.48065L6.70675 9.66732L6.08008 8.90732C5.9074 8.70017 5.69129 8.53351 5.44706 8.41914C5.20282 8.30477 4.93644 8.24549 4.66675 8.24549C4.39706 8.24549 4.13067 8.30477 3.88644 8.41914C3.64221 8.53351 3.4261 8.70017 3.25342 8.90732L1.83342 10.6207V4.00065C1.83517 3.42656 2.06401 2.87648 2.46996 2.47053C2.87591 2.06458 3.42599 1.83574 4.00008 1.83398H9.33342C9.46602 1.83398 9.5932 1.78131 9.68697 1.68754C9.78074 1.59377 9.83342 1.46659 9.83342 1.33398C9.83342 1.20138 9.78074 1.0742 9.68697 0.980431C9.5932 0.886663 9.46602 0.833984 9.33342 0.833984H4.00008C3.16023 0.833984 2.35478 1.16761 1.76091 1.76148C1.16705 2.35534 0.833416 3.1608 0.833416 4.00065V12.0007C0.830268 12.0115 0.830268 12.0231 0.833416 12.034C0.842196 12.868 1.1797 13.665 1.77261 14.2516C2.36553 14.8383 3.16597 15.1674 4.00008 15.1673H12.0001C12.8308 15.1657 13.6275 14.8377 14.2186 14.254C14.8097 13.6704 15.1478 12.8779 15.1601 12.0473V6.66732C15.1584 6.53638 15.1061 6.41117 15.0141 6.31795C14.9221 6.22474 14.7977 6.17075 14.6667 6.16732ZM12.0001 14.1673H4.00008C3.45549 14.1656 2.93153 13.9588 2.5325 13.5882C2.13347 13.2176 1.88864 12.7103 1.84675 12.1673L4.00008 9.54732C4.08074 9.45746 4.17941 9.38559 4.28968 9.3364C4.39995 9.2872 4.51934 9.26177 4.64008 9.26177C4.76083 9.26177 4.88022 9.2872 4.99049 9.3364C5.10076 9.38559 5.19943 9.45746 5.28008 9.54732L6.28675 10.7606C6.33292 10.8168 6.39092 10.862 6.45661 10.8932C6.5223 10.9243 6.59406 10.9405 6.66675 10.9406C6.8107 10.9327 6.94638 10.8708 7.04675 10.7673L9.34008 8.14065C9.42167 8.05472 9.5199 7.98629 9.62878 7.93953C9.73766 7.89276 9.85492 7.86865 9.97342 7.86865C10.0919 7.86865 10.2092 7.89276 10.3181 7.93953C10.4269 7.98629 10.5252 8.05472 10.6067 8.14065L14.1201 12.1406C14.0866 12.6833 13.8497 13.1933 13.4568 13.5689C13.0638 13.9446 12.5436 14.1583 12.0001 14.1673Z" fill="#525866"/>
<path d="M2.8335 4.66732C2.8335 5.02992 2.94102 5.38437 3.14247 5.68586C3.34392 5.98735 3.63025 6.22234 3.96524 6.3611C4.30024 6.49986 4.66886 6.53616 5.02449 6.46542C5.38013 6.39468 5.7068 6.22008 5.96319 5.96368C6.21959 5.70728 6.3942 5.38062 6.46494 5.02498C6.53568 4.66935 6.49937 4.30073 6.36061 3.96573C6.22185 3.63073 5.98686 3.34441 5.68537 3.14296C5.38388 2.94151 5.02943 2.83398 4.66683 2.83398C4.1806 2.83398 3.71428 3.02714 3.37047 3.37096C3.02665 3.71477 2.8335 4.18109 2.8335 4.66732ZM5.50016 4.66732C5.50016 4.83214 5.45129 4.99325 5.35972 5.13029C5.26815 5.26733 5.138 5.37414 4.98573 5.43722C4.83346 5.50029 4.6659 5.51679 4.50425 5.48464C4.3426 5.45248 4.19412 5.37312 4.07757 5.25657C3.96103 5.14003 3.88166 4.99154 3.84951 4.82989C3.81735 4.66824 3.83386 4.50069 3.89693 4.34841C3.96 4.19614 4.06681 4.06599 4.20385 3.97443C4.3409 3.88286 4.50201 3.83398 4.66683 3.83398C4.88784 3.83398 5.0998 3.92178 5.25608 4.07806C5.41237 4.23434 5.50016 4.4463 5.50016 4.66732ZM10.6668 3.83398H12.1668V5.33398C12.1668 5.46659 12.2195 5.59377 12.3133 5.68754C12.407 5.78131 12.5342 5.83398 12.6668 5.83398C12.7994 5.83398 12.9266 5.78131 13.0204 5.68754C13.1142 5.59377 13.1668 5.46659 13.1668 5.33398V3.83398H14.6668C14.7994 3.83398 14.9266 3.78131 15.0204 3.68754C15.1142 3.59377 15.1668 3.46659 15.1668 3.33398C15.1668 3.20138 15.1142 3.0742 15.0204 2.98043C14.9266 2.88666 14.7994 2.83398 14.6668 2.83398H13.1668V1.33398C13.1668 1.20138 13.1142 1.0742 13.0204 0.980431C12.9266 0.886663 12.7994 0.833984 12.6668 0.833984C12.5342 0.833984 12.407 0.886663 12.3133 0.980431C12.2195 1.0742 12.1668 1.20138 12.1668 1.33398V2.83398H10.6668C10.5342 2.83398 10.407 2.88666 10.3133 2.98043C10.2195 3.0742 10.1668 3.20138 10.1668 3.33398C10.1668 3.46659 10.2195 3.59377 10.3133 3.68754C10.407 3.78131 10.5342 3.83398 10.6668 3.83398Z" fill="#525866"/>
</svg>
