<svg width="12" height="16" viewBox="0 0 12 16" fill="none" xmlns="http://www.w3.org/2000/svg">
<path d="M8.55968 11.2132L9.29134 10.0259L10.6117 9.57563L10.758 8.18884L11.7514 7.21088L11.2791 5.89819L11.7514 4.58547L10.758 3.6075L10.6117 2.22075L9.29137 1.77044L8.55971 0.583156L7.1758 0.75025L6.00021 0L4.82462 0.750313L3.44074 0.583219L2.70909 1.77047L1.38871 2.22078L1.24243 3.60753L0.249023 4.5855L0.721336 5.89822L0.249023 7.21094L1.2424 8.18888L1.38868 9.57566L2.70905 10.026L3.44071 11.2132L4.82462 11.0462L6.00021 11.7964L7.1758 11.0462L8.55968 11.2132ZM1.95555 5.89822C1.95555 3.668 3.76999 1.85356 6.00021 1.85356C8.23043 1.85356 10.0449 3.668 10.0449 5.89822C10.0449 8.12844 8.23043 9.94287 6.00021 9.94287C3.76999 9.94287 1.95555 8.12844 1.95555 5.89822Z" fill="#525866"/>
<path d="M6.00014 2.79297C4.28718 2.79297 2.89358 4.18656 2.89358 5.89953C2.89358 7.6125 4.28718 9.00609 6.00014 9.00609C7.71311 9.00609 9.10671 7.6125 9.10671 5.89953C9.10671 4.18656 7.71311 2.79297 6.00014 2.79297ZM4.60324 12.0191L2.95699 12.2178L2.08721 10.8063L1.79152 10.7055L0.516113 14.692L2.81221 14.5657L4.60861 16.0013L5.66574 12.6972L4.60324 12.0191ZM9.91308 10.8064L9.04327 12.2178L7.39705 12.0191L6.33455 12.6972L7.39168 16.0013L9.18808 14.5657L11.4842 14.692L10.2088 10.7055L9.91308 10.8064Z" fill="#525866"/>
</svg>
