<svg width="25" height="25" viewBox="0 0 25 25" fill="none" xmlns="http://www.w3.org/2000/svg">
<path d="M5 13.25C3.3455 13.25 2 11.9045 2 10.25C2 8.5955 3.3455 7.25 5 7.25C6.6545 7.25 8 8.5955 8 10.25C8 11.9045 6.6545 13.25 5 13.25ZM6.3275 13.7525C5.4725 14.0825 4.5275 14.0825 3.6725 13.7525C3.455 13.67 3.2075 13.7 3.0125 13.82C2.47291 14.1568 2.02797 14.6255 1.71962 15.1819C1.41126 15.7382 1.24965 16.3639 1.25 17V20C1.25 20.4125 1.5875 20.75 2 20.75H5.75V17C5.75 15.8375 6.0575 14.705 6.6125 13.715C6.515 13.7 6.4175 13.715 6.3275 13.7525ZM20 13.25C21.6545 13.25 23 11.9045 23 10.25C23 8.5955 21.6545 7.25 20 7.25C18.3455 7.25 17 8.5955 17 10.25C17 11.9045 18.3455 13.25 20 13.25ZM21.9875 13.82C21.7925 13.7 21.545 13.67 21.3275 13.7525C20.4725 14.0825 19.5275 14.0825 18.6725 13.7525C18.5828 13.7138 18.4841 13.7009 18.3875 13.715C18.951 14.7183 19.2479 15.8493 19.25 17V20.75H23C23.4125 20.75 23.75 20.4125 23.75 20V17C23.75 15.7025 23.09 14.5175 21.9875 13.82ZM12.5 11.75C10.4323 11.75 8.75 10.0677 8.75 8C8.75 5.93225 10.4323 4.25 12.5 4.25C14.5678 4.25 16.25 5.93225 16.25 8C16.25 10.0677 14.5678 11.75 12.5 11.75ZM17.75 17C17.7498 16.1752 17.5547 15.3621 17.1807 14.627C16.8066 13.892 16.2641 13.2557 15.5975 12.77C15.3725 12.605 15.0725 12.5825 14.825 12.7025C14.3225 12.9575 13.79 13.115 13.25 13.19V17C13.25 17.4125 12.9125 17.75 12.5 17.75C12.0875 17.75 11.75 17.4125 11.75 17V13.19C11.21 13.115 10.6775 12.9575 10.175 12.7025C9.9275 12.5825 9.6275 12.605 9.4025 12.77C8.73586 13.2557 8.1934 13.892 7.81934 14.627C7.44527 15.3621 7.2502 16.1752 7.25 17V20.75H17.75V17Z" fill="white"/>
</svg>
