<svg width="121" height="126" viewBox="0 0 121 126" fill="none" xmlns="http://www.w3.org/2000/svg">
<rect x="5" y="49.418" width="55.6477" height="53.7613" rx="14" transform="rotate(-62.1415 5 49.418)" fill="#0011B7" fill-opacity="0.1"/>
<g filter="url(#filter0_d_70_776)">
<circle cx="60.6478" cy="53.9808" r="29.2386" fill="white"/>
</g>
<path d="M47.875 45.7812C48.1236 45.7812 48.3621 45.6825 48.5379 45.5067C48.7137 45.3308 48.8125 45.0924 48.8125 44.8438V42.0312H51.625C51.8736 42.0312 52.1121 41.9325 52.2879 41.7567C52.4637 41.5808 52.5625 41.3424 52.5625 41.0938C52.5625 40.8451 52.4637 40.6067 52.2879 40.4308C52.1121 40.255 51.8736 40.1562 51.625 40.1562H47.875C47.6264 40.1562 47.3879 40.255 47.2121 40.4308C47.0363 40.6067 46.9375 40.8451 46.9375 41.0938V44.8438C46.9375 45.0924 47.0363 45.3308 47.2121 45.5067C47.3879 45.6825 47.6264 45.7812 47.875 45.7812ZM70.375 42.0312H73.1875V44.8438C73.1875 45.0924 73.2863 45.3308 73.4621 45.5067C73.6379 45.6825 73.8764 45.7812 74.125 45.7812C74.3736 45.7812 74.6121 45.6825 74.7879 45.5067C74.9637 45.3308 75.0625 45.0924 75.0625 44.8438V41.0938C75.0625 40.8451 74.9637 40.6067 74.7879 40.4308C74.6121 40.255 74.3736 40.1562 74.125 40.1562H70.375C70.1264 40.1562 69.8879 40.255 69.7121 40.4308C69.5363 40.6067 69.4375 40.8451 69.4375 41.0938C69.4375 41.3424 69.5363 41.5808 69.7121 41.7567C69.8879 41.9325 70.1264 42.0312 70.375 42.0312ZM51.625 66.4062H48.8125V63.5938C48.8125 63.3451 48.7137 63.1067 48.5379 62.9308C48.3621 62.755 48.1236 62.6562 47.875 62.6562C47.6264 62.6562 47.3879 62.755 47.2121 62.9308C47.0363 63.1067 46.9375 63.3451 46.9375 63.5938V67.3438C46.9375 67.5924 47.0363 67.8308 47.2121 68.0067C47.3879 68.1825 47.6264 68.2812 47.875 68.2812H51.625C51.8736 68.2812 52.1121 68.1825 52.2879 68.0067C52.4637 67.8308 52.5625 67.5924 52.5625 67.3438C52.5625 67.0951 52.4637 66.8567 52.2879 66.6808C52.1121 66.505 51.8736 66.4062 51.625 66.4062ZM74.125 62.6562C73.8764 62.6562 73.6379 62.755 73.4621 62.9308C73.2863 63.1067 73.1875 63.3451 73.1875 63.5938V66.4062H70.375C70.1264 66.4062 69.8879 66.505 69.7121 66.6808C69.5363 66.8567 69.4375 67.0951 69.4375 67.3438C69.4375 67.5924 69.5363 67.8308 69.7121 68.0067C69.8879 68.1825 70.1264 68.2812 70.375 68.2812H74.125C74.3736 68.2812 74.6121 68.1825 74.7879 68.0067C74.9637 67.8308 75.0625 67.5924 75.0625 67.3438V63.5938C75.0625 63.3451 74.9637 63.1067 74.7879 62.9308C74.6121 62.755 74.3736 62.6562 74.125 62.6562Z" fill="#1E64D3"/>
<path d="M74.9594 54.65C75.0284 54.5167 75.0644 54.3688 75.0644 54.2188C75.0644 54.0687 75.0284 53.9208 74.9594 53.7875C73.677 51.1596 71.6963 48.9351 69.2342 47.3577C66.772 45.7802 63.9234 44.9105 61 44.8438C58.0766 44.9105 55.228 45.7802 52.7658 47.3577C50.3037 48.9351 48.323 51.1596 47.0406 53.7875C46.9716 53.9208 46.9355 54.0687 46.9355 54.2188C46.9355 54.3688 46.9716 54.5167 47.0406 54.65C48.323 57.2779 50.3037 59.5024 52.7658 61.0798C55.228 62.6573 58.0766 63.527 61 63.5938C63.9234 63.527 66.772 62.6573 69.2342 61.0798C71.6963 59.5024 73.677 57.2779 74.9594 54.65ZM61 59.8438C59.8875 59.8438 58.7999 59.5138 57.8749 58.8958C56.9499 58.2777 56.2289 57.3992 55.8032 56.3713C55.3774 55.3435 55.266 54.2125 55.4831 53.1214C55.7001 52.0302 56.2359 51.0279 57.0225 50.2413C57.8092 49.4546 58.8115 48.9189 59.9026 48.7018C60.9938 48.4848 62.1248 48.5962 63.1526 49.0219C64.1804 49.4477 65.0589 50.1686 65.677 51.0937C66.2951 52.0187 66.625 53.1062 66.625 54.2188C66.625 55.7106 66.0324 57.1413 64.9775 58.1962C63.9226 59.2511 62.4918 59.8438 61 59.8438Z" fill="#1E64D3"/>
<defs>
<filter id="filter0_d_70_776" x="0.40918" y="4.74219" width="120.477" height="120.477" filterUnits="userSpaceOnUse" color-interpolation-filters="sRGB">
<feFlood flood-opacity="0" result="BackgroundImageFix"/>
<feColorMatrix in="SourceAlpha" type="matrix" values="0 0 0 0 0 0 0 0 0 0 0 0 0 0 0 0 0 0 127 0" result="hardAlpha"/>
<feMorphology radius="9" operator="erode" in="SourceAlpha" result="effect1_dropShadow_70_776"/>
<feOffset dy="11"/>
<feGaussianBlur stdDeviation="20"/>
<feComposite in2="hardAlpha" operator="out"/>
<feColorMatrix type="matrix" values="0 0 0 0 0.625 0 0 0 0 0.605781 0 0 0 0 0.601562 0 0 0 0.25 0"/>
<feBlend mode="normal" in2="BackgroundImageFix" result="effect1_dropShadow_70_776"/>
<feBlend mode="normal" in="SourceGraphic" in2="effect1_dropShadow_70_776" result="shape"/>
</filter>
</defs>
</svg>
