<svg width="16" height="16" viewBox="0 0 16 16" fill="none" xmlns="http://www.w3.org/2000/svg">
<path fill-rule="evenodd" clip-rule="evenodd" d="M8.48744 3.76779C8.34826 3.62861 8.15602 3.54221 7.94442 3.54221H6.10168C5.67843 3.54221 5.33308 3.88753 5.33308 4.31081V4.79519C5.33308 4.81377 5.3482 4.82889 5.36678 4.82889H5.84857C5.8575 4.82887 5.86606 4.82531 5.87237 4.819C5.87869 4.81268 5.88224 4.80412 5.88226 4.79519V4.31081C5.88226 4.19072 5.98155 4.09143 6.10165 4.09143H7.94438C8.06448 4.09143 8.16376 4.19068 8.16376 4.31081V4.79519C8.16376 4.81377 8.17888 4.82889 8.19746 4.82889H8.67925C8.68818 4.82887 8.69674 4.82531 8.70305 4.819C8.70937 4.81268 8.71292 4.80412 8.71294 4.79519V4.31081C8.71298 4.09921 8.62662 3.90697 8.48744 3.76779ZM13.3064 12.2505C13.3569 12.1999 13.4413 12.1999 13.4919 12.2505L15.5743 14.3329C15.6248 14.3834 15.6248 14.4679 15.5743 14.5184L14.5184 15.5743C14.4678 15.6249 14.3834 15.6249 14.3329 15.5743L12.2505 13.4919C12.1999 13.4413 12.1999 13.357 12.2505 13.3064L12.4666 13.0903C12.4729 13.084 12.4765 13.0754 12.4765 13.0664C12.4765 13.0575 12.4729 13.0489 12.4666 13.0426L11.4413 12.0173C11.4352 12.0112 11.4271 12.0077 11.4185 12.0075C11.41 12.0072 11.4017 12.0102 11.3953 12.0159C8.78113 14.3096 4.81087 14.1962 2.33043 11.7157C-0.261173 9.12412 -0.261209 4.92209 2.33047 2.33042C4.92207 -0.261187 9.1241 -0.261187 11.7157 2.33045C14.1961 4.81085 14.3096 8.78111 12.0159 11.3953C12.0102 11.4017 12.0072 11.41 12.0075 11.4185C12.0077 11.4271 12.0112 11.4352 12.0173 11.4413L13.0426 12.4666C13.049 12.4729 13.0575 12.4765 13.0665 12.4765C13.0754 12.4765 13.084 12.4729 13.0903 12.4666L13.3064 12.2505ZM10.9752 3.07087C13.158 5.25365 13.158 8.79249 10.9753 10.9752C8.79243 13.1581 5.25359 13.158 3.07084 10.9753C0.888055 8.79249 0.888055 5.25365 3.07081 3.07087C5.25359 0.888113 8.79247 0.888077 10.9752 3.07087ZM10.1729 6.81447L7.71081 8.1334C7.26812 8.37057 6.77794 8.37057 6.33525 8.1334L3.87321 6.81447C3.86248 6.80871 3.85042 6.809 3.83998 6.81526C3.82954 6.82153 3.8236 6.832 3.8236 6.84417V9.37508C3.8236 9.56332 3.97858 9.7183 4.16683 9.7183H9.87927C10.0675 9.7183 10.2225 9.56332 10.2225 9.37508V6.84417C10.2226 6.83833 10.2211 6.83258 10.2182 6.8275C10.2153 6.82242 10.2112 6.81819 10.2061 6.81526C10.2011 6.81219 10.1954 6.8105 10.1896 6.81036C10.1837 6.81022 10.178 6.81164 10.1729 6.81447ZM9.87927 5.37811H4.16683C3.97862 5.37811 3.8236 5.53309 3.8236 5.72133V6.14707C3.8236 6.15981 3.83015 6.17075 3.84139 6.17677L6.59269 7.65068C6.86982 7.79914 7.17621 7.79914 7.45338 7.65068L10.2047 6.17677C10.2101 6.17395 10.2146 6.16968 10.2178 6.16444C10.2209 6.15919 10.2225 6.15318 10.2225 6.14707V5.72133C10.2225 5.53312 10.0675 5.37811 9.87927 5.37811Z" fill="#1E64D3"/>
</svg>
