<svg width="18" height="18" viewBox="0 0 18 18" fill="none" xmlns="http://www.w3.org/2000/svg">
<path d="M7.875 15.1875C3.843 15.1875 0.5625 11.907 0.5625 7.875C0.5625 3.843 3.843 0.5625 7.875 0.5625C11.907 0.5625 15.1875 3.843 15.1875 7.875C15.1875 11.907 11.907 15.1875 7.875 15.1875ZM7.875 1.6875C4.46287 1.6875 1.6875 4.46344 1.6875 7.875C1.6875 11.2866 4.46344 14.0625 7.875 14.0625C11.2866 14.0625 14.0625 11.2866 14.0625 7.875C14.0625 4.46344 11.2866 1.6875 7.875 1.6875Z" fill="#1E64D3"/>
<path d="M15.7496 17.5079C15.5279 17.5085 15.3084 17.4652 15.1036 17.3804C14.8988 17.2957 14.7129 17.1711 14.5565 17.0141L11.375 13.832L12.1704 13.0366L15.3519 16.2187C15.4591 16.3208 15.6015 16.3778 15.7496 16.3778C15.8976 16.3778 16.04 16.3208 16.1473 16.2187C16.3666 15.9993 16.3666 15.6427 16.1473 15.4227L12.9658 12.2407L13.7611 11.4453L16.9426 14.6274C17.2587 14.9441 17.4363 15.3733 17.4363 15.8207C17.4363 16.2682 17.2587 16.6974 16.9426 17.0141C16.7863 17.1712 16.6003 17.2957 16.3956 17.3805C16.1908 17.4653 15.9712 17.5086 15.7496 17.5079Z" fill="#1E64D3"/>
</svg>
