<svg width="13" height="13" viewBox="0 0 13 13" fill="none" xmlns="http://www.w3.org/2000/svg">
<g clip-path="url(#clip0_465_25910)">
<path fill-rule="evenodd" clip-rule="evenodd" d="M1.79787 9.48492C1.41725 8.72742 1.20312 7.87167 1.20312 6.9668C1.20312 6.06192 1.41725 5.20617 1.79787 4.44867C2.72225 2.60667 4.62875 1.3418 6.82812 1.3418C9.0275 1.3418 10.934 2.60667 11.8584 4.44867C12.239 5.20617 12.4531 6.06192 12.4531 6.9668C12.4531 7.87167 12.239 8.72742 11.8584 9.48492C10.934 11.3269 9.0275 12.5918 6.82812 12.5918C4.62875 12.5918 2.72225 11.3269 1.79787 9.48492ZM2.32288 5.10192C2.08475 5.67642 1.95312 6.30642 1.95312 6.9668C1.95312 7.62717 2.08475 8.25717 2.32288 8.83167C2.93525 8.5943 3.65712 8.4038 4.454 8.27555C4.41275 7.8563 4.39062 7.41792 4.39062 6.9668C4.39062 6.51567 4.41275 6.0773 4.454 5.65805C3.65712 5.5298 2.93525 5.3393 2.32288 5.10192ZM10.991 4.4303C10.3634 3.40234 9.37844 2.64216 8.225 2.29542C8.27713 2.37642 8.32775 2.4623 8.3765 2.55305C8.69637 3.15042 8.95212 3.96642 9.10588 4.9148C9.80637 4.80117 10.4443 4.6358 10.991 4.4303ZM5.43125 2.29542C4.27781 2.64216 3.2929 3.40234 2.66525 4.4303C3.212 4.63617 3.84987 4.80117 4.55037 4.9148C4.70412 3.96642 4.95988 3.15042 5.27975 2.55305C5.3285 2.4623 5.37912 2.37642 5.43125 2.29542ZM11.3334 8.83167C11.5715 8.25717 11.7031 7.62717 11.7031 6.9668C11.7031 6.30642 11.5715 5.67642 11.3334 5.10192C10.721 5.3393 9.99912 5.5298 9.20225 5.65805C9.2435 6.0773 9.26562 6.51567 9.26562 6.9668C9.26562 7.41792 9.2435 7.8563 9.20225 8.27555C9.99912 8.4038 10.721 8.5943 11.3334 8.83167ZM2.66525 9.5033C3.2929 10.5313 4.27781 11.2914 5.43125 11.6382C5.37738 11.5543 5.32685 11.4684 5.27975 11.3805C4.95988 10.7832 4.70412 9.96717 4.55037 9.0188C3.84987 9.13242 3.212 9.2978 2.66525 9.5033ZM8.225 11.6382C9.37844 11.2914 10.3634 10.5313 10.991 9.5033C10.4443 9.2978 9.80637 9.13242 9.10588 9.0188C8.95212 9.96717 8.69637 10.7832 8.3765 11.3805C8.32775 11.4713 8.27713 11.5572 8.225 11.6382ZM6.82812 2.0918C6.68375 2.0918 6.54875 2.16042 6.419 2.27067C6.245 2.41842 6.086 2.6363 5.94088 2.90742C5.65438 3.44217 5.42938 4.1693 5.29213 5.01342C5.78338 5.0648 6.29787 5.0918 6.82812 5.0918C7.35838 5.0918 7.87288 5.06442 8.36413 5.01342C8.22688 4.1693 8.00187 3.44217 7.71537 2.90742C7.57025 2.6363 7.41125 2.41842 7.23725 2.27067C7.1075 2.16042 6.9725 2.0918 6.82812 2.0918ZM6.82812 11.8418C6.9725 11.8418 7.1075 11.7732 7.23725 11.6629C7.41125 11.5152 7.57025 11.2973 7.71537 11.0262C8.00187 10.4914 8.22688 9.7643 8.36413 8.92017C7.87288 8.86917 7.35838 8.8418 6.82812 8.8418C6.29787 8.8418 5.78338 8.86917 5.29213 8.92017C5.42938 9.7643 5.65438 10.4914 5.94088 11.0262C6.086 11.2973 6.245 11.5152 6.419 11.6629C6.54875 11.7732 6.68375 11.8418 6.82812 11.8418ZM8.45938 8.17692C8.49613 7.78917 8.51562 7.3838 8.51562 6.9668C8.51562 6.5498 8.49613 6.14442 8.45938 5.75667C7.93775 5.81217 7.391 5.8418 6.82812 5.8418C6.26525 5.8418 5.7185 5.81217 5.19687 5.75667C5.16012 6.14442 5.14062 6.5498 5.14062 6.9668C5.14062 7.3838 5.16012 7.78917 5.19687 8.17692C5.7185 8.12142 6.26525 8.0918 6.82812 8.0918C7.391 8.0918 7.93775 8.12142 8.45938 8.17692Z" fill="#525866"/>
</g>
<defs>
<clipPath id="clip0_465_25910">
<rect width="12" height="12" fill="white" transform="translate(0.828125 0.966797)"/>
</clipPath>
</defs>
</svg>
