<svg width="849" height="200" viewBox="0 0 849 200" fill="none" xmlns="http://www.w3.org/2000/svg">
<g style="mix-blend-mode:soft-light">
<path d="M916.841 -274.178C902.415 -228.581 883.526 -183.33 854.207 -140.612C844.702 -126.761 834.025 -113.107 819.558 -101.049C790.058 -76.4614 746.797 -60.0132 710.648 -39.1752C664.736 -12.7114 630.333 21.3813 611.275 58.5241C596.936 86.4725 585.788 121.086 557.815 145.229C532.403 167.162 472.057 169.769 434.314 179.503C395.657 189.475 362.392 206.967 338.863 228.494C326.537 239.772 316.825 252.189 310.404 265.249C304.265 277.738 305.823 293.01 280.068 296.069C271.554 297.08 262.803 295.956 254.136 295.967C224.018 296.004 196.018 311.753 192.808 330.463M915.83 -272.405C902.795 -227.169 884.66 -182.029 855.538 -139.522C845.853 -125.361 834.657 -111.604 820.187 -99.1757C802.699 -84.1965 780.341 -72.0415 757.385 -60.183C741.714 -52.0873 725.763 -44.1306 710.886 -35.5099C681.498 -18.4783 656.323 1.35826 636.361 22.8379C624.69 35.3979 614.807 48.5199 606.926 62.0034C601.366 71.4601 596.157 81.658 590.524 91.9322C582.579 106.368 573.782 120.954 562.083 134.019C557.889 138.713 553.324 143.211 548.286 147.416C527.448 164.793 485.963 170.859 451.191 177.934C441.856 179.821 433.002 181.78 425.152 184.052C392.811 193.342 364.64 207.987 343.11 225.808C339.402 228.876 335.889 232.039 332.583 235.289C320.791 246.875 311.545 259.572 305.256 272.867C301.534 280.741 300.588 289.639 294.33 296.11C290.477 300.094 284.61 303.128 274.89 304.473C266.398 305.647 257.649 304.777 248.963 304.981C218.792 305.673 190.473 321.488 186.613 340.382M914.816 -270.634C903.175 -225.758 885.791 -180.728 856.865 -138.433C847 -123.959 835.287 -110.1 820.81 -97.3038C803.367 -81.9606 781.048 -69.388 758.006 -57.1661C742.274 -48.8195 726.202 -40.6357 711.115 -31.8447C681.308 -14.483 655.351 5.45262 634.27 26.7888C621.944 39.2628 611.302 52.2183 602.569 65.4826C596.376 74.7932 590.51 84.7978 584.227 94.8617C575.344 109.007 565.611 123.275 553.186 136.246C548.746 140.902 543.967 145.385 538.747 149.607C517.101 167.072 475.861 173.925 441.584 181.845C432.39 183.946 423.701 186.136 415.986 188.605C384.331 198.738 356.993 213.989 336.365 232.342C332.812 235.498 329.458 238.751 326.299 242.086C315.039 253.981 306.258 266.959 300.107 280.488C296.463 288.506 295.422 297.504 289.112 304.137C285.222 308.224 279.333 311.358 269.711 312.881C261.235 314.222 252.495 313.602 243.787 313.998C213.565 315.345 184.923 331.229 180.415 350.303M913.805 -268.864C903.554 -224.348 886.925 -179.427 858.197 -137.346C848.149 -122.56 835.92 -108.599 821.44 -95.433C804.044 -79.7245 781.761 -66.7356 758.635 -54.1503C742.842 -45.5515 726.652 -37.1421 711.349 -28.1821C681.127 -10.4903 654.383 9.54439 632.184 30.7345C619.203 43.1251 607.857 55.9289 598.215 68.958C591.427 78.1332 584.862 87.9338 577.935 97.7861C568.111 111.642 557.446 125.59 544.294 138.465C539.609 143.082 534.612 147.554 529.217 151.79C506.761 169.345 465.804 177.038 431.982 185.748C422.937 188.077 414.398 190.476 406.823 193.15C375.83 204.089 349.347 219.984 329.626 238.866C326.23 242.114 323.029 245.454 320.022 248.875C309.296 261.078 300.98 274.335 294.965 288.1C291.402 296.26 290.268 305.357 283.902 312.153C279.977 316.346 274.068 319.579 264.536 321.278C256.078 322.787 247.344 322.416 238.614 323.004C208.339 325.006 179.375 340.955 174.22 360.214M912.794 -267.091C903.934 -222.936 888.059 -178.125 859.531 -136.255C849.302 -121.156 836.598 -107.078 822.069 -93.5596C804.769 -77.4658 782.476 -64.0818 759.265 -51.1306C743.412 -42.2822 727.104 -33.6443 711.589 -24.5154C680.95 -6.49222 653.423 13.6416 630.103 34.6868C616.469 46.9914 604.375 59.6368 593.869 72.4387C586.456 81.4731 579.224 91.0738 571.65 100.718C560.888 114.284 549.288 127.914 535.408 140.693C530.476 145.273 525.264 149.731 519.69 153.981C496.426 171.624 455.729 180.119 422.383 189.66C413.482 192.206 405.101 194.822 397.666 197.701C367.34 209.445 341.708 225.984 322.889 245.397C319.647 248.734 316.602 252.163 313.746 255.67C303.554 268.181 295.702 281.719 289.822 295.718C286.338 304.021 285.108 313.216 278.69 320.177C274.731 324.473 268.799 327.809 259.362 329.683C250.922 331.36 242.196 331.238 233.445 332.018C203.117 334.676 173.831 350.692 168.029 370.131M911.783 -265.321C904.316 -221.526 889.195 -176.825 860.86 -135.167C850.449 -119.757 837.239 -105.572 822.694 -91.689C805.45 -75.2272 783.184 -61.4295 759.889 -48.115C743.976 -39.0144 727.55 -30.1508 711.819 -20.853C680.764 -2.49968 652.452 17.732 628.014 38.6337C613.725 50.8549 600.882 63.3378 589.514 75.9139C581.477 84.8049 573.615 94.2216 565.355 103.644C553.705 116.938 541.073 130.207 526.513 142.914C521.319 147.447 515.909 151.899 510.153 156.165C486.08 173.898 445.643 183.19 412.776 193.566C404.02 196.329 395.794 199.164 388.498 202.248C358.836 214.791 334.06 231.98 316.144 251.925C313.06 255.352 310.168 258.868 307.46 262.464C297.804 275.283 290.415 289.103 284.67 303.335C281.266 311.782 279.941 321.077 273.47 328.2C269.475 332.601 263.521 336.038 254.181 338.086C245.756 339.933 237.04 340.059 228.268 341.032C197.888 344.343 168.281 360.428 161.829 380.05M910.772 -263.548C904.697 -220.115 890.329 -175.523 862.192 -134.078C851.603 -118.355 837.88 -104.066 823.324 -89.8157C806.135 -72.9859 783.895 -58.7758 760.517 -45.0967C744.542 -35.7451 727.997 -26.6533 712.057 -17.1877C680.585 1.49698 651.491 21.8277 625.93 42.5834C610.987 54.7186 597.391 67.043 585.164 79.3919C576.501 88.1408 567.977 97.3615 559.067 106.571C546.482 119.58 532.904 132.522 517.623 145.137C512.182 149.63 506.559 154.073 500.623 158.351C475.742 176.173 435.566 186.261 403.173 197.472C394.563 200.451 386.493 203.502 379.336 206.796C350.339 220.137 326.417 237.977 309.404 258.453C306.473 261.97 303.737 265.575 301.179 269.255C292.057 282.382 285.133 296.482 279.523 310.951C276.198 319.54 274.779 328.934 268.254 336.22C264.226 340.724 258.246 344.269 249.001 346.489C240.593 348.507 231.884 348.878 223.092 350.042C192.66 354.009 162.729 370.159 155.634 389.963M909.758 -261.776C905.073 -218.703 891.46 -174.223 863.519 -132.988C852.748 -116.954 838.514 -102.562 823.947 -87.9437C806.811 -70.7472 784.601 -56.1222 761.138 -42.0798C745.104 -32.476 728.44 -23.1583 712.284 -13.5238C680.397 5.49096 650.516 25.9208 623.839 46.5316C608.243 58.5821 593.894 70.7467 580.805 82.8697C571.513 91.4778 562.329 100.503 552.77 109.5C539.249 122.223 524.728 134.838 508.726 147.361C503.038 151.814 497.2 156.247 491.083 160.539C465.393 178.451 425.481 189.332 393.563 201.379C385.097 204.574 377.183 207.843 370.166 211.344C341.833 225.479 318.764 243.975 302.656 264.983C299.879 268.59 297.302 272.284 294.893 276.049C286.305 289.484 279.844 303.865 274.369 318.567C271.124 327.3 269.609 336.794 263.031 344.242C258.967 348.849 252.966 352.503 243.815 354.891C235.422 357.081 226.724 357.697 217.91 359.053C187.425 363.673 157.175 379.892 149.427 399.878M908.747 -260.006C905.455 -217.293 892.596 -172.922 864.852 -131.9C853.901 -115.553 839.155 -101.059 824.578 -86.0717C807.494 -68.5098 785.316 -53.4685 761.77 -39.0615C745.676 -29.2081 728.894 -19.6621 712.523 -9.85736C680.22 9.48885 649.554 30.0164 621.758 50.4838C605.506 62.4496 590.401 74.4531 576.458 86.3503C566.536 94.8162 556.695 103.645 546.486 112.43C532.03 124.867 516.567 137.156 499.84 149.587C493.903 154 487.854 158.42 481.557 162.727C455.058 180.727 415.408 192.401 383.965 205.287C375.642 208.698 367.886 212.184 361.009 215.892C333.334 230.819 311.126 249.973 295.924 271.511C293.304 275.208 290.881 278.989 288.619 282.843C280.565 296.586 274.567 311.248 269.229 326.185C266.064 335.06 264.454 344.652 257.824 352.265C253.724 356.977 247.7 360.74 238.646 363.295C230.269 365.659 221.578 366.518 212.745 368.067C182.206 373.342 151.636 389.629 143.242 409.796M907.736 -258.233C905.835 -215.882 893.73 -171.621 866.182 -130.809C855.048 -114.151 839.792 -99.5531 825.201 -84.197C808.168 -66.2698 786.022 -50.8122 762.392 -36.0418C746.238 -25.9363 729.333 -16.1645 712.753 -6.19209C680.034 13.4842 648.584 34.1122 619.667 54.4321C602.763 66.3132 586.902 78.1556 572.104 89.8283C561.551 98.1521 551.051 106.786 540.191 115.358C524.799 127.509 508.396 139.472 490.943 151.812C484.76 156.184 478.495 160.594 472.018 164.916C444.71 183.006 405.318 195.469 374.355 209.197C366.179 212.822 358.574 216.526 351.839 220.443C324.826 236.157 303.475 255.973 289.174 278.042C286.709 281.829 284.441 285.699 282.331 289.638C274.811 303.688 269.281 318.632 264.076 333.804C260.992 342.821 259.284 352.515 252.601 360.289C248.467 365.106 242.421 368.979 233.461 371.701C225.098 374.242 216.418 375.342 207.561 377.082C176.972 383.011 146.075 399.366 137.034 419.715M906.725 -256.463C906.216 -214.473 894.865 -170.32 867.513 -129.722C856.199 -112.751 840.43 -98.0513 825.831 -82.3262C808.847 -64.0323 786.737 -48.161 763.018 -33.0247C746.801 -22.6682 729.781 -12.6695 712.987 -2.52681C679.851 17.4809 647.615 38.2067 617.581 58.3831C600.02 70.1795 583.401 81.8594 567.751 93.3077C556.566 101.488 545.409 109.929 533.9 118.289C517.568 130.154 500.23 141.791 482.055 154.039C475.626 158.371 469.145 162.77 462.489 167.105C434.373 185.284 395.241 198.535 364.755 213.107C356.721 216.947 349.274 220.867 342.677 224.994C316.321 241.493 295.833 261.973 282.436 284.574C280.126 288.452 278.012 292.409 276.054 296.434C269.068 310.793 264 326.018 258.932 341.422C255.929 350.582 254.127 360.375 247.39 368.312C243.22 373.233 237.154 377.218 228.287 380.106C219.941 382.822 211.274 384.174 202.392 386.096C171.772 392.721 140.534 409.101 130.843 429.634M905.711 -254.692C906.594 -213.061 895.995 -169.019 868.843 -128.634C857.346 -111.351 841.063 -96.5484 826.456 -80.4556C809.522 -61.7977 787.446 -45.5087 763.642 -30.0091C747.365 -19.4004 730.226 -9.17595 713.216 1.13563C679.665 21.4735 646.643 42.2984 615.492 62.33C597.279 74.0417 579.896 85.5604 563.397 96.7829C551.579 104.82 539.762 113.066 527.608 121.213C510.337 132.79 492.063 144.104 473.161 156.259C466.484 160.553 459.79 164.938 452.952 169.29C424.027 187.558 385.151 201.596 355.146 217.012C347.256 221.065 339.962 225.201 333.509 229.541C307.806 246.822 288.182 267.97 275.688 291.101C273.535 295.067 271.578 299.114 269.768 303.225C263.316 317.892 258.711 333.398 253.781 349.037C250.857 358.34 248.957 368.232 242.169 376.333C237.967 381.357 231.878 385.456 223.104 388.506C214.774 391.402 206.116 392.992 197.211 395.105C166.539 402.383 134.977 418.833 124.641 439.547M904.7 -252.919C906.974 -211.649 897.131 -167.716 870.174 -127.542C858.499 -109.947 841.7 -95.0427 827.085 -78.5796C810.201 -59.5576 788.156 -42.8524 764.27 -26.9881C747.933 -16.1298 730.676 -5.67696 713.454 4.80358C679.486 25.4728 645.681 46.3968 613.409 66.2837C594.54 77.9107 576.399 89.2668 559.046 100.266C546.596 108.16 534.12 116.211 521.317 124.147C503.106 135.437 483.898 146.427 464.27 158.488C457.347 162.741 450.438 167.116 443.423 171.482C413.69 189.839 375.07 204.662 345.549 220.925C337.803 225.19 330.663 229.543 324.354 234.094C299.302 252.155 280.546 273.971 268.956 297.635C266.958 301.692 265.155 305.826 263.495 310.024C257.578 325 253.437 340.785 248.641 356.66C245.797 366.107 243.804 376.097 236.962 384.361C232.722 389.489 226.613 393.704 217.933 396.916C209.623 399.992 200.971 401.82 192.044 404.125C161.323 412.059 129.436 428.573 118.45 449.471M903.689 -251.149C907.354 -210.24 898.137 -166.45 871.506 -126.456C859.592 -108.563 842.332 -93.5422 827.712 -76.7101C810.873 -57.3241 788.867 -40.2013 764.898 -23.9724C748.501 -12.8619 731.123 -2.182 713.688 8.46618C679.304 29.4655 644.715 50.4873 611.323 70.2293C591.801 81.7716 572.893 92.9626 554.693 103.74C541.608 111.489 528.474 119.346 515.029 127.071C495.877 138.075 475.737 148.739 455.38 160.708C448.212 164.922 441.085 169.285 433.89 173.666C403.348 192.113 364.983 207.719 335.944 224.829C328.341 229.308 321.356 233.877 315.188 238.639C290.785 257.48 272.899 279.966 262.213 304.159C260.369 308.306 258.722 312.529 257.213 316.813C251.83 332.096 248.152 348.162 243.492 364.271C240.727 373.861 238.638 383.952 231.743 392.378C227.469 397.609 221.341 401.94 212.753 405.314C204.462 408.57 195.817 410.635 186.87 413.131C156.101 421.721 123.888 438.302 112.257 459.381M902.676 -249.377C907.735 -208.829 899.269 -165.15 872.833 -125.366C860.737 -107.162 842.962 -92.0404 828.336 -74.8381C811.541 -55.0881 789.574 -37.5476 765.52 -20.9554C749.061 -9.594 731.567 1.31299 713.917 12.1314C679.114 33.4609 643.745 54.5831 609.232 74.1803C589.054 85.6379 569.382 96.6651 550.337 107.219C536.613 114.823 522.825 122.487 508.732 130.001C488.637 140.717 467.568 151.059 446.481 162.934C439.067 167.11 431.729 171.46 424.351 175.855C393.001 194.389 354.889 210.779 326.333 228.738C318.872 233.43 312.042 238.215 306.016 243.189C282.256 262.808 265.246 285.964 255.464 310.69C253.775 314.926 252.285 319.237 250.925 323.608C246.077 339.199 242.864 355.548 238.338 371.89C235.651 381.622 233.469 391.811 226.521 400.402C222.212 405.738 216.065 410.187 207.569 413.719C199.297 417.159 190.659 419.455 181.689 422.145C150.868 431.388 118.334 448.038 106.051 469.299M901.666 -247.606C908.115 -207.418 900.407 -163.848 874.166 -124.278C861.888 -105.762 843.597 -90.5389 828.967 -72.9662C812.218 -52.8522 790.288 -34.894 766.15 -17.9385C749.631 -6.32487 732.019 4.80779 714.155 15.7939C678.937 37.4534 642.78 58.6747 607.149 78.1284C586.319 89.5014 565.881 100.363 545.988 110.696C531.63 118.155 517.183 125.624 502.443 132.928C481.406 143.354 459.407 153.376 437.593 165.156C429.934 169.292 422.378 173.631 414.823 178.039C382.663 196.663 344.802 213.833 316.732 232.643C309.412 237.546 302.737 242.548 296.857 247.736C273.739 268.13 257.604 291.962 248.727 317.218C247.194 321.545 245.859 325.945 244.649 330.4C240.335 346.299 237.587 362.928 233.196 379.507C230.589 389.381 228.314 399.67 221.311 408.424C216.967 413.865 210.804 418.432 202.396 422.123C194.144 425.745 185.511 428.277 176.519 431.159C145.648 441.056 112.788 457.773 99.8615 479.217M900.653 -245.834C908.494 -206.008 901.666 -162.515 875.494 -123.189C863.094 -104.344 844.225 -89.0357 829.59 -71.0941C812.886 -50.616 790.997 -32.2415 766.772 -14.9214C750.193 -3.05816 732.46 8.30157 714.385 19.4592C678.749 41.4502 641.808 62.7692 605.058 82.0768C583.571 93.365 562.369 104.061 541.63 114.174C526.632 121.486 511.531 128.763 496.149 135.856C474.169 145.994 451.24 155.695 428.696 167.381C420.793 171.478 413.019 175.805 405.284 180.227C372.316 198.94 334.704 216.891 307.123 236.553C299.947 241.669 293.421 246.887 287.689 252.285C265.21 273.456 249.955 297.96 241.98 323.748C240.603 328.163 239.422 332.653 238.362 337.195C234.581 353.402 232.297 370.312 228.041 387.125C225.513 397.142 223.142 407.531 216.089 416.446C211.71 421.988 205.531 426.677 197.21 430.525C188.981 434.33 180.341 437.084 171.338 440.17C140.38 450.683 107.234 467.506 93.6557 489.132M899.64 -244.063C908.874 -204.596 902.8 -161.213 876.825 -122.099C864.245 -102.944 844.86 -87.5338 830.22 -69.2206C813.559 -48.3798 791.708 -29.5877 767.402 -11.9016C750.763 0.213847 732.91 11.8006 714.621 23.1259C678.57 45.4469 640.844 66.8665 602.974 86.0292C580.835 97.2328 558.864 107.762 537.279 117.655C521.645 124.82 505.886 131.901 489.858 138.787C466.936 148.635 443.077 158.016 419.806 169.606C411.659 173.664 403.669 177.978 395.753 182.416C361.976 201.219 324.608 219.948 297.522 240.46C290.486 245.789 284.114 251.222 278.528 256.834C256.682 278.78 242.313 303.958 235.241 330.277C234.02 334.784 232.995 339.359 232.082 343.988C228.836 360.503 227.016 377.692 222.895 394.741C220.448 404.902 217.98 415.388 210.875 424.468C206.461 430.115 200.268 434.924 192.035 438.928C183.83 442.917 175.189 445.903 166.165 449.182C135.156 460.349 101.686 477.24 87.4604 499.048M898.631 -242.291C909.256 -203.186 903.936 -159.912 878.159 -121.011C865.398 -101.542 845.492 -86.0333 830.849 -67.3498C814.232 -46.1463 792.421 -26.9353 768.031 -8.88594C751.329 3.48044 733.36 15.2943 714.858 26.7885C678.391 49.441 639.88 70.9583 600.893 89.9762C578.098 101.095 555.363 111.455 532.933 121.13C516.66 128.148 500.246 135.037 483.574 141.712C459.705 151.269 434.923 160.333 410.922 171.828C402.528 175.848 394.323 180.149 386.227 184.601C351.64 203.494 314.517 223.002 287.923 244.366C281.027 249.906 274.807 255.556 269.368 261.381C248.153 284.1 234.673 309.954 228.505 336.803C227.437 341.399 226.568 346.064 225.807 350.778C223.094 367.6 221.74 385.073 217.754 402.353C215.386 412.656 212.823 423.243 205.666 432.484C201.216 438.236 195.013 443.165 186.862 447.327C178.684 451.502 170.041 454.72 160.996 458.191C129.932 470.012 96.1429 486.969 81.2714 508.961M897.618 -240.52C909.635 -201.776 905.067 -158.612 879.486 -119.922C866.543 -100.141 846.116 -84.5305 831.472 -65.4753C814.898 -43.9091 793.127 -24.2791 768.652 -5.8664C751.891 6.7522 733.803 18.7917 715.086 30.4549C678.203 53.4375 638.908 75.0552 598.798 93.927C575.35 104.961 551.845 115.154 528.572 124.609C511.662 131.479 494.59 138.176 477.275 144.642C452.463 153.909 426.754 162.655 402.023 174.054C393.385 178.035 384.962 182.324 376.688 186.789C341.293 205.771 304.412 226.059 278.314 248.276C271.557 254.028 265.491 259.893 260.198 265.932C239.611 289.425 227.02 315.955 221.757 343.335C220.848 348.021 220.132 352.775 219.521 357.574C217.344 374.706 216.451 392.458 212.602 409.973C210.314 420.42 207.658 431.105 200.447 440.511C195.963 446.367 189.748 451.418 181.682 455.735C173.529 460.097 164.885 463.544 155.82 467.208C124.705 479.683 90.5927 496.71 75.0715 518.883M896.606 -238.75C910.015 -200.365 906.201 -157.311 880.818 -118.835C867.694 -98.7416 846.747 -83.0314 832.1 -63.606C815.566 -41.6758 793.837 -21.6282 769.278 -2.85216C752.454 10.0174 734.25 22.284 715.321 34.1161C678.021 57.4301 637.941 79.1456 596.716 97.8726C572.611 108.822 548.342 118.845 524.224 128.083C506.675 134.805 488.947 141.308 470.986 147.567C445.23 156.542 418.595 164.971 393.133 176.275C384.25 180.219 375.612 184.492 367.155 188.974C330.951 208.045 294.31 229.112 268.709 252.181C262.091 258.143 256.177 264.226 251.036 270.477C231.075 294.746 219.377 321.949 215.016 349.861C214.261 354.637 213.703 359.478 213.239 364.365C211.594 381.806 211.169 399.837 207.455 417.588C205.248 428.177 202.492 438.962 195.231 448.531C190.712 454.492 184.486 459.666 176.503 464.135C168.378 468.685 159.731 472.362 150.642 476.217C119.474 489.347 85.0427 506.44 68.8739 528.795M895.595 -236.977C910.395 -198.953 907.335 -156.009 882.149 -117.743C868.844 -97.3378 847.375 -81.5284 832.729 -61.73C816.236 -39.4384 794.55 -18.9705 769.908 0.170198C753.027 13.2906 734.7 25.7855 715.557 37.7853C677.842 61.4294 636.975 83.2439 594.631 101.828C569.874 112.692 544.835 122.545 519.871 131.568C501.686 138.141 483.301 144.45 464.696 150.5C437.997 159.182 410.432 167.298 384.24 178.504C375.113 182.409 366.257 186.671 357.622 191.166C320.61 210.326 284.206 232.171 259.104 256.093C252.626 262.268 246.862 268.568 241.871 275.031C222.531 300.072 211.731 327.952 208.273 356.395C207.674 361.263 207.27 366.191 206.957 371.164C205.847 388.913 205.884 407.225 202.305 425.21C200.178 435.941 197.328 446.826 190.013 456.559C185.459 462.621 179.225 467.919 171.321 472.544C163.227 477.28 154.573 481.187 145.467 485.235C114.246 499.02 79.4928 516.181 62.6743 538.717M894.582 -235.205C910.773 -197.543 908.468 -154.707 883.479 -116.655C869.995 -95.9379 848.003 -80.028 833.354 -59.8593C816.9 -37.2051 795.261 -16.3194 770.532 3.18583C753.588 16.5572 735.143 29.2778 715.789 41.4491C677.656 65.4246 636.009 87.337 592.542 105.774C567.129 116.554 541.323 126.237 515.516 135.043C496.692 141.466 477.651 147.585 458.403 153.427C430.759 161.817 402.271 169.618 375.348 180.726C365.976 184.594 356.904 188.843 348.089 193.353C310.268 212.602 274.1 235.224 249.501 259.999C243.16 266.386 237.548 272.901 232.707 279.578C213.987 305.393 204.086 333.948 201.535 362.922C201.091 367.878 200.84 372.896 200.68 377.956C200.103 396.012 200.604 414.605 197.161 432.825C195.114 443.7 192.169 454.685 184.801 464.579C180.212 470.746 173.972 476.167 166.148 480.945C158.085 485.87 149.425 490.006 140.295 494.245C109.024 508.684 73.9448 525.912 56.4829 548.631M893.571 -233.435C911.156 -196.133 909.602 -153.408 884.808 -115.567C871.142 -94.538 848.565 -78.5462 833.979 -57.9886C817.496 -34.9916 795.967 -13.6684 771.156 6.20155C754.152 19.8251 735.589 32.7715 716.02 45.1105C677.473 69.4161 635.039 91.4276 590.454 109.721C564.388 120.417 537.814 129.928 511.162 138.518C491.699 144.792 472.002 150.718 452.111 156.351C423.524 164.449 394.144 171.97 366.453 182.947C356.847 186.787 347.55 191.012 338.554 195.536C299.925 214.874 263.992 238.275 239.896 263.904C233.692 270.502 228.235 277.233 223.541 284.124C205.441 310.713 196.437 339.944 194.79 369.448C194.499 374.494 194.409 379.6 194.394 384.747C194.351 403.111 195.319 421.985 192.01 440.44C190.042 451.458 187.001 462.54 179.581 472.599C174.957 478.871 168.711 484.415 160.967 489.347C152.934 494.46 144.27 498.825 135.118 503.256C103.793 518.351 68.395 535.645 50.2834 558.547M892.56 -231.662C911.534 -194.72 910.736 -152.106 886.14 -114.477C872.293 -93.1354 849.2 -77.0418 834.609 -56.1152C818.171 -32.7542 796.68 -11.0133 771.784 9.21996C754.718 23.0944 736.039 36.2679 716.256 48.7771C677.292 73.4141 634.075 95.5247 588.371 113.673C561.649 124.283 534.311 133.622 506.814 141.998C486.712 148.121 466.344 153.832 445.822 159.281C416.271 167.052 385.979 174.29 357.565 185.171C347.715 188.973 338.2 193.185 329.024 197.724C289.585 217.152 253.886 241.331 230.293 267.813C224.227 274.622 218.919 281.57 214.382 288.673C196.897 316.037 188.797 345.943 188.053 375.979C187.919 381.116 187.982 386.31 188.119 391.542C188.61 410.214 190.041 429.37 186.867 448.058C184.979 459.219 181.844 470.4 174.369 480.623C169.71 486.999 163.459 492.666 155.789 497.751C147.792 503.053 139.116 507.646 129.945 512.27C98.5687 528.019 62.8452 545.381 44.0859 568.465M891.548 -229.892C911.914 -193.312 911.872 -150.806 887.473 -113.389C873.444 -91.7357 849.834 -75.5402 835.238 -54.2446C818.847 -30.5183 797.393 -8.36096 772.414 12.2369C755.29 26.3623 736.488 39.7641 716.492 52.4409C677.11 77.4094 633.109 99.6177 586.286 117.622C558.912 128.148 530.803 137.314 502.461 145.477C481.723 151.449 460.699 156.97 439.532 162.212C409.037 169.693 377.816 176.611 348.673 187.398C338.575 191.162 328.845 195.361 319.491 199.914C279.244 219.43 243.773 244.387 220.688 271.723C214.759 278.743 209.601 285.908 205.216 293.224C188.344 321.363 181.15 351.942 181.308 382.51C181.329 387.735 181.547 393.019 181.835 398.337C182.86 417.317 184.754 436.754 181.719 455.676C179.911 466.98 176.681 478.261 169.153 488.646C164.459 495.126 158.204 500.918 150.612 506.155C142.652 511.647 133.964 516.467 124.769 521.282C93.3401 537.687 57.2972 555.115 37.8903 578.381M890.535 -228.121C912.295 -191.9 913.003 -149.506 888.8 -112.3C874.591 -90.3332 850.462 -74.0371 835.863 -52.3712C819.517 -28.2809 798.101 -5.70601 773.038 15.2552C755.854 29.6328 736.933 43.2603 716.725 56.1061C676.928 81.4046 632.14 103.712 584.199 121.57C556.169 132.012 527.296 141.006 498.108 148.954C476.731 154.775 455.057 160.107 433.241 165.137C401.808 172.328 369.651 178.928 339.784 189.62C329.443 193.344 319.494 197.532 309.96 202.099C268.904 221.705 233.665 247.441 211.087 275.627C205.294 282.861 200.287 290.241 196.054 297.77C179.794 326.683 173.508 357.937 174.569 389.037C174.746 394.353 175.119 399.723 175.557 405.128C177.118 424.417 179.475 444.133 176.575 463.291C174.847 474.738 171.521 486.117 163.941 496.666C159.212 503.248 152.957 509.167 145.438 514.557C137.513 520.237 128.814 525.285 119.6 530.294C88.1177 547.353 51.7534 564.849 31.6968 588.296M889.524 -226.348C912.675 -190.489 914.139 -148.203 890.132 -111.21C875.74 -88.932 851.095 -72.5341 836.491 -50.4992C820.19 -26.0448 798.812 -3.05235 773.662 18.2734C756.416 32.902 737.379 46.7566 716.957 59.7726C676.741 85.4013 631.172 107.809 582.111 125.523C553.428 135.879 523.766 144.671 493.756 152.436C471.728 158.084 449.413 163.248 426.948 168.07C394.575 174.971 361.484 181.25 330.89 191.849C320.301 195.535 310.14 199.708 300.425 204.29C258.561 223.985 223.466 250.475 201.482 279.54C195.803 286.978 190.97 294.582 186.889 302.323C171.239 332.013 165.859 363.941 167.826 395.569C168.157 400.975 168.688 406.435 169.273 411.926C171.368 431.522 174.189 451.519 171.424 470.911C169.773 482.5 166.353 493.981 158.721 504.692C153.957 511.379 147.7 517.42 140.255 522.965C132.371 528.835 123.656 534.111 114.42 539.311C82.887 557.025 46.1993 574.587 25.4971 598.218M888.513 -224.578C913.053 -189.079 915.271 -146.903 891.461 -110.122C876.892 -87.5321 851.727 -71.031 837.118 -48.6271C820.863 -23.8087 799.521 -0.399889 774.288 21.2905C756.982 36.1713 737.827 50.2516 717.189 63.4367C676.557 89.3954 630.202 111.902 580.022 129.472C550.685 139.743 520.263 148.368 489.401 155.914C466.738 161.414 443.767 166.386 420.658 170.998C387.346 177.609 353.319 183.57 321.998 194.073C311.163 197.719 300.785 201.882 290.892 206.477C248.219 226.262 213.369 253.536 191.877 283.447C186.34 291.1 181.629 298.913 177.725 306.87C162.587 337.318 158.215 369.937 161.085 402.097C161.574 407.593 162.257 413.141 162.992 418.717C165.621 438.621 168.909 458.9 166.276 478.527C164.705 490.258 161.192 501.838 153.505 512.712C148.706 519.504 142.45 525.67 135.076 531.365C127.231 537.424 118.5 542.927 109.245 548.319C77.6587 566.688 40.6496 584.318 19.2999 608.131M887.499 -222.806C913.434 -187.667 916.403 -145.602 892.791 -109.034C878.039 -86.132 852.358 -69.5291 837.741 -46.7549C821.533 -21.5711 800.229 2.25267 774.91 24.3077C757.544 39.4381 738.266 53.7467 717.42 67.1007C676.372 93.3908 629.232 115.996 577.933 133.419C547.942 143.607 516.758 152.064 485.047 159.389C461.751 164.744 438.121 169.523 414.363 173.924C380.111 180.246 345.152 185.886 313.103 196.294C302.022 199.901 291.429 204.052 281.355 208.662C237.875 228.535 203.269 256.595 182.268 287.352C176.87 295.217 172.312 303.249 168.557 311.417C154.057 342.648 150.564 375.932 154.338 408.624C154.981 414.21 155.822 419.845 156.706 425.508C159.869 445.721 163.62 466.28 161.125 486.142C159.633 498.017 156.023 509.696 148.285 520.733C143.451 527.629 137.197 533.918 129.894 539.766C122.091 546.015 113.344 551.746 104.068 557.33C72.4282 576.352 35.0999 594.05 13.1004 618.045M886.49 -221.035C913.816 -186.257 917.54 -144.301 894.124 -107.943C879.192 -84.7284 852.992 -68.0249 838.371 -44.8817C822.208 -19.334 800.942 4.90751 775.54 27.3272C758.114 42.7098 738.717 57.2441 717.656 70.7671C676.192 97.3873 628.27 120.091 575.849 137.371C545.203 147.473 513.256 155.765 480.694 162.871C456.764 168.078 432.476 172.664 408.07 176.856C372.88 182.888 336.983 188.209 304.208 198.522C292.882 202.09 282.076 206.229 271.82 210.853C227.53 230.815 193.171 259.661 172.663 291.264C167.406 299.344 163.002 307.592 159.391 315.971C145.528 347.986 142.917 381.934 147.595 415.159C148.391 420.835 149.388 426.558 150.424 432.307C154.121 452.827 158.335 473.668 155.975 493.764C154.563 505.781 150.859 517.559 143.066 528.76C138.197 535.76 131.965 542.181 124.712 548.175C116.969 554.624 108.186 560.572 98.89 566.349C67.1973 586.026 29.5475 603.792 6.90038 627.969M885.477 -219.263C914.195 -184.847 918.672 -143 895.454 -106.855C880.339 -83.3284 853.625 -66.5244 838.998 -43.0096C822.88 -17.0978 801.653 7.56126 776.166 30.3443C724.254 76.7517 654.499 115.48 573.762 141.32C519.453 158.701 460.917 170.383 401.78 179.782C365.649 185.524 328.82 190.525 295.318 200.743C233.728 219.528 187.71 255.212 163.06 295.168C138.411 335.124 133.811 379.088 140.857 421.683C147.247 460.338 162.487 501.096 137.855 536.778C109.683 577.586 37.1903 599.728 0.707297 637.879M1050.65 8.32838C998.528 -25.4547 926.972 -47.2801 852.283 -52.1729C831.034 -53.5646 808.739 -53.5278 789.332 -47.9453C733.257 -31.8129 721.016 15.6994 704.349 48.6416C684.235 88.3944 665.648 128.525 640.378 167.164C626.191 188.857 606.145 212.184 570.315 219.114C534.033 226.13 496.44 213.677 461.728 204.046C421.281 192.822 377.52 184.956 333.303 186.138C289.086 187.321 244.283 198.438 216.285 219.854C194.362 236.625 184.224 258.162 177.43 279.397C159.584 335.192 161.439 393.412 182.826 448.721M1049.71 6.05671C1003.65 -23.8017 941.47 -42.5245 872.894 -49.2225C866.526 -49.8447 860.137 -50.3794 853.723 -50.7769C832.646 -52.0773 810.587 -52.0118 791.344 -46.5789C735.671 -30.8774 722.433 15.156 705.163 47.6539C689.853 76.4659 675.628 105.696 658.76 134.606C652.929 144.648 646.813 154.628 640.272 164.515C626.083 185.961 606.26 209.002 571.171 216.181C535.641 223.449 498.851 211.878 464.833 203.031C425.194 192.725 382.329 185.658 338.958 187.323C323.857 187.903 308.68 189.646 294.134 192.565C266.91 198.026 241.886 207.604 223.726 221.385C201.912 237.938 191.441 259.06 184.155 279.818C169.388 321.833 165.765 364.953 173.497 407.317C175.802 419.958 179.118 432.529 183.46 444.981M1048.78 3.78778C1004.26 -25.0756 943.709 -41.6499 874.156 -47.9215C867.843 -48.4898 861.517 -49.0058 855.165 -49.3767C834.261 -50.5833 812.439 -50.4916 793.354 -45.2083C738.079 -29.9378 723.852 14.6141 705.979 46.6704C690.278 74.8299 675.887 103.62 658.723 132.319C652.85 142.235 646.71 152.097 640.169 161.87C625.979 183.07 606.376 205.826 572.029 213.252C537.249 220.77 501.261 210.081 467.943 202.02C429.114 192.63 387.14 186.365 344.619 188.512C329.814 189.261 314.924 191.131 300.638 194.135C273.904 199.745 249.243 209.319 231.175 222.918C209.473 239.255 198.668 259.959 190.887 280.241C175.094 321.297 169.913 363.128 175.824 404.443C177.587 416.771 180.336 429.05 184.101 441.244M1047.85 1.5164C1004.86 -26.3506 945.959 -40.7844 875.418 -46.623C869.159 -47.1413 862.897 -47.6373 856.61 -47.9804C835.879 -49.0957 814.292 -48.9726 795.371 -43.8415C740.498 -29.002 725.286 14.0659 706.797 45.6831C690.713 73.1876 676.045 101.512 658.692 130.029C652.742 139.811 646.614 149.562 640.07 159.222C625.877 180.175 606.496 202.647 572.893 210.319C538.864 218.087 503.681 208.282 471.057 201.006C433.037 192.534 391.958 187.068 350.285 189.696C335.772 190.615 321.172 192.611 307.144 195.697C280.899 201.46 256.604 211.026 238.627 224.448C217.037 240.568 205.898 260.854 197.621 280.66C180.803 320.76 174.062 361.299 178.156 401.566C179.377 413.581 181.559 425.566 184.75 437.503M1046.92 -0.752577C1005.46 -27.6246 948.215 -39.9256 876.677 -45.3207C870.473 -45.7877 864.272 -46.2638 858.05 -46.5791C837.491 -47.6006 816.141 -47.4513 797.381 -42.4711C742.91 -28.0625 726.722 13.5214 707.611 44.7008C691.153 71.5502 676.268 99.429 658.653 127.744C652.649 137.397 646.51 147.03 639.964 156.578C625.77 177.285 606.613 199.472 573.748 207.391C540.471 215.41 506.091 206.488 474.162 199.997C436.95 192.442 396.765 187.774 355.94 190.886C341.72 191.973 327.411 194.096 313.64 197.266C287.886 203.18 263.956 212.741 246.066 225.983C224.583 241.886 213.113 261.756 204.342 281.084C186.498 320.226 178.199 359.475 180.47 398.695C181.147 410.398 182.764 422.09 185.378 433.768M1045.99 -3.02253C1006.07 -28.8995 950.476 -39.0743 877.937 -44.0208C871.789 -44.439 865.651 -44.8913 859.493 -45.1813C839.106 -46.1116 817.99 -45.9322 799.394 -41.1017C745.325 -27.124 728.169 12.9734 708.427 43.7175C691.605 69.9133 676.501 97.3433 658.62 125.458C652.564 134.983 646.412 144.499 639.865 153.933C625.669 174.393 606.733 196.295 574.61 204.462C542.084 212.732 508.51 204.692 477.274 198.987C440.87 192.347 401.581 188.481 361.603 192.076C347.679 193.333 333.657 195.583 320.145 198.835C294.881 204.9 271.314 214.456 253.517 227.518C232.147 243.205 220.346 262.658 211.079 281.509C192.211 319.695 182.351 357.653 182.804 395.825C182.938 407.215 183.988 418.614 186.025 430.035M1045.05 -5.29418C1006.67 -30.1762 952.745 -38.2363 879.196 -42.7238C873.106 -43.0946 867.028 -43.5243 860.933 -43.7852C840.721 -44.6229 819.839 -44.4162 801.404 -39.7365C747.734 -26.1885 729.621 12.4185 709.238 42.7286C692.064 68.2695 676.727 95.2533 658.579 123.167C652.47 132.563 646.305 141.962 639.755 151.282C625.558 171.495 606.844 193.111 575.462 201.526C543.686 210.046 510.916 202.89 480.376 197.97C444.78 192.248 406.386 189.181 367.254 193.259C353.625 194.684 339.892 197.06 326.638 200.398C301.863 206.614 278.662 216.163 260.954 229.046C239.696 244.517 227.559 263.553 217.798 281.927C197.905 319.154 186.485 355.823 185.119 392.945C184.708 404.024 185.192 415.13 186.655 426.29M1044.12 -7.56301C1007.27 -31.4487 955.02 -37.4021 880.455 -41.4215C874.422 -41.7462 868.404 -42.1506 862.375 -42.3849C842.334 -43.1301 821.688 -42.8946 803.416 -38.3646C750.147 -25.2488 731.087 11.8717 710.057 41.7465C692.537 66.6325 676.965 93.1689 658.546 120.883C652.387 130.152 646.204 139.433 639.656 148.639C625.456 168.605 606.964 189.937 576.324 198.6C545.301 207.371 513.331 201.096 483.489 196.961C448.704 192.156 411.204 189.889 372.922 194.449C359.585 196.042 346.142 198.547 333.147 201.967C308.861 208.334 286.027 217.879 268.407 230.583C247.259 245.835 234.791 264.455 224.532 282.353C203.615 318.624 190.635 354.002 187.448 390.078C186.495 400.843 186.411 411.657 187.298 422.559M1043.19 -9.83464C1007.88 -32.7253 957.302 -36.5825 881.717 -40.1232C875.741 -40.4031 869.786 -40.781 863.817 -40.9876C843.951 -41.6402 823.541 -41.3759 805.431 -36.9968C752.563 -24.3119 732.565 11.3169 710.872 40.7602C693.021 64.9915 677.2 91.0815 658.51 118.593C652.301 127.732 646.103 136.897 639.553 145.991C625.352 165.711 607.082 186.756 577.183 195.669C546.911 204.69 515.746 199.299 486.599 195.949C452.621 192.062 416.015 190.596 378.581 195.636C365.539 197.399 352.386 200.029 339.647 203.533C315.853 210.052 293.381 219.589 275.852 232.116C254.816 247.152 242.014 265.354 231.261 282.777C209.319 318.089 194.779 352.178 189.773 387.205C188.276 397.659 187.624 408.177 187.938 418.824M1042.26 -12.1048C1008.48 -34.0004 959.584 -35.7704 882.976 -38.8234C877.058 -39.0585 871.162 -39.41 865.26 -39.5901C845.564 -40.1502 825.391 -39.8571 807.443 -35.6301C754.975 -23.375 734.049 10.7637 711.688 39.7741C693.515 63.352 677.44 88.9957 658.475 116.305C652.217 125.318 646.002 134.365 639.451 143.345C625.248 162.817 607.199 183.578 578.043 192.739C548.521 202.01 518.161 197.503 489.709 194.937C456.539 191.968 420.829 191.301 384.242 196.825C371.496 198.757 358.629 201.514 346.149 205.101C322.843 211.772 300.738 221.305 283.3 233.649C262.373 248.466 249.238 266.253 237.991 283.199C215.026 317.554 198.925 350.351 192.1 384.331C190.061 394.472 188.842 404.698 188.581 415.085M1041.33 -14.3748C1009.08 -35.2754 961.877 -34.9674 884.236 -37.5236C878.376 -37.7165 872.54 -38.0401 866.698 -38.1924C847.177 -38.6599 827.238 -38.3394 809.452 -34.2608C757.386 -22.4365 735.542 10.2106 712.498 38.7894C694.013 61.7152 677.677 86.91 658.432 114.018C652.126 122.903 645.894 131.832 639.342 140.699C625.137 159.925 607.311 180.399 578.895 189.809C550.123 199.33 520.567 195.706 492.81 193.926C460.451 191.873 425.634 192.007 389.893 198.013C377.44 200.112 364.86 202.997 352.641 206.668C329.826 213.489 308.085 223.016 290.737 235.182C269.92 249.785 256.453 267.152 244.71 283.621C220.72 317.018 203.058 348.525 194.413 381.459C191.831 391.286 190.044 401.22 189.208 411.349M1040.39 -16.6452C1009.69 -36.5507 964.168 -34.1765 885.495 -36.2241C879.694 -36.3748 873.917 -36.6679 868.141 -36.7949C848.789 -37.17 829.087 -36.8207 811.464 -32.8942C759.8 -21.5009 737.051 9.6573 713.314 37.8031C694.53 60.077 677.92 84.8228 658.399 111.729C652.046 120.486 645.795 129.298 639.243 138.051C625.035 157.03 607.433 177.221 579.759 186.876C551.74 196.648 522.986 193.905 495.926 192.913C464.373 191.777 430.454 192.711 395.561 199.198C383.402 201.466 371.112 204.477 359.151 208.233C336.826 215.205 315.45 224.726 298.19 236.713C277.485 251.099 263.683 268.05 251.448 284.043C226.434 316.483 207.211 346.698 196.746 378.583C193.62 388.099 191.268 397.739 189.857 407.609M1039.46 -18.9139C1010.29 -37.8231 966.463 -33.3957 886.757 -34.9228C881.016 -35.0326 875.295 -35.3033 869.583 -35.3946C850.407 -35.7007 830.94 -35.2991 813.479 -31.5236C762.214 -20.5625 738.571 9.1083 714.134 36.8198C695.062 58.4456 678.171 82.7411 658.366 109.443C651.967 118.073 645.696 126.764 639.14 135.406C624.931 154.139 607.551 174.044 580.617 183.947C553.348 193.969 525.399 192.109 499.036 191.902C468.291 191.683 435.268 193.416 401.222 200.387C389.359 202.824 377.356 205.962 365.654 209.8C343.818 216.926 322.807 226.441 305.639 238.247C285.044 252.415 270.911 268.949 258.18 284.466C232.141 315.947 211.358 344.874 199.076 375.711C195.408 384.913 192.487 394.261 190.502 403.874M1038.53 -21.1854C1010.89 -39.0997 968.76 -32.6295 888.016 -33.6232C882.333 -33.6934 876.675 -33.9323 871.025 -33.9971C852.022 -34.2119 832.789 -33.7803 815.489 -30.1556C764.624 -19.6243 740.103 8.55913 714.946 35.8336C695.598 56.8115 678.414 80.6565 658.329 107.154C651.885 115.656 645.593 124.23 639.036 132.758C624.825 151.243 607.666 170.865 581.474 181.015C554.956 191.288 527.812 190.311 502.143 190.889C472.209 191.586 440.079 194.12 406.879 201.573C395.307 204.18 383.598 207.443 372.149 211.367C350.804 218.642 330.157 228.152 313.078 239.779C292.595 253.731 278.128 269.846 264.901 284.887C237.839 315.412 215.495 343.047 201.39 372.837C197.178 381.727 193.692 390.782 191.13 400.136M1037.6 -23.4557C1011.5 -40.375 971.057 -31.8739 889.275 -32.3236C883.65 -32.3542 878.051 -32.5614 872.465 -32.5984C853.634 -32.722 834.638 -32.2615 817.501 -28.7865C767.038 -18.686 741.648 8.01266 715.761 34.85C696.148 55.184 678.667 78.5732 658.292 104.867C651.801 113.242 645.49 121.699 638.932 130.113C624.721 148.352 607.784 167.687 582.332 178.086C556.566 188.61 530.224 188.516 505.251 189.878C476.124 191.494 444.888 194.828 412.538 202.763C401.261 205.539 389.839 208.93 378.649 212.936C357.794 220.362 337.511 229.865 320.523 241.315C300.152 255.05 285.349 270.749 271.629 285.315C243.54 314.881 219.638 341.227 203.715 369.969C198.96 378.547 194.907 387.309 191.77 396.403M1036.67 -25.7259C1012.1 -41.6501 973.359 -31.1311 890.537 -31.0251C884.972 -31.0175 879.431 -31.193 873.91 -31.2022C855.251 -31.2345 836.489 -30.744 819.514 -27.4199C769.453 -17.7504 743.21 7.46631 716.575 33.8625C696.707 53.5539 678.918 76.4888 658.254 102.579C651.72 110.827 645.387 119.165 638.829 127.465C624.615 145.457 607.899 164.507 583.19 175.154C558.174 185.928 532.635 186.717 508.358 188.865C480.042 191.397 449.699 195.532 418.197 203.948C407.215 206.893 396.083 210.41 385.151 214.501C364.784 222.079 344.868 231.578 327.972 242.847C307.711 256.363 292.577 271.646 278.36 285.735C249.249 314.345 223.785 339.399 206.042 367.092C200.741 375.357 196.122 383.826 192.411 392.663M1035.73 -27.996C1012.7 -42.9239 975.657 -30.4014 891.794 -29.724C886.287 -29.6795 880.804 -29.8206 875.348 -29.8019C856.862 -29.7404 838.346 -29.2014 821.524 -26.0492C771.893 -16.7477 744.782 6.9293 717.389 32.8804C697.279 51.9345 679.173 74.4096 658.217 100.292C651.641 108.414 645.284 116.634 638.726 124.82C624.51 142.566 608.017 161.33 584.047 172.225C559.781 183.251 535.048 184.922 511.468 187.854C483.96 191.304 454.513 196.237 423.859 205.137C413.169 208.25 402.326 211.895 391.654 216.069C371.779 223.799 352.225 233.29 335.417 244.38C315.266 257.682 299.799 272.546 285.088 286.158C254.951 313.809 227.928 337.574 208.365 364.221C202.522 372.173 197.335 380.349 193.049 388.929M1034.8 -30.2661C1013.31 -44.1989 977.957 -29.6836 893.058 -28.4243C887.609 -28.3427 882.186 -28.4482 876.795 -28.4043C858.481 -28.2516 840.202 -27.6838 823.543 -24.6812C774.312 -15.812 746.373 6.39366 718.214 31.8943C697.873 50.3139 679.441 72.328 658.191 98.005C651.574 106.001 645.192 114.101 638.631 122.175C624.413 139.674 608.141 158.153 584.916 169.297C561.402 180.574 537.473 183.127 514.586 186.845C487.886 191.213 459.335 196.946 429.527 206.328C419.132 209.609 408.576 213.382 398.162 217.638C378.777 225.518 359.59 235.005 342.871 245.917C322.829 259 307.033 273.449 291.826 286.584C260.666 313.279 232.08 335.755 210.699 361.351C204.311 368.991 198.561 376.872 193.699 385.195M1033.87 -32.5362C1013.91 -45.4754 980.256 -28.98 894.315 -27.1232C888.927 -27.006 883.562 -27.0771 878.233 -27.0041C860.092 -26.7575 842.047 -26.1624 825.549 -23.3107C776.718 -14.871 747.97 5.86729 719.021 30.9109C698.461 48.6998 679.694 70.2501 658.147 95.7175C651.49 103.588 645.081 111.567 638.521 119.528C624.303 136.781 608.255 154.976 585.767 166.367C563.004 177.894 539.88 181.33 517.687 185.833C491.796 191.116 464.138 197.65 435.177 207.515C425.078 210.966 414.812 214.864 404.654 219.204C385.757 227.237 366.934 236.718 350.306 247.449C330.376 260.316 314.246 274.347 298.543 287.006C266.358 312.742 236.21 333.927 213.014 358.477C206.084 365.804 199.766 373.393 194.327 381.457M1032.94 -34.8078C1014.51 -46.7519 982.549 -28.2923 895.575 -25.8261C890.244 -25.6746 884.94 -25.7074 879.675 -25.6092C861.707 -25.2714 843.898 -24.6474 827.564 -21.9453C779.132 -13.938 749.587 5.34083 719.839 29.9234C699.068 47.087 679.964 68.1696 658.114 93.4286C651.417 101.173 644.982 109.033 638.42 116.879C624.198 133.885 608.372 151.795 586.627 163.434C564.614 175.211 542.292 179.529 520.797 184.819C495.714 191.02 468.952 198.352 440.841 208.7C431.034 212.319 421.057 216.346 411.16 220.769C392.753 228.952 374.295 238.428 357.759 248.98C337.941 261.63 321.476 275.245 305.279 287.426C272.07 312.205 240.362 332.099 215.343 355.602C207.87 362.615 200.985 369.912 194.97 377.718M1032.01 -37.0767C1015.11 -48.0245 984.844 -27.6177 896.836 -24.5251C891.564 -24.3392 886.318 -24.3351 881.118 -24.2091C863.322 -23.7774 845.747 -23.126 829.576 -20.5761C781.542 -12.9997 751.22 4.82625 720.653 28.9385C699.681 45.4808 680.23 66.0918 658.075 91.141C651.338 98.7593 644.879 106.5 638.314 114.233C624.092 130.992 608.486 148.617 587.485 160.502C566.224 172.531 544.705 177.732 523.904 183.806C499.629 190.925 473.761 199.058 446.498 209.886C436.987 213.674 427.299 217.827 417.658 222.335C399.744 230.669 381.65 240.139 365.2 250.511C345.492 262.943 328.695 276.141 312.005 287.847C277.77 311.668 244.503 330.273 217.664 352.726C209.647 359.428 202.196 366.432 195.606 373.977M1031.07 -39.347C1015.72 -49.2998 987.132 -26.9577 898.094 -23.2243C892.88 -23.0067 887.693 -22.9643 882.558 -22.8104C864.935 -22.2849 847.59 -21.627 831.586 -19.2057C783.93 -12.1206 752.865 4.32215 721.467 27.9562C700.304 43.8837 680.499 64.0164 658.04 88.856C651.265 96.3497 644.779 103.969 638.213 111.589C623.988 128.101 608.605 145.44 588.344 157.574C567.834 169.853 547.119 175.937 527.016 182.796C503.551 190.831 478.577 199.764 452.161 211.077C442.945 215.033 433.544 219.313 424.162 223.904C406.736 232.39 389.008 241.852 372.649 252.047C353.051 264.264 335.921 277.044 318.734 288.274C283.476 311.138 248.648 328.451 219.991 349.858C211.432 356.246 203.411 362.956 196.249 370.246M1030.14 -41.6171C1016.32 -50.5749 989.421 -26.313 899.357 -21.9244C894.201 -21.6724 889.075 -21.5918 884.002 -21.4114C866.552 -20.792 849.441 -20.1067 833.601 -17.8376C786.344 -11.1848 754.528 3.82491 722.287 26.9702C700.945 42.2895 680.78 61.9401 658.007 86.5672C651.194 93.9365 644.68 101.436 638.112 108.942C623.886 125.209 608.723 142.263 589.204 154.644C569.445 167.173 549.534 174.141 530.126 181.784C507.469 190.737 483.39 200.47 457.82 212.264C448.895 216.39 439.786 220.795 430.662 225.47C413.726 234.107 396.361 243.565 380.097 253.58C360.61 265.58 343.146 277.942 325.464 288.695C289.181 310.601 252.793 326.625 222.314 346.984C213.211 353.061 204.624 359.477 196.888 366.507M1029.21 -43.8872C1016.93 -51.85 991.697 -25.6843 900.615 -20.626C895.517 -20.3424 890.449 -20.2221 885.443 -20.0152C868.164 -19.302 851.29 -18.5905 835.612 -16.4697C788.757 -10.2478 756.202 3.33943 723.098 25.9841C701.583 40.7018 681.052 59.8636 657.968 84.2797C651.116 91.5244 644.573 98.9017 638.007 106.296C623.778 122.315 608.839 139.084 590.06 151.713C571.053 164.494 551.945 172.342 533.231 180.773C511.383 190.643 488.2 201.175 463.48 213.452C454.849 217.747 446.027 222.279 437.165 227.038C420.716 235.827 403.72 245.279 387.542 255.113C368.165 266.896 350.37 278.841 332.192 289.118C294.885 310.067 256.936 324.8 224.639 344.111C214.993 349.875 205.839 355.999 197.526 362.771M1028.28 -46.1587C1017.53 -53.1264 993.974 -25.0739 901.874 -19.3262C896.833 -19.0122 891.827 -18.8445 886.883 -18.6163C869.779 -17.7896 853.138 -17.0703 837.624 -15.1004C791.169 -9.30814 757.895 2.86585 723.914 25.0006C702.233 39.1221 681.334 57.7937 657.933 81.9922C651.047 89.1124 644.472 96.3691 637.905 103.649C623.676 119.422 608.956 135.906 590.92 148.783C572.663 161.814 554.36 170.545 536.341 179.761C515.301 190.547 493.013 201.88 469.139 214.64C460.804 219.103 452.269 223.762 443.665 228.604C427.708 237.545 411.075 246.99 394.987 256.647C375.722 268.213 357.592 279.742 338.921 289.542C300.589 309.533 261.081 322.976 226.964 341.238C216.774 346.691 207.054 352.521 198.165 359.035M1027.34 -48.4277C1018.13 -54.3991 996.242 -24.4767 903.135 -18.0253C898.152 -17.6795 893.209 -17.4723 888.325 -17.2189C871.396 -16.2996 854.991 -15.5516 839.636 -13.7339C793.583 -8.37259 759.6 2.40524 724.728 24.013C702.887 37.5474 681.614 55.7198 657.895 79.7032C650.974 86.7003 644.369 93.8351 637.8 101C623.567 116.526 609.074 132.725 591.775 145.85C574.269 159.131 556.77 168.746 539.446 178.747C519.214 190.45 497.822 202.583 474.794 215.824C466.752 220.456 458.508 225.242 450.16 230.168C434.694 239.259 418.425 248.701 402.426 258.176C383.273 269.526 364.809 280.637 345.643 289.96C306.287 308.995 265.218 321.147 229.281 338.363C218.549 343.502 208.261 349.04 198.799 355.296M1026.41 -50.6992C1018.74 -55.6756 998.502 -23.8979 904.397 -16.727C899.47 -16.3508 894.586 -16.1026 889.767 -15.8213C873.009 -14.8096 856.84 -14.0328 841.649 -12.3648C795.997 -7.43436 761.317 1.96046 725.544 23.0294C703.548 35.9846 681.901 53.6524 657.86 77.4156C650.905 84.2907 644.268 91.3025 637.696 98.3551C623.463 113.635 609.189 129.549 592.635 142.922C575.879 156.453 559.185 166.952 542.558 177.737C523.136 190.356 502.638 203.29 480.457 217.015C472.71 221.815 464.754 226.729 456.665 231.737C441.686 240.98 425.784 250.414 409.877 259.711C390.834 270.843 372.036 281.539 352.376 290.384C311.995 308.461 269.365 319.322 231.61 335.49C220.335 340.316 209.48 345.562 199.442 351.559M1025.48 -52.968C1019.34 -56.9494 1000.76 -23.3359 905.657 -15.4246C900.788 -15.0193 895.962 -14.7288 891.21 -14.4211C874.626 -13.3167 858.691 -12.5125 843.661 -10.9954C798.41 -6.49723 763.047 1.53169 726.362 22.0448C704.215 34.4286 682.193 51.584 657.827 75.1295C650.84 81.8815 644.17 88.7713 637.597 95.71C623.361 110.742 609.311 126.371 593.497 139.993C577.494 153.775 561.6 165.155 545.67 176.727C527.056 190.264 507.452 203.998 486.119 218.204C478.667 223.173 471 228.213 463.165 233.306C448.677 242.7 433.139 252.128 417.32 261.246C398.387 272.163 379.258 282.439 359.104 290.81C317.7 307.929 273.508 317.5 233.933 332.619C222.114 337.133 210.693 342.085 200.078 347.824M1024.55 -55.2394C1019.94 -58.2258 1003 -22.7923 906.916 -14.1273C902.101 -13.693 897.342 -13.3604 892.65 -13.0248C876.236 -11.828 860.538 -10.995 845.674 -9.62873C800.822 -5.56022 764.787 1.11724 727.176 21.0574C704.881 32.8777 682.486 49.5155 657.788 72.8393C650.767 79.4695 644.065 86.2334 637.492 93.061C623.255 107.847 609.425 123.191 594.355 137.059C579.102 151.091 564.013 163.355 548.777 175.711C530.972 190.166 512.263 204.699 491.78 219.387C484.621 224.525 477.243 229.693 469.669 234.87C455.673 244.415 440.497 253.839 424.769 262.777C405.946 273.476 386.486 283.336 365.834 291.231C323.406 307.394 277.653 315.673 236.258 329.746C223.897 333.947 211.906 338.606 200.719 344.087M1023.62 -57.5098C1020.54 -59.4998 1005.23 -22.266 908.175 -12.8278C903.417 -12.3656 898.718 -11.9896 894.093 -11.6274C877.854 -10.3381 862.391 -9.47621 847.684 -8.26091C803.234 -4.62334 766.535 0.720944 727.99 20.0724C705.55 31.3384 682.781 47.4535 657.753 70.5517C650.702 77.06 643.964 83.7008 637.39 90.4144C623.151 104.953 609.545 120.011 595.215 134.128C580.713 148.411 566.427 161.558 551.887 174.699C534.892 190.071 517.077 205.405 497.439 220.575C490.575 225.882 483.487 231.175 476.169 236.436C462.661 246.134 447.852 255.55 432.216 264.31C413.505 274.791 393.709 284.235 372.563 291.653C329.11 306.857 281.799 313.847 238.583 326.871C225.678 330.76 213.122 335.125 201.36 340.349M1022.68 -59.7787C1021.15 -60.7737 1007.45 -21.758 909.435 -11.5255C904.73 -11.0343 900.098 -10.6158 895.533 -10.2259C879.466 -8.84528 864.238 -7.9534 849.696 -6.88899C805.648 -3.68236 768.291 0.348389 728.803 19.0901C706.216 29.811 683.123 45.414 657.714 68.2667C650.644 74.6597 643.859 81.1707 637.285 87.7706C623.044 102.063 609.658 116.836 596.07 131.201C582.321 145.734 568.84 159.763 554.992 173.69C538.805 189.98 521.886 206.113 503.096 221.766C496.527 227.242 489.726 232.663 482.667 238.007C469.649 247.855 455.204 257.265 439.657 265.846C421.058 276.111 400.931 285.137 379.289 292.079C334.812 306.326 285.939 312.026 240.906 324.002C227.458 327.578 214.334 331.651 201.998 336.615M1021.75 -62.0501C1021.75 -62.0501 1009.67 -21.2695 910.696 -10.227C811.726 0.815541 748.427 -13.9681 657.681 65.9779C594.974 121.223 556.041 186.198 489.171 239.571C461.658 261.53 426.665 280.629 386.02 292.499C340.519 305.788 290.087 310.198 243.231 321.127C229.239 324.391 215.552 328.169 202.637 332.876" stroke="white" stroke-width="0.197078" stroke-miterlimit="10"/>
</g>
</svg>
