<svg width="16" height="16" viewBox="0 0 16 16" fill="none" xmlns="http://www.w3.org/2000/svg">
<g clip-path="url(#clip0_346_9961)">
<path fill-rule="evenodd" clip-rule="evenodd" d="M7.71982 1.73216C7.71982 0.929103 7.06806 0.277344 6.265 0.277344H2.38548C1.58242 0.277344 0.930664 0.929103 0.930664 1.73216V5.61168C0.930664 6.41474 1.58242 7.0665 2.38548 7.0665H6.265C7.06806 7.0665 7.71982 6.41474 7.71982 5.61168V1.73216ZM6.74994 1.73216V5.61168C6.74994 5.87937 6.53269 6.09662 6.265 6.09662H2.38548C2.1178 6.09662 1.90054 5.87937 1.90054 5.61168V1.73216C1.90054 1.46448 2.1178 1.24722 2.38548 1.24722H6.265C6.53269 1.24722 6.74994 1.46448 6.74994 1.73216ZM7.71982 9.4912C7.71982 8.68814 7.06806 8.03638 6.265 8.03638H2.38548C1.58242 8.03638 0.930664 8.68814 0.930664 9.4912V13.3707C0.930664 14.1738 1.58242 14.8255 2.38548 14.8255H6.265C7.06806 14.8255 7.71982 14.1738 7.71982 13.3707V9.4912ZM6.74994 9.4912V13.3707C6.74994 13.6384 6.53269 13.8557 6.265 13.8557H2.38548C2.1178 13.8557 1.90054 13.6384 1.90054 13.3707V9.4912C1.90054 9.22351 2.1178 9.00626 2.38548 9.00626H6.265C6.53269 9.00626 6.74994 9.22351 6.74994 9.4912ZM15.4789 1.73216C15.4789 0.929103 14.8271 0.277344 14.024 0.277344H10.1445C9.34146 0.277344 8.6897 0.929103 8.6897 1.73216V5.61168C8.6897 6.41474 9.34146 7.0665 10.1445 7.0665H14.024C14.8271 7.0665 15.4789 6.41474 15.4789 5.61168V1.73216ZM14.509 1.73216V5.61168C14.509 5.87937 14.2917 6.09662 14.024 6.09662H10.1445C9.87683 6.09662 9.65958 5.87937 9.65958 5.61168V1.73216C9.65958 1.46448 9.87683 1.24722 10.1445 1.24722H14.024C14.2917 1.24722 14.509 1.46448 14.509 1.73216ZM15.4789 9.4912C15.4789 8.68814 14.8271 8.03638 14.024 8.03638H10.1445C9.34146 8.03638 8.6897 8.68814 8.6897 9.4912V13.3707C8.6897 14.1738 9.34146 14.8255 10.1445 14.8255H14.024C14.8271 14.8255 15.4789 14.1738 15.4789 13.3707V9.4912ZM14.509 9.4912V13.3707C14.509 13.6384 14.2917 13.8557 14.024 13.8557H10.1445C9.87683 13.8557 9.65958 13.6384 9.65958 13.3707V9.4912C9.65958 9.22351 9.87683 9.00626 10.1445 9.00626H14.024C14.2917 9.00626 14.509 9.22351 14.509 9.4912Z" fill="black"/>
</g>
<defs>
<clipPath id="clip0_346_9961">
<rect width="15.5181" height="15.5181" fill="white" transform="translate(0.445801 0.125)"/>
</clipPath>
</defs>
</svg>
