<svg width="121" height="126" viewBox="0 0 121 126" fill="none" xmlns="http://www.w3.org/2000/svg">
<rect x="5" y="49.418" width="55.6477" height="53.7613" rx="14" transform="rotate(-62.1415 5 49.418)" fill="#0011B7" fill-opacity="0.1"/>
<g filter="url(#filter0_d_70_778)">
<circle cx="60.6478" cy="53.9808" r="29.2386" fill="white"/>
</g>
<g clip-path="url(#clip0_70_778)">
<path d="M49.0238 59.9229H47.06C46.7971 59.9229 46.584 60.136 46.584 60.3989V67.8513C46.584 68.1142 46.7971 68.3273 47.06 68.3273H49.0238C49.2867 68.3273 49.4998 68.1142 49.4998 67.8513V60.3989C49.4998 60.136 49.2867 59.9229 49.0238 59.9229Z" fill="#1E64D3"/>
<path d="M75.3014 62.5221L74.5873 62.0064C74.409 61.8792 74.2101 61.7834 73.9995 61.7233C73.7797 61.6608 73.5505 61.6386 73.3228 61.6579C73.6678 61.1113 73.9458 60.6246 74.0998 60.3161C74.1584 60.2033 74.1888 60.0779 74.1885 59.9508C74.1882 59.8236 74.1572 59.6984 74.0981 59.5858C74.0712 59.5362 74.0398 59.4891 74.0044 59.4452C73.9196 59.3388 73.8145 59.2503 73.6952 59.185C73.5759 59.1196 73.4448 59.0787 73.3095 59.0646C72.9817 59.031 72.6538 59.1266 72.3954 59.331L66.7528 64.1936C66.4025 64.2114 66.0512 64.1936 65.7045 64.1404C65.6426 64.1331 59.2207 63.2692 59.2207 63.2692C59.1434 63.2588 59.0688 63.2332 59.0013 63.1939C58.9339 63.1546 58.8748 63.1024 58.8275 63.0403C58.7802 62.9782 58.7456 62.9074 58.7257 62.832C58.7057 62.7565 58.7008 62.6778 58.7113 62.6004C58.7218 62.5231 58.7474 62.4485 58.7866 62.3811C58.8259 62.3136 58.8781 62.2545 58.9402 62.2072C59.0023 62.1599 59.0731 62.1253 59.1486 62.1054C59.2241 62.0854 59.3027 62.0806 59.3801 62.091L60.8168 62.2828C61.3924 62.3597 61.9779 62.2677 62.5022 62.0181C63.0264 61.7684 63.4669 61.3718 63.7699 60.8765C63.7968 60.8347 63.8125 60.7866 63.8154 60.737C63.8183 60.6874 63.8084 60.6378 63.7866 60.5931C63.7664 60.5483 63.7354 60.5091 63.6963 60.4792C63.6572 60.4493 63.6113 60.4296 63.5628 60.4218L55.9742 59.1993C55.5149 59.1252 55.0442 59.1779 54.6127 59.3517L50.6899 60.9321V66.9944L58.9493 68.6819C59.6378 68.8251 60.3485 68.8243 61.0367 68.6796C65.4211 67.7226 70.0767 65.8614 75.2728 62.9885C75.3145 62.9674 75.3498 62.9355 75.3749 62.8961C75.4 62.8567 75.414 62.8113 75.4156 62.7646C75.4187 62.7178 75.4099 62.671 75.3899 62.6286C75.3699 62.5861 75.3395 62.5495 75.3014 62.5221ZM56.2657 51.0152L59.104 56.8089H60.297V52.8595C59.8976 52.6965 59.5672 52.3998 59.3624 52.0202C59.1575 51.6405 59.0909 51.2015 59.174 50.7782C59.257 50.3549 59.4845 49.9736 59.8176 49.6995C60.1507 49.4254 60.5687 49.2755 61.0001 49.2755C61.4315 49.2755 61.8495 49.4254 62.1825 49.6995C62.5156 49.9736 62.7432 50.3549 62.8262 50.7782C62.9093 51.2015 62.8427 51.6405 62.6378 52.0202C62.433 52.3998 62.1026 52.6965 61.7032 52.8595V56.8087H62.8962L65.7321 51.0149C66.0412 50.2416 66.1561 49.4042 66.0667 48.5762C65.9773 47.7482 65.6863 46.9547 65.2193 46.2651C64.7523 45.5755 64.1234 45.0109 63.3877 44.6205C62.6519 44.2302 61.8318 44.0262 60.9989 44.0262C60.1661 44.0262 59.3459 44.2302 58.6102 44.6205C57.8745 45.0109 57.2456 45.5755 56.7786 46.2651C56.3115 46.9547 56.0206 47.7482 55.9312 48.5762C55.8418 49.4042 55.9566 50.2418 56.2657 51.0152ZM61.0001 42.9707C61.1149 42.9707 61.2286 42.9481 61.3347 42.9042C61.4408 42.8602 61.5372 42.7958 61.6184 42.7146C61.6996 42.6334 61.764 42.537 61.808 42.4309C61.8519 42.3248 61.8746 42.2111 61.8746 42.0963V40.5234C61.8746 40.2915 61.7824 40.069 61.6184 39.905C61.4544 39.7411 61.232 39.6489 61.0001 39.6489C60.7682 39.6489 60.5458 39.7411 60.3818 39.905C60.2178 40.069 60.1256 40.2915 60.1256 40.5234V42.0963C60.1256 42.3282 60.2178 42.5506 60.3818 42.7146C60.5458 42.8786 60.7682 42.9707 61.0001 42.9707ZM66.9818 44.9362L68.0942 43.8241C68.1771 43.7433 68.2431 43.6468 68.2884 43.5403C68.3338 43.4337 68.3575 43.3193 68.3582 43.2035C68.359 43.0877 68.3367 42.9729 68.2927 42.8658C68.2488 42.7587 68.184 42.6614 68.1021 42.5796C68.0202 42.4977 67.9229 42.4329 67.8158 42.3889C67.7087 42.345 67.594 42.3227 67.4782 42.3235C67.3624 42.3242 67.2479 42.3479 67.1414 42.3933C67.0349 42.4386 66.9384 42.5046 66.8576 42.5875L65.7453 43.6999C65.6623 43.7807 65.5963 43.8771 65.551 43.9837C65.5057 44.0902 65.4819 44.2047 65.4812 44.3205C65.4805 44.4362 65.5027 44.551 65.5467 44.6581C65.5906 44.7652 65.6554 44.8625 65.7373 44.9444C65.8192 45.0262 65.9165 45.091 66.0236 45.135C66.1307 45.179 66.2454 45.2012 66.3612 45.2005C66.477 45.1997 66.5915 45.176 66.698 45.1307C66.8045 45.0854 66.901 45.0193 66.9818 44.9364V44.9362ZM55.0184 54.4265L53.906 55.5388C53.8231 55.6197 53.7571 55.7161 53.7118 55.8227C53.6664 55.9292 53.6427 56.0437 53.642 56.1594C53.6412 56.2752 53.6635 56.39 53.7075 56.4971C53.7514 56.6042 53.8162 56.7015 53.8981 56.7834C53.9799 56.8652 54.0773 56.93 54.1844 56.974C54.2915 57.0179 54.4062 57.0402 54.522 57.0395C54.6378 57.0387 54.7522 57.015 54.8588 56.9697C54.9653 56.9243 55.0618 56.8583 55.1426 56.7754L56.2549 55.6633C56.3378 55.5825 56.4039 55.486 56.4492 55.3795C56.4945 55.273 56.5183 55.1585 56.519 55.0427C56.5197 54.9269 56.4975 54.8122 56.4535 54.7051C56.4096 54.598 56.3448 54.5007 56.2629 54.4188C56.181 54.3369 56.0837 54.2721 55.9766 54.2282C55.8695 54.1842 55.7547 54.1619 55.639 54.1627C55.5232 54.1634 55.4087 54.1871 55.3022 54.2325C55.1957 54.2778 55.0992 54.3436 55.0184 54.4265ZM67.7107 49.6813C67.7107 49.7962 67.7333 49.9099 67.7773 50.016C67.8212 50.1221 67.8856 50.2185 67.9668 50.2997C68.048 50.3809 68.1444 50.4453 68.2505 50.4892C68.3566 50.5332 68.4703 50.5558 68.5852 50.5558H70.1581C70.2741 50.5577 70.3893 50.5365 70.4971 50.4934C70.6048 50.4503 70.7029 50.3862 70.7856 50.3048C70.8684 50.2235 70.934 50.1264 70.9789 50.0194C71.0237 49.9124 71.0468 49.7975 71.0468 49.6815C71.0468 49.5654 71.0237 49.4505 70.9789 49.3435C70.934 49.2365 70.8684 49.1395 70.7856 49.0581C70.7029 48.9767 70.6048 48.9126 70.4971 48.8695C70.3893 48.8264 70.2741 48.8052 70.1581 48.8071H68.5852C68.3533 48.8071 68.1309 48.8992 67.9669 49.0632C67.8029 49.2271 67.7108 49.4495 67.7107 49.6813ZM51.8421 50.5558H53.415C53.531 50.5577 53.6463 50.5365 53.754 50.4934C53.8618 50.4503 53.9599 50.3862 54.0426 50.3048C54.1253 50.2235 54.191 50.1264 54.2358 50.0194C54.2807 49.9124 54.3038 49.7975 54.3038 49.6815C54.3038 49.5654 54.2807 49.4505 54.2358 49.3435C54.191 49.2365 54.1253 49.1395 54.0426 49.0581C53.9599 48.9767 53.8618 48.9126 53.754 48.8695C53.6463 48.8264 53.531 48.8052 53.415 48.8071H51.8421C51.7261 48.8052 51.6109 48.8264 51.5031 48.8695C51.3954 48.9126 51.2973 48.9767 51.2146 49.0581C51.1318 49.1395 51.0661 49.2365 51.0213 49.3435C50.9765 49.4505 50.9534 49.5654 50.9534 49.6815C50.9534 49.7975 50.9765 49.9124 51.0213 50.0194C51.0661 50.1264 51.1318 50.2235 51.2146 50.3048C51.2973 50.3862 51.3954 50.4503 51.5031 50.4934C51.6109 50.5365 51.7261 50.5577 51.8421 50.5558ZM65.7453 54.4265C65.5813 54.5905 65.4892 54.8129 65.4892 55.0448C65.4892 55.2767 65.5813 55.4991 65.7453 55.6631L66.8576 56.7752C66.9384 56.8581 67.0349 56.9241 67.1414 56.9694C67.2479 57.0148 67.3624 57.0385 67.4782 57.0392C67.594 57.04 67.7087 57.0177 67.8158 56.9738C67.9229 56.9298 68.0202 56.865 68.1021 56.7831C68.184 56.7013 68.2488 56.604 68.2927 56.4969C68.3367 56.3897 68.359 56.275 68.3582 56.1592C68.3575 56.0434 68.3338 55.929 68.2884 55.8224C68.2431 55.7159 68.1771 55.6194 68.0942 55.5386L66.9818 54.4263C66.8178 54.2623 66.5954 54.1703 66.3635 54.1703C66.1316 54.1704 65.9092 54.2625 65.7453 54.4265ZM55.0184 44.9362C55.0992 45.0191 55.1957 45.0851 55.3022 45.1305C55.4087 45.1758 55.5232 45.1995 55.639 45.2002C55.7547 45.201 55.8695 45.1787 55.9766 45.1348C56.0837 45.0908 56.181 45.026 56.2629 44.9441C56.3448 44.8623 56.4096 44.765 56.4535 44.6579C56.4975 44.5508 56.5197 44.436 56.519 44.3202C56.5183 44.2045 56.4945 44.09 56.4492 43.9834C56.4039 43.8769 56.3378 43.7804 56.2549 43.6996L55.1426 42.5873C55.0618 42.5044 54.9653 42.4383 54.8588 42.393C54.7522 42.3477 54.6378 42.324 54.522 42.3232C54.4062 42.3225 54.2915 42.3447 54.1844 42.3887C54.0773 42.4327 53.9799 42.4975 53.8981 42.5793C53.8162 42.6612 53.7514 42.7585 53.7075 42.8656C53.6635 42.9727 53.6412 43.0875 53.642 43.2033C53.6427 43.319 53.6664 43.4335 53.7118 43.54C53.7571 43.6466 53.8231 43.743 53.906 43.8238L55.0184 44.9362Z" fill="#1E64D3"/>
</g>
<defs>
<filter id="filter0_d_70_778" x="0.40918" y="4.74219" width="120.477" height="120.477" filterUnits="userSpaceOnUse" color-interpolation-filters="sRGB">
<feFlood flood-opacity="0" result="BackgroundImageFix"/>
<feColorMatrix in="SourceAlpha" type="matrix" values="0 0 0 0 0 0 0 0 0 0 0 0 0 0 0 0 0 0 127 0" result="hardAlpha"/>
<feMorphology radius="9" operator="erode" in="SourceAlpha" result="effect1_dropShadow_70_778"/>
<feOffset dy="11"/>
<feGaussianBlur stdDeviation="20"/>
<feComposite in2="hardAlpha" operator="out"/>
<feColorMatrix type="matrix" values="0 0 0 0 0.625 0 0 0 0 0.605781 0 0 0 0 0.601562 0 0 0 0.25 0"/>
<feBlend mode="normal" in2="BackgroundImageFix" result="effect1_dropShadow_70_778"/>
<feBlend mode="normal" in="SourceGraphic" in2="effect1_dropShadow_70_778" result="shape"/>
</filter>
<clipPath id="clip0_70_778">
<rect width="30" height="30" fill="white" transform="translate(46 39.2188)"/>
</clipPath>
</defs>
</svg>
