<svg width="14" height="14" viewBox="0 0 14 14" fill="none" xmlns="http://www.w3.org/2000/svg">
<path fill-rule="evenodd" clip-rule="evenodd" d="M13.6668 7.00065C13.6668 10.6827 10.6822 13.6673 7.00016 13.6673C3.31816 13.6673 0.333496 10.6827 0.333496 7.00065C0.333496 3.31865 3.31816 0.333984 7.00016 0.333984C10.6822 0.333984 13.6668 3.31865 13.6668 7.00065ZM7.00016 6.33398C7.17697 6.33398 7.34654 6.40422 7.47157 6.52925C7.59659 6.65427 7.66683 6.82384 7.66683 7.00065V10.334C7.66683 10.5108 7.59659 10.6804 7.47157 10.8054C7.34654 10.9304 7.17697 11.0007 7.00016 11.0007C6.82335 11.0007 6.65378 10.9304 6.52876 10.8054C6.40373 10.6804 6.3335 10.5108 6.3335 10.334V7.00065C6.3335 6.82384 6.40373 6.65427 6.52876 6.52925C6.65378 6.40422 6.82335 6.33398 7.00016 6.33398ZM7.00016 5.00065C7.17697 5.00065 7.34654 4.93041 7.47157 4.80539C7.59659 4.68036 7.66683 4.5108 7.66683 4.33398C7.66683 4.15717 7.59659 3.9876 7.47157 3.86258C7.34654 3.73756 7.17697 3.66732 7.00016 3.66732C6.82335 3.66732 6.65378 3.73756 6.52876 3.86258C6.40373 3.9876 6.3335 4.15717 6.3335 4.33398C6.3335 4.5108 6.40373 4.68036 6.52876 4.80539C6.65378 4.93041 6.82335 5.00065 7.00016 5.00065Z" fill="#525866"/>
</svg>
