<svg width="13" height="12" viewBox="0 0 13 12" fill="none" xmlns="http://www.w3.org/2000/svg">
<g clip-path="url(#clip0_560_3045)">
<path d="M3.79297 0.333V4.98L6.23159 5.75138C6.31904 5.77882 6.39537 5.83359 6.44937 5.90764C6.50337 5.98169 6.53219 6.07111 6.53159 6.16275V7.71412H8.50709C8.62068 7.71442 8.72953 7.75968 8.80985 7.83999C8.89017 7.92031 8.93542 8.02916 8.93572 8.14275V12H9.79297V0.333C9.79297 0.244683 9.75788 0.159983 9.69544 0.0975337C9.63299 0.035084 9.54829 2.11168e-07 9.45997 2.11168e-07H4.12634C4.08258 -4.90701e-05 4.03924 0.00852787 3.9988 0.0252406C3.95835 0.0419534 3.9216 0.0664742 3.89063 0.097401C3.85967 0.128328 3.83511 0.165054 3.81835 0.20548C3.80159 0.245906 3.79297 0.289238 3.79297 0.333ZM5.93572 5.14275H5.07922C5.02189 5.14445 4.9648 5.13462 4.91134 5.11385C4.85788 5.09308 4.80913 5.0618 4.76797 5.02185C4.72682 4.98189 4.69411 4.93409 4.67177 4.88126C4.64943 4.82844 4.63792 4.77167 4.63792 4.71431C4.63792 4.65696 4.64943 4.60019 4.67177 4.54736C4.69411 4.49454 4.72682 4.44673 4.76797 4.40678C4.80913 4.36683 4.85788 4.33554 4.91134 4.31477C4.9648 4.29401 5.02189 4.28418 5.07922 4.28588H5.93609C5.99342 4.28418 6.05051 4.29401 6.10397 4.31477C6.15744 4.33554 6.20619 4.36683 6.24734 4.40678C6.28849 4.44673 6.3212 4.49454 6.34354 4.54736C6.36588 4.60019 6.3774 4.65696 6.3774 4.71431C6.3774 4.77167 6.36588 4.82844 6.34354 4.88126C6.3212 4.93409 6.28849 4.98189 6.24734 5.02185C6.20619 5.0618 6.15744 5.09308 6.10397 5.11385C6.05051 5.13462 5.99342 5.14445 5.93609 5.14275H5.93572ZM5.93572 3.42863H5.07922C4.96554 3.42863 4.85652 3.38347 4.77613 3.30308C4.69575 3.2227 4.65059 3.11368 4.65059 3C4.65059 2.88632 4.69575 2.7773 4.77613 2.69692C4.85652 2.61653 4.96554 2.57138 5.07922 2.57138H5.93609C6.04977 2.57138 6.15879 2.61653 6.23918 2.69692C6.31956 2.7773 6.36472 2.88632 6.36472 3C6.36472 3.11368 6.31956 3.2227 6.23918 3.30308C6.15879 3.38347 6.04977 3.42863 5.93609 3.42863H5.93572ZM5.93572 1.71413H5.07922C5.02189 1.71582 4.9648 1.70599 4.91134 1.68523C4.85788 1.66446 4.80913 1.63317 4.76797 1.59322C4.72682 1.55327 4.69411 1.50546 4.67177 1.45264C4.64943 1.39981 4.63792 1.34304 4.63792 1.28569C4.63792 1.22833 4.64943 1.17156 4.67177 1.11874C4.69411 1.06591 4.72682 1.01811 4.76797 0.978155C4.80913 0.938203 4.85788 0.906917 4.91134 0.886149C4.9648 0.865381 5.02189 0.855554 5.07922 0.85725H5.93609C5.99342 0.855554 6.05051 0.865381 6.10397 0.886149C6.15744 0.906917 6.20619 0.938203 6.24734 0.978155C6.28849 1.01811 6.3212 1.06591 6.34354 1.11874C6.36588 1.17156 6.3774 1.22833 6.3774 1.28569C6.3774 1.34304 6.36588 1.39981 6.34354 1.45264C6.3212 1.50546 6.28849 1.55327 6.24734 1.59322C6.20619 1.63317 6.15744 1.66446 6.10397 1.68523C6.05051 1.70599 5.99342 1.71582 5.93609 1.71413H5.93572ZM8.50709 6.85725H7.65022C7.53654 6.85725 7.42752 6.81209 7.34714 6.73171C7.26675 6.65133 7.22159 6.5423 7.22159 6.42863C7.22159 6.31495 7.26675 6.20592 7.34714 6.12554C7.42752 6.04516 7.53654 6 7.65022 6H8.50747C8.62115 6 8.73017 6.04516 8.81055 6.12554C8.89093 6.20592 8.93609 6.31495 8.93609 6.42863C8.93609 6.5423 8.89093 6.65133 8.81055 6.73171C8.73017 6.81209 8.62115 6.85725 8.50747 6.85725H8.50709ZM8.50709 5.14275H7.65022C7.53878 5.13945 7.43302 5.09287 7.35536 5.01288C7.27771 4.93289 7.23427 4.8258 7.23427 4.71431C7.23427 4.60283 7.27771 4.49573 7.35536 4.41574C7.43302 4.33576 7.53878 4.28917 7.65022 4.28588H8.50747C8.5648 4.28418 8.62189 4.29401 8.67535 4.31477C8.72881 4.33554 8.77756 4.36683 8.81871 4.40678C8.85987 4.44673 8.89258 4.49454 8.91492 4.54736C8.93726 4.60019 8.94877 4.65696 8.94877 4.71431C8.94877 4.77167 8.93726 4.82844 8.91492 4.88126C8.89258 4.93409 8.85987 4.98189 8.81871 5.02185C8.77756 5.0618 8.72881 5.09308 8.67535 5.11385C8.62189 5.13462 8.5648 5.14445 8.50747 5.14275H8.50709ZM8.50709 3.42863H7.65022C7.53654 3.42863 7.42752 3.38347 7.34714 3.30308C7.26675 3.2227 7.22159 3.11368 7.22159 3C7.22159 2.88632 7.26675 2.7773 7.34714 2.69692C7.42752 2.61653 7.53654 2.57138 7.65022 2.57138H8.50747C8.56376 2.57138 8.61949 2.58246 8.6715 2.604C8.7235 2.62554 8.77075 2.65711 8.81055 2.69692C8.85035 2.73672 8.88193 2.78397 8.90347 2.83597C8.92501 2.88798 8.93609 2.94371 8.93609 3C8.93609 3.05629 8.92501 3.11203 8.90347 3.16403C8.88193 3.21603 8.85035 3.26328 8.81055 3.30308C8.77075 3.34289 8.7235 3.37446 8.6715 3.396C8.61949 3.41754 8.56376 3.42863 8.50747 3.42863H8.50709ZM8.50709 1.71413H7.65022C7.53878 1.71083 7.43302 1.66424 7.35536 1.58426C7.27771 1.50427 7.23427 1.39717 7.23427 1.28569C7.23427 1.1742 7.27771 1.06711 7.35536 0.98712C7.43302 0.907132 7.53878 0.860547 7.65022 0.85725H8.50747C8.5648 0.855554 8.62189 0.865381 8.67535 0.886149C8.72881 0.906917 8.77756 0.938203 8.81871 0.978155C8.85987 1.01811 8.89258 1.06591 8.91492 1.11874C8.93726 1.17156 8.94877 1.22833 8.94877 1.28569C8.94877 1.34304 8.93726 1.39981 8.91492 1.45264C8.89258 1.50546 8.85987 1.55327 8.81871 1.59322C8.77756 1.63317 8.72881 1.66446 8.67535 1.68523C8.62189 1.70599 8.5648 1.71582 8.50747 1.71413H8.50709Z" fill="white"/>
<path d="M3.23504 5.70421L0.79229 6.47634V9.55771C0.780241 9.9058 0.853764 10.2515 1.00642 10.5646C1.54229 11.6273 2.89229 11.9315 3.23504 11.9963C3.57817 11.9318 4.92367 11.6277 5.45954 10.5605C5.61135 10.2531 5.68491 9.91306 5.67367 9.57046V6.47634L3.23504 5.70421ZM5.03092 8.08734L3.35954 9.75384C3.32042 9.79453 3.27348 9.82691 3.22155 9.84903C3.16961 9.87114 3.11374 9.88254 3.05729 9.88254C3.00084 9.88254 2.94497 9.87114 2.89303 9.84903C2.8411 9.82691 2.79416 9.79453 2.75504 9.75384L1.86854 8.87146C1.82882 8.83182 1.79731 8.78474 1.77581 8.73291C1.75431 8.68108 1.74324 8.62551 1.74324 8.5694C1.74324 8.51328 1.75431 8.45772 1.77581 8.40589C1.79731 8.35406 1.82882 8.30697 1.86854 8.26734C1.94946 8.18703 2.05885 8.14196 2.17285 8.14196C2.28686 8.14196 2.39625 8.18703 2.47717 8.26734L3.05992 8.84596L4.42267 7.48284C4.50359 7.40253 4.61297 7.35746 4.72698 7.35746C4.84099 7.35746 4.95037 7.40253 5.03129 7.48284C5.07107 7.52248 5.10262 7.56959 5.12416 7.62145C5.14569 7.67332 5.15678 7.72893 5.15678 7.78509C5.15678 7.84125 5.14569 7.89685 5.12416 7.94872C5.10262 8.00058 5.07069 8.04769 5.03092 8.08734ZM5.50679 12.0001V11.8647C5.80351 11.6084 6.04744 11.2967 6.22492 10.9471C6.44045 10.5169 6.54573 10.0398 6.53129 9.55884V8.57146H8.07817V12.0001H5.50679ZM10.6495 3.76171V12.0001H12.7923V3.76171C12.7923 3.67339 12.7572 3.58869 12.6948 3.52624C12.6323 3.4638 12.5476 3.42871 12.4593 3.42871H10.9825C10.8942 3.42871 10.8095 3.4638 10.7471 3.52624C10.6846 3.58869 10.6495 3.67339 10.6495 3.76171ZM11.935 10.7142H11.5064C11.395 10.7109 11.2892 10.6643 11.2116 10.5843C11.1339 10.5044 11.0905 10.3973 11.0905 10.2858C11.0905 10.1743 11.1339 10.0672 11.2116 9.98721C11.2892 9.90722 11.395 9.86063 11.5064 9.85734H11.935C11.9924 9.85564 12.0495 9.86547 12.1029 9.88623C12.1564 9.907 12.2051 9.93829 12.2463 9.97824C12.2874 10.0182 12.3202 10.066 12.3425 10.1188C12.3648 10.1716 12.3763 10.2284 12.3763 10.2858C12.3763 10.3431 12.3648 10.3999 12.3425 10.4527C12.3202 10.5056 12.2874 10.5534 12.2463 10.5933C12.2051 10.6333 12.1564 10.6645 12.1029 10.6853C12.0495 10.7061 11.9924 10.7159 11.935 10.7142ZM11.935 9.00009H11.5064C11.3927 9.00009 11.2837 8.95493 11.2033 8.87454C11.1229 8.79416 11.0778 8.68514 11.0778 8.57146C11.0778 8.45778 11.1229 8.34876 11.2033 8.26838C11.2837 8.18799 11.3927 8.14284 11.5064 8.14284H11.935C12.0487 8.14284 12.1577 8.18799 12.2381 8.26838C12.3185 8.34876 12.3637 8.45778 12.3637 8.57146C12.3637 8.68514 12.3185 8.79416 12.2381 8.87454C12.1577 8.95493 12.0487 9.00009 11.935 9.00009ZM11.935 7.28596H11.5064C11.3927 7.28596 11.2837 7.2408 11.2033 7.16042C11.1229 7.08004 11.0778 6.97101 11.0778 6.85734C11.0778 6.74366 11.1229 6.63464 11.2033 6.55425C11.2837 6.47387 11.3927 6.42871 11.5064 6.42871H11.935C11.9913 6.42871 12.0471 6.4398 12.0991 6.46134C12.1511 6.48288 12.1983 6.51445 12.2381 6.55425C12.2779 6.59405 12.3095 6.64131 12.331 6.69331C12.3526 6.74531 12.3637 6.80105 12.3637 6.85734C12.3637 6.91362 12.3526 6.96936 12.331 7.02136C12.3095 7.07337 12.2779 7.12062 12.2381 7.16042C12.1983 7.20022 12.1511 7.23179 12.0991 7.25333C12.0471 7.27487 11.9913 7.28596 11.935 7.28596ZM11.935 5.57146H11.5064C11.3927 5.57146 11.2837 5.5263 11.2033 5.44592C11.1229 5.36554 11.0778 5.25651 11.0778 5.14284C11.0778 5.02916 11.1229 4.92014 11.2033 4.83975C11.2837 4.75937 11.3927 4.71421 11.5064 4.71421H11.935C11.9913 4.71421 12.0471 4.7253 12.0991 4.74684C12.1511 4.76838 12.1983 4.79995 12.2381 4.83975C12.2779 4.87955 12.3095 4.92681 12.331 4.97881C12.3526 5.03081 12.3637 5.08655 12.3637 5.14284C12.3637 5.19912 12.3526 5.25486 12.331 5.30686C12.3095 5.35887 12.2779 5.40612 12.2381 5.44592C12.1983 5.48572 12.1511 5.51729 12.0991 5.53883C12.0471 5.56037 11.9913 5.57146 11.935 5.57146Z" fill="white"/>
</g>
<defs>
<clipPath id="clip0_560_3045">
<rect width="12" height="12" fill="white" transform="translate(0.792969)"/>
</clipPath>
</defs>
</svg>
