<svg width="14" height="14" viewBox="0 0 14 14" fill="none" xmlns="http://www.w3.org/2000/svg">
<path fill-rule="evenodd" clip-rule="evenodd" d="M7.43404 3.23782C7.31033 3.11411 7.13945 3.03731 6.95135 3.03731H5.31337C4.93714 3.03731 4.63017 3.34425 4.63017 3.72051V4.15107C4.63017 4.16758 4.64361 4.18102 4.66012 4.18102H5.08837C5.09631 4.181 5.10392 4.17784 5.10954 4.17223C5.11515 4.16661 5.11831 4.159 5.11833 4.15107V3.72051C5.11833 3.61375 5.20658 3.5255 5.31333 3.5255H6.95132C7.05807 3.5255 7.14633 3.61372 7.14633 3.72051V4.15107C7.14633 4.16758 7.15977 4.18102 7.17628 4.18102H7.60454C7.61247 4.181 7.62008 4.17784 7.6257 4.17223C7.63131 4.16661 7.63447 4.159 7.63449 4.15107V3.72051C7.63452 3.53241 7.55775 3.36153 7.43404 3.23782ZM11.7175 10.778C11.7625 10.733 11.8375 10.733 11.8824 10.778L13.7335 12.629C13.7784 12.6739 13.7784 12.749 13.7335 12.7939L12.7949 13.7325C12.7499 13.7774 12.6749 13.7774 12.63 13.7325L10.779 11.8815C10.734 11.8365 10.734 11.7615 10.779 11.7166L10.9711 11.5245C10.9767 11.5189 10.9799 11.5112 10.9799 11.5033C10.9799 11.4953 10.9767 11.4877 10.9711 11.4821L10.0597 10.5707C10.0543 10.5653 10.0471 10.5622 10.0395 10.562C10.0319 10.5617 10.0245 10.5644 10.0188 10.5694C7.6951 12.6083 4.16597 12.5075 1.96114 10.3026C-0.342506 7.999 -0.342538 4.26387 1.96117 1.96015C4.26482 -0.343494 7.99996 -0.343494 10.3036 1.96019C12.5084 4.16499 12.6093 7.69411 10.5704 10.0178C10.5654 10.0235 10.5627 10.0309 10.5629 10.0385C10.5632 10.0461 10.5663 10.0533 10.5717 10.0587L11.4831 10.9701C11.4887 10.9757 11.4963 10.9789 11.5043 10.9789C11.5122 10.9789 11.5198 10.9757 11.5255 10.9701L11.7175 10.778ZM9.6454 2.61833C11.5857 4.55859 11.5857 7.70422 9.64543 9.64444C7.70514 11.5847 4.55951 11.5847 2.61929 9.64447C0.67903 7.70422 0.67903 4.55859 2.61925 2.61833C4.55951 0.678106 7.70517 0.678074 9.6454 2.61833ZM8.93218 5.94598L6.7437 7.11836C6.3502 7.32918 5.91449 7.32918 5.52098 7.11836L3.3325 5.94598C3.32297 5.94086 3.31225 5.94111 3.30297 5.94668C3.29369 5.95225 3.28841 5.96156 3.28841 5.97238V8.22207C3.28841 8.3894 3.42617 8.52716 3.59349 8.52716H8.67122C8.83855 8.52716 8.97631 8.3894 8.97631 8.22207V5.97238C8.97638 5.96719 8.97507 5.96207 8.97251 5.95756C8.96995 5.95304 8.96624 5.94929 8.96175 5.94668C8.95733 5.94395 8.95226 5.94245 8.94706 5.94232C8.94187 5.9422 8.93673 5.94346 8.93218 5.94598ZM8.67122 4.66921H3.59349C3.4262 4.66921 3.28841 4.80697 3.28841 4.9743V5.35273C3.28841 5.36406 3.29423 5.37379 3.30421 5.37913L5.74981 6.68927C5.99615 6.82124 6.2685 6.82124 6.51487 6.68927L8.96047 5.37913C8.96529 5.37663 8.96933 5.37283 8.97212 5.36817C8.97491 5.36351 8.97635 5.35816 8.97628 5.35273V4.9743C8.97628 4.807 8.83852 4.66921 8.67122 4.66921Z" fill="#525866"/>
</svg>
