<svg width="24" height="25" viewBox="0 0 24 25" fill="none" xmlns="http://www.w3.org/2000/svg">
<path d="M15 7C14.7348 7 14.4804 6.89464 14.2929 6.70711C14.1054 6.51957 14 6.26522 14 6V4.5H10V6C10 6.26522 9.89464 6.51957 9.70711 6.70711C9.51957 6.89464 9.26522 7 9 7C8.73478 7 8.48043 6.89464 8.29289 6.70711C8.10536 6.51957 8 6.26522 8 6V4.5C8 3.397 8.897 2.5 10 2.5H14C15.103 2.5 16 3.397 16 4.5V6C16 6.26522 15.8946 6.51957 15.7071 6.70711C15.5196 6.89464 15.2652 7 15 7ZM12.71 15.88C12.2293 16.0452 11.7061 16.0381 11.23 15.86L0 12.12V19.75C0 21.27 1.23 22.5 2.75 22.5H21.25C22.77 22.5 24 21.27 24 19.75V12.12L12.71 15.88Z" fill="white"/>
<path d="M24 8.25V10.54L12.24 14.46C12.16 14.49 12.08 14.5 12 14.5C11.92 14.5 11.84 14.49 11.76 14.46L0 10.54V8.25C0 6.73 1.23 5.5 2.75 5.5H21.25C22.77 5.5 24 6.73 24 8.25Z" fill="white"/>
</svg>
