<svg width="13" height="10" viewBox="0 0 13 10" fill="none" xmlns="http://www.w3.org/2000/svg">
<path d="M11.3953 0.694336H1.6047C0.98743 0.694336 0.5 1.19566 0.5 1.79904V8.20059C0.5 8.81784 1.00133 9.30527 1.6047 9.30527H11.3953C12.0126 9.30527 12.5 8.80395 12.5 8.20057V1.79904C12.5 1.18174 11.9987 0.694336 11.3953 0.694336ZM5.74686 7.79904H2.73437C2.54021 7.79904 2.3828 7.64163 2.3828 7.44748C2.3828 6.77587 2.74102 6.18642 3.27641 5.86003C3.07215 5.6313 2.94767 5.32987 2.94767 4.99983C2.94767 4.28688 3.52768 3.70685 4.24063 3.70685C4.95357 3.70685 5.5336 4.28688 5.5336 4.99983C5.5336 5.3299 5.40913 5.63133 5.20484 5.86005C5.74023 6.18645 6.09845 6.77592 6.09845 7.4475C6.09842 7.64163 5.94102 7.79904 5.74686 7.79904ZM9.51249 7.79904H7.62969C7.43553 7.79904 7.27813 7.64163 7.27813 7.44748C7.27813 7.25332 7.43553 7.09591 7.62969 7.09591H9.51249C9.70665 7.09591 9.86405 7.25332 9.86405 7.44748C9.86405 7.64163 9.70665 7.79904 9.51249 7.79904ZM10.2656 6.29278H7.62969C7.43553 6.29278 7.27813 6.13537 7.27813 5.94122C7.27813 5.74706 7.43553 5.58966 7.62969 5.58966H10.2656C10.4598 5.58966 10.6172 5.74706 10.6172 5.94122C10.6172 6.13537 10.4598 6.29278 10.2656 6.29278ZM10.2656 4.78652H7.62969C7.43553 4.78652 7.27813 4.62912 7.27813 4.43496C7.27813 4.2408 7.43553 4.0834 7.62969 4.0834H10.2656C10.4598 4.0834 10.6172 4.2408 10.6172 4.43496C10.6172 4.62912 10.4598 4.78652 10.2656 4.78652ZM10.2656 2.9037H2.73437C2.54021 2.9037 2.3828 2.74629 2.3828 2.55213C2.3828 2.35798 2.54021 2.20057 2.73437 2.20057H10.2656C10.4598 2.20057 10.6172 2.35798 10.6172 2.55213C10.6172 2.74629 10.4598 2.9037 10.2656 2.9037Z" fill="white"/>
</svg>
