<svg width="22" height="21" viewBox="0 0 22 21" fill="none" xmlns="http://www.w3.org/2000/svg">
<path d="M18.3874 9.62272C18.2283 9.62272 18.0757 9.68593 17.9632 9.79845C17.8507 9.91098 17.7874 10.0636 17.7874 10.2227V16.4447C17.7864 17.2284 17.4746 17.9796 16.9205 18.5338C16.3663 19.0879 15.6151 19.3997 14.8314 19.4007H5.05444C4.27078 19.3997 3.51953 19.0879 2.9654 18.5338C2.41127 17.9796 2.0995 17.2284 2.09844 16.4447V6.66772C2.0995 5.88406 2.41127 5.13281 2.9654 4.57868C3.51953 4.02455 4.27078 3.71278 5.05444 3.71172H11.2764C11.4356 3.71172 11.5882 3.6485 11.7007 3.53598C11.8132 3.42346 11.8764 3.27085 11.8764 3.11172C11.8764 2.95259 11.8132 2.79998 11.7007 2.68745C11.5882 2.57493 11.4356 2.51172 11.2764 2.51172H5.05444C3.9527 2.51278 2.89637 2.95084 2.11722 3.7298C1.33808 4.50875 0.899761 5.56498 0.898438 6.66672V16.4437C0.899761 17.5455 1.33808 18.6017 2.11722 19.3806C2.89637 20.1596 3.9527 20.5977 5.05444 20.5987H14.8314C15.933 20.5974 16.9891 20.1592 17.768 19.3803C18.5469 18.6014 18.9851 17.5453 18.9864 16.4437V10.2217C18.9864 10.0626 18.9232 9.90998 18.8107 9.79745C18.6982 9.68493 18.5456 9.62172 18.3864 9.62172L18.3874 9.62272Z" fill="#1E64D3"/>
<path d="M20.4998 0.400391H15.6978C15.5387 0.400391 15.386 0.463605 15.2735 0.576127C15.161 0.688649 15.0978 0.841261 15.0978 1.00039C15.0978 1.15952 15.161 1.31213 15.2735 1.42465C15.386 1.53718 15.5387 1.60039 15.6978 1.60039H19.0518L11.3798 9.27139C11.2738 9.38513 11.2161 9.53557 11.2188 9.69101C11.2216 9.84645 11.2846 9.99476 11.3945 10.1047C11.5044 10.2146 11.6527 10.2776 11.8082 10.2803C11.9636 10.2831 12.114 10.2254 12.2278 10.1194L19.8988 2.44839V5.83239C19.8988 5.99152 19.962 6.14413 20.0745 6.25665C20.187 6.36918 20.3397 6.43239 20.4988 6.43239C20.6579 6.43239 20.8105 6.36918 20.923 6.25665C21.0356 6.14413 21.0988 5.99152 21.0988 5.83239V1.00039C21.0988 0.841261 21.0356 0.688649 20.923 0.576127C20.8105 0.463605 20.6589 0.400391 20.4998 0.400391Z" fill="#1E64D3"/>
</svg>
