<svg width="21" height="21" viewBox="0 0 21 21" fill="none" xmlns="http://www.w3.org/2000/svg">
<g clip-path="url(#clip0_1_20406)">
<path d="M10.4592 0.21875C6.78322 0.21875 3.79248 3.20949 3.79248 6.88543C3.79248 7.98895 4.06838 9.08309 4.59287 10.0536L10.0946 20.0039C10.1678 20.1366 10.3074 20.2188 10.4592 20.2188C10.6109 20.2188 10.7505 20.1366 10.8237 20.0039L16.3275 10.0503C16.8499 9.08309 17.1258 7.98891 17.1258 6.88539C17.1258 3.20949 14.1351 0.21875 10.4592 0.21875ZM10.4592 10.2188C8.62119 10.2188 7.12584 8.7234 7.12584 6.88543C7.12584 5.04746 8.62119 3.55211 10.4592 3.55211C12.2971 3.55211 13.7925 5.04746 13.7925 6.88543C13.7925 8.7234 12.2971 10.2188 10.4592 10.2188Z" fill="#1E64D3"/>
</g>
<defs>
<clipPath id="clip0_1_20406">
<rect width="20" height="20" fill="white" transform="translate(0.458496 0.21875)"/>
</clipPath>
</defs>
</svg>
