<svg width="51" height="64" viewBox="0 0 51 64" fill="none" xmlns="http://www.w3.org/2000/svg">
<path opacity="0.1" d="M39.5 32.9603C45 45.9603 66 58.4603 31 63.9603C13.8792 63.9603 0 50.0811 0 32.9603C8.5 11.9603 2.16961 -12.9435 29.5 8.92085C39.5 16.9209 52.5 17.4212 39.5 32.9603Z" fill="#0E46A3"/>
<g clip-path="url(#clip0_2_1213)">
<path d="M33.0966 21.7228C32.9994 20.5921 32.004 19.7542 30.8734 19.8514C29.9873 19.9276 29.2812 20.5554 29.0639 21.3677H27.6065C27.3132 21.3677 27.0754 21.6054 27.0754 21.8987C27.0754 22.1921 27.3133 22.4298 27.6065 22.4298H29.0645C29.3164 23.3752 30.2167 24.0328 31.2253 23.946C32.3561 23.8488 33.1939 22.8534 33.0966 21.7228ZM21.099 25.709C20.6884 25.709 20.3555 26.0419 20.3555 26.4525V26.8219L21.9582 26.828C22.314 26.8289 22.662 26.933 22.9597 27.1278V25.709H21.099ZM27.4378 32.4168C26.5129 32.6477 25.5743 32.0841 25.3434 31.1589C25.1127 30.2347 25.6769 29.2951 26.6012 29.0644L27.9319 28.7323V26.4525C27.9319 26.0419 27.599 25.709 27.1884 25.709H25.3276V29.0079L24.933 28.6132L24.5384 29.0079L24.1438 28.6132L23.773 28.984C23.6257 29.8605 22.8621 30.5269 21.9443 30.5233L20.3556 30.5173V32.5418C20.3556 32.9524 20.6885 33.2853 21.099 33.2853H27.1885C27.599 33.2853 27.932 32.9524 27.932 32.5418V32.2934L27.4378 32.4168Z" fill="#1E64D3"/>
<path d="M36.0347 41.9261L34.2543 37.2056L34.9213 32.9573C34.9294 32.906 34.9548 33.2899 34.3795 25.8127C34.3138 25.0489 33.6413 24.483 32.8775 24.5486L30.4112 24.7606C29.6474 24.8263 29.0815 25.4988 29.1471 26.2626L29.3294 28.3836L30.9774 26.0843L29.9193 29.0574L26.7947 29.8372C26.2944 29.9621 25.9926 30.4683 26.1169 30.966C26.2404 31.4611 26.744 31.769 27.2457 31.6438L30.8545 30.7431C31.1449 30.6706 31.3979 30.456 31.5062 30.152L32.6747 26.8688L32.2979 30.2405C32.2516 30.6544 31.8139 31.3247 31.0475 31.516L29.6293 31.87L29.717 32.8905L28.1814 36.2885C28.1506 36.3567 28.1267 36.4279 28.1101 36.5009L26.8433 42.0728C26.7065 42.6745 27.0834 43.273 27.685 43.4098C28.2868 43.5466 28.8853 43.1696 29.022 42.5681L30.2637 37.1059L32.0462 33.1615L32.6355 33.1109L32.0013 37.1506C31.9712 37.3416 31.9913 37.5372 32.0596 37.7181L33.9441 42.7146C34.1618 43.2918 34.8063 43.5834 35.3836 43.3656C35.9609 43.1479 36.2524 42.5034 36.0347 41.9261ZM21.9556 27.6601L19.0738 27.6492L17.5236 25.6683L18.9809 26.7461V25.7858C18.9809 25.0552 18.3886 24.4629 17.658 24.4629H15.2354C14.5047 24.4629 13.9125 25.0552 13.9125 25.7858C13.9125 41.6459 13.861 24.1557 13.9161 42.2975C13.918 42.9281 14.4297 43.4379 15.0597 43.4379L15.0632 43.4378C15.6949 43.4359 16.2054 42.9223 16.2034 42.2906C16.1741 32.6216 16.2115 33.2648 16.2034 33.1784H16.6928L16.6935 42.2942C16.6935 42.9258 17.2056 43.4378 17.8373 43.4378C18.4689 43.4377 18.981 42.9257 18.9809 42.2939L18.9808 30.512L18.1785 30.5089C17.7024 30.5071 17.295 30.2148 17.1225 29.8014L15.9242 26.9198L17.7779 29.2885C17.8725 29.4093 17.9932 29.5072 18.1311 29.5747C18.2689 29.6422 18.4202 29.6775 18.5737 29.6781L21.948 29.6909C22.5087 29.6931 22.965 29.2401 22.9672 28.6793C22.9693 28.1186 22.517 27.6622 21.9556 27.6601Z" fill="#1E64D3"/>
<path d="M17.0418 23.646C18.2039 23.646 19.146 22.7039 19.146 21.5418C19.146 20.3796 18.2039 19.4375 17.0418 19.4375C15.8796 19.4375 14.9375 20.3796 14.9375 21.5418C14.9375 22.7039 15.8796 23.646 17.0418 23.646Z" fill="#1E64D3"/>
</g>
<defs>
<clipPath id="clip0_2_1213">
<rect width="24" height="24" fill="white" transform="translate(13 19.4375)"/>
</clipPath>
</defs>
</svg>
