<svg width="30" height="30" viewBox="0 0 30 30" fill="none" xmlns="http://www.w3.org/2000/svg">
<path fill-rule="evenodd" clip-rule="evenodd" d="M28.4852 16.3778C28.597 16.3778 28.7041 16.4222 28.7832 16.5013C28.8622 16.5803 28.9066 16.6875 28.9066 16.7993C28.9066 16.911 28.8622 17.0182 28.7832 17.0973C28.7041 17.1763 28.597 17.2207 28.4852 17.2207H27.2471C27.1354 17.2207 27.0282 17.1763 26.9491 17.0973C26.8701 17.0182 26.8257 16.911 26.8257 16.7993C26.8257 16.6875 26.8701 16.5803 26.9491 16.5013C27.0282 16.4222 27.1354 16.3778 27.2471 16.3778H28.4852ZM6.40986 26.7191V20.28C6.40986 20.0676 6.23454 19.8924 6.0222 19.8924H4.12824C3.91584 19.8924 3.74058 20.0677 3.74058 20.28V26.7191C3.74058 26.9315 3.9159 27.1068 4.12824 27.1068H6.0222C6.23454 27.1068 6.40986 26.9315 6.40986 26.7191ZM16.661 20.9183H12.0955V20.9178C12.0588 20.9178 12.0222 20.9129 11.9868 20.9034C10.2902 20.4499 8.96286 20.3949 7.30374 20.5473C7.28977 20.5486 7.27677 20.555 7.26732 20.5654C7.25786 20.5758 7.25264 20.5893 7.25268 20.6033V25.9614C7.25268 25.991 7.2753 26.0153 7.30476 26.0175C7.61004 26.04 7.92324 26.0657 8.24844 26.0948C11.6113 26.3961 14.7796 27.7112 18.0329 26.408C18.7421 26.1239 19.4296 25.7493 20.2807 25.2579L20.2811 25.2587L26.648 20.8098C26.6553 20.8049 26.6627 20.8003 26.6702 20.796C27.368 20.393 27.2506 19.3244 26.4482 19.1094C26.2186 19.0479 25.9667 19.0728 25.748 19.1991L20.2444 22.3767C20.2323 22.3836 20.1561 22.4293 20.0609 22.4859C19.8814 22.5925 16.8803 23.705 16.6611 23.705H12.0955C11.9837 23.705 11.8766 23.6606 11.7975 23.5816C11.7185 23.5025 11.6741 23.3954 11.6741 23.2836C11.6741 23.1718 11.7185 23.0646 11.7975 22.9856C11.8766 22.9065 11.9837 22.8621 12.0955 22.8621H16.6611C17.5215 22.8621 17.962 21.819 17.3472 21.2042C17.1708 21.0277 16.9279 20.9183 16.661 20.9183ZM20.7049 11.9207C20.7049 11.5541 20.4035 11.2526 20.0368 11.2526H9.96306C9.59646 11.2526 9.29496 11.554 9.29496 11.9207V12.7107C9.29496 12.732 9.30588 12.7502 9.3246 12.7602L14.2116 15.3783C14.7193 15.6502 15.2807 15.6502 15.7883 15.3783L20.6753 12.7602C20.6843 12.7555 20.6919 12.7484 20.6971 12.7397C20.7024 12.731 20.7051 12.7209 20.7049 12.7107V11.9207ZM17.9173 10.3536V9.4333C17.9173 8.72158 17.3365 8.14072 16.6247 8.14072H13.3751C12.6634 8.14072 12.0826 8.72152 12.0826 9.4333V10.3536C12.0826 10.3845 12.1078 10.4097 12.1387 10.4097H12.8692C12.9002 10.4097 12.9254 10.3845 12.9254 10.3536V9.4333C12.9254 9.18682 13.1286 8.9836 13.3751 8.9836H16.6247C16.8712 8.9836 17.0744 9.18682 17.0744 9.4333V10.3536C17.0744 10.3845 17.0996 10.4097 17.1305 10.4097H17.861C17.8921 10.4097 17.9173 10.3845 17.9173 10.3536ZM20.6222 13.7411C20.6401 13.7315 20.6602 13.732 20.6776 13.7424C20.695 13.7529 20.7049 13.7703 20.7049 13.7906V18.3639C20.7049 18.7305 20.4034 19.032 20.0368 19.032H9.96306C9.59646 19.032 9.29496 18.7305 9.29496 18.3639V13.7906C9.29496 13.7703 9.30486 13.7529 9.32226 13.7424C9.33054 13.7373 9.34004 13.7345 9.34977 13.7343C9.35951 13.734 9.36913 13.7364 9.37764 13.7411L13.8165 16.1191C14.5782 16.5272 15.4216 16.5272 16.1833 16.1191L20.6222 13.7411ZM1.5147 17.2207C1.40293 17.2207 1.29573 17.1763 1.2167 17.0973C1.13766 17.0182 1.09326 16.911 1.09326 16.7993C1.09326 16.6875 1.13766 16.5803 1.2167 16.5013C1.29573 16.4222 1.40293 16.3778 1.5147 16.3778H2.75274C2.86451 16.3778 2.97171 16.4222 3.05074 16.5013C3.12978 16.5803 3.17418 16.6875 3.17418 16.7993C3.17418 16.911 3.12978 17.0182 3.05074 17.0973C2.97171 17.1763 2.86451 17.2207 2.75274 17.2207H1.5147ZM3.11232 10.4204C3.01737 10.3642 2.94838 10.2728 2.9203 10.1661C2.89221 10.0594 2.9073 9.94592 2.96228 9.85024C3.01726 9.75456 3.10772 9.68439 3.21406 9.65492C3.32041 9.62546 3.43408 9.63906 3.53046 9.6928L4.60266 10.3118C4.69762 10.368 4.7666 10.4594 4.79469 10.5661C4.82277 10.6728 4.80769 10.7863 4.7527 10.882C4.69772 10.9777 4.60726 11.0478 4.50092 11.0773C4.39458 11.1068 4.28091 11.0932 4.18452 11.0394L3.11232 10.4204ZM7.89348 5.3314C7.83831 5.23495 7.82356 5.12058 7.85246 5.01329C7.88136 4.906 7.95156 4.81451 8.04772 4.75883C8.14387 4.70314 8.25816 4.68778 8.3656 4.71612C8.47305 4.74445 8.56491 4.81416 8.6211 4.91002L9.24012 5.98222C9.2953 6.07867 9.31004 6.19304 9.28114 6.30033C9.25224 6.40762 9.18204 6.49911 9.08589 6.55479C8.98973 6.61048 8.87544 6.62583 8.768 6.5975C8.66055 6.56917 8.5687 6.49946 8.5125 6.4036L7.89348 5.3314ZM14.5785 3.31402C14.5785 3.20225 14.6229 3.09505 14.7019 3.01602C14.781 2.93698 14.8882 2.89258 14.9999 2.89258C15.1117 2.89258 15.2189 2.93698 15.2979 3.01602C15.377 3.09505 15.4214 3.20225 15.4214 3.31402V4.55206C15.4214 4.66383 15.377 4.77103 15.2979 4.85006C15.2189 4.9291 15.1117 4.9735 14.9999 4.9735C14.8882 4.9735 14.781 4.9291 14.7019 4.85006C14.6229 4.77103 14.5785 4.66383 14.5785 4.55206V3.31402ZM21.3788 4.90996C21.4357 4.81556 21.5274 4.7473 21.6342 4.71985C21.7409 4.69241 21.8542 4.70798 21.9496 4.76322C22.045 4.81847 22.1149 4.90895 22.1442 5.01521C22.1735 5.12146 22.1599 5.23499 22.1064 5.33134L21.4874 6.40354C21.4305 6.49793 21.3387 6.5662 21.232 6.59364C21.1252 6.62109 21.012 6.60551 20.9166 6.55027C20.8212 6.49503 20.7513 6.40454 20.722 6.29829C20.6926 6.19203 20.7062 6.07851 20.7598 5.98216L21.3788 4.90996ZM26.4695 9.6928C26.5659 9.63906 26.6795 9.62546 26.7859 9.65492C26.8922 9.68439 26.9827 9.75456 27.0377 9.85024C27.0926 9.94592 27.1077 10.0594 27.0796 10.1661C27.0516 10.2728 26.9826 10.3642 26.8876 10.4204L25.8154 11.0394C25.719 11.0932 25.6054 11.1068 25.499 11.0773C25.3927 11.0478 25.3022 10.9777 25.2472 10.882C25.1923 10.7863 25.1772 10.6728 25.2053 10.5661C25.2333 10.4594 25.3023 10.368 25.3973 10.3118L26.4695 9.6928Z" fill="white"/>
</svg>
