<svg width="18" height="16" viewBox="0 0 18 16" fill="none" xmlns="http://www.w3.org/2000/svg">
<path d="M16.5 3.125H13.125V2C13.1244 1.5029 12.9267 1.02633 12.5752 0.674832C12.2237 0.323331 11.7471 0.125595 11.25 0.125H6.75C6.2529 0.125595 5.77633 0.323331 5.42483 0.674832C5.07333 1.02633 4.8756 1.5029 4.875 2V3.125H1.5C1.20172 3.1253 0.915748 3.24392 0.704834 3.45483C0.49392 3.66575 0.375298 3.95172 0.375 4.25V8C0.375423 8.15734 0.409042 8.31281 0.473662 8.45627C0.538281 8.59972 0.632445 8.72793 0.75 8.8325V14.75C0.750298 15.0483 0.86892 15.3343 1.07983 15.5452C1.29075 15.7561 1.57672 15.8747 1.875 15.875H16.125C16.4233 15.8747 16.7093 15.7561 16.9202 15.5452C17.1311 15.3343 17.2497 15.0483 17.25 14.75V8.8325C17.3676 8.72793 17.4617 8.59972 17.5263 8.45627C17.591 8.31281 17.6246 8.15734 17.625 8V4.25C17.6247 3.95172 17.5061 3.66575 17.2952 3.45483C17.0843 3.24392 16.7983 3.1253 16.5 3.125ZM5.625 2C5.6253 1.70172 5.74392 1.41575 5.95483 1.20483C6.16575 0.99392 6.45172 0.875298 6.75 0.875H11.25C11.5483 0.875298 11.8343 0.99392 12.0452 1.20483C12.2561 1.41575 12.3747 1.70172 12.375 2V3.125H11.625V2C11.625 1.90054 11.5855 1.80516 11.5152 1.73484C11.4448 1.66451 11.3495 1.625 11.25 1.625H6.75C6.65054 1.625 6.55516 1.66451 6.48483 1.73484C6.41451 1.80516 6.375 1.90054 6.375 2V3.125H5.625V2ZM7.125 3.125V2.375H10.875V3.125H7.125ZM1.125 4.25C1.1251 4.15057 1.16464 4.05525 1.23494 3.98494C1.30525 3.91464 1.40057 3.8751 1.5 3.875H16.5C16.5994 3.8751 16.6947 3.91464 16.7651 3.98494C16.8354 4.05525 16.8749 4.15057 16.875 4.25V8C16.8749 8.09943 16.8354 8.19475 16.7651 8.26505C16.6947 8.33536 16.5994 8.3749 16.5 8.375H14.625V8C14.6248 7.80115 14.5457 7.6105 14.4051 7.46989C14.2645 7.32928 14.0739 7.2502 13.875 7.25H13.125C12.9261 7.2502 12.7355 7.32928 12.5949 7.46989C12.4543 7.6105 12.3752 7.80115 12.375 8V8.375H5.625V8C5.6248 7.80115 5.54572 7.6105 5.40511 7.46989C5.2645 7.32928 5.07385 7.2502 4.875 7.25H4.125C3.92615 7.2502 3.7355 7.32928 3.59489 7.46989C3.45428 7.6105 3.3752 7.80115 3.375 8V8.375H1.5C1.40057 8.3749 1.30525 8.33536 1.23494 8.26505C1.16464 8.19475 1.1251 8.09943 1.125 8V4.25ZM13.8757 9.5H13.125V8H13.875V8.7515L13.8757 9.5ZM4.87575 9.5H4.125V8H4.875V8.7515L4.87575 9.5ZM16.5 14.75C16.4999 14.8494 16.4604 14.9448 16.3901 15.0151C16.3198 15.0854 16.2244 15.1249 16.125 15.125H1.875C1.77557 15.1249 1.68025 15.0854 1.60994 15.0151C1.53964 14.9448 1.5001 14.8494 1.5 14.75V9.125H3.375V9.5C3.3752 9.69885 3.45428 9.8895 3.59489 10.0301C3.7355 10.1707 3.92615 10.2498 4.125 10.25H4.875C5.07385 10.2498 5.2645 10.1707 5.40511 10.0301C5.54572 9.8895 5.6248 9.69885 5.625 9.5V9.125H12.375V9.5C12.3752 9.69885 12.4543 9.8895 12.5949 10.0301C12.7355 10.1707 12.9261 10.2498 13.125 10.25H13.875C14.0739 10.2498 14.2645 10.1707 14.4051 10.0301C14.5457 9.8895 14.6248 9.69885 14.625 9.5V9.125H16.5V14.75Z" fill="#1E64D3"/>
</svg>
