<svg width="14" height="18" viewBox="0 0 14 18" fill="none" xmlns="http://www.w3.org/2000/svg">
<path d="M6.99914 9.5625C4.62164 9.5625 2.68664 7.6275 2.68664 5.25C2.68664 2.8725 4.62164 0.9375 6.99914 0.9375C9.37664 0.9375 11.3116 2.8725 11.3116 5.25C11.3116 7.6275 9.37664 9.5625 6.99914 9.5625ZM6.99914 2.0625C5.24414 2.0625 3.81164 3.495 3.81164 5.25C3.81164 7.005 5.24414 8.4375 6.99914 8.4375C8.75414 8.4375 10.1866 7.005 10.1866 5.25C10.1866 3.495 8.75414 2.0625 6.99914 2.0625ZM13.4416 17.0625C13.1341 17.0625 12.8791 16.8075 12.8791 16.5C12.8791 13.9125 10.2391 11.8125 6.99914 11.8125C3.75914 11.8125 1.11914 13.9125 1.11914 16.5C1.11914 16.8075 0.864141 17.0625 0.556641 17.0625C0.249141 17.0625 -0.00585938 16.8075 -0.00585938 16.5C-0.00585938 13.2975 3.13664 10.6875 6.99914 10.6875C10.8616 10.6875 14.0041 13.2975 14.0041 16.5C14.0041 16.8075 13.7491 17.0625 13.4416 17.0625Z" fill="#1E64D3"/>
</svg>
