<svg width="127" height="43" viewBox="0 0 127 43" fill="none" xmlns="http://www.w3.org/2000/svg">
<g clip-path="url(#clip0_2_1019)">
<path d="M0 32.8401V1.75006C0 1.50006 0.3 1.38006 0.47 1.55006L19.57 19.9301C20.1 20.4601 20.64 21.0301 21.19 21.6301C21.74 22.2301 22.31 22.9101 22.92 23.6701V2.59006C22.92 2.44006 23.05 2.31006 23.2 2.31006H27.27C27.42 2.31006 27.55 2.44006 27.55 2.59006V33.6601C27.55 33.9101 27.25 34.0301 27.08 33.8601L7.57 15.1501C7.04 14.6301 6.52 14.0801 6.02 13.5101C5.52 12.9401 5.05 12.3301 4.6 11.7001V32.8401C4.6 32.9901 4.47 33.1201 4.32 33.1201H0.28C0.13 33.1201 0 32.9901 0 32.8401Z" fill="#1E64D3"/>
<path d="M30.2002 4.53995C30.2002 3.76995 30.4802 3.09995 31.0502 2.53995C31.6202 1.97995 32.2902 1.69995 33.0802 1.69995C33.8702 1.69995 34.5702 1.96995 35.1102 2.50995C35.6502 3.04995 35.9202 3.72995 35.9202 4.53995C35.9202 5.34995 35.6502 6.03995 35.1002 6.58995C34.5502 7.13995 33.8802 7.41995 33.0802 7.41995C32.2802 7.41995 31.6202 7.13995 31.0502 6.56995C30.4802 5.99995 30.2002 5.31995 30.2002 4.53995ZM30.8102 32.83V13.45C30.8102 13.3 30.9402 13.17 31.0902 13.17H35.1002C35.2502 13.17 35.3802 13.3 35.3802 13.45V32.84C35.3802 32.99 35.2502 33.1199 35.1002 33.1199H31.0902C30.9402 33.1199 30.8102 32.99 30.8102 32.84V32.83Z" fill="#1E64D3"/>
<path d="M82.4398 23.82H66.7998C66.6298 23.82 66.4998 23.97 66.5098 24.13C66.6598 25.85 67.2098 27.2 68.1498 28.18C69.1498 29.23 70.4698 29.75 72.1298 29.75C73.5998 29.75 74.8298 29.44 75.8098 28.82C76.7298 28.24 77.5398 27.33 78.2398 26.08C78.3098 25.95 78.4798 25.89 78.6198 25.97L81.9798 27.84C82.1198 27.92 82.1698 28.1 82.0898 28.24C80.9898 30.12 79.6498 31.53 78.0698 32.47C76.4898 33.41 74.4698 33.94 72.2398 33.94C69.0398 33.94 66.4998 32.96 64.5998 31.01C62.7098 29.06 61.7598 26.46 61.7598 23.2C61.7598 19.94 62.7398 17.5 64.6998 15.49C66.6598 13.48 69.1698 12.47 72.2398 12.47C75.3098 12.47 77.9598 13.39 79.7498 15.23C81.5498 17.07 82.4398 19.64 82.4398 22.95V23.81V23.82ZM77.3698 20.75C77.5398 20.75 77.6798 20.59 77.6498 20.41C77.4298 19.14 76.8998 18.16 76.0598 17.47C75.1498 16.72 73.8998 16.34 72.3198 16.34C70.8198 16.34 69.6098 16.71 68.6998 17.43C67.8698 18.1 67.2598 19.08 66.8798 20.37C66.8298 20.55 66.9698 20.74 67.1498 20.74H77.3598L77.3698 20.75Z" fill="#1E64D3"/>
<path d="M88.8298 16.34C89.3198 15.02 89.9698 14.05 90.7798 13.42C91.5898 12.79 92.5898 12.47 93.7798 12.47C94.4198 12.47 95.0598 12.55 95.6798 12.7C96.2198 12.83 96.7498 13.02 97.2698 13.26C97.4098 13.32 97.4698 13.49 97.4098 13.63L95.8798 17.25C95.4898 16.97 95.0598 16.76 94.6098 16.63C94.1498 16.5 93.6498 16.43 93.0798 16.43C91.5698 16.43 90.4798 17.04 89.8198 18.25C89.1598 19.46 88.8298 21.5 88.8298 24.36V32.83C88.8298 32.98 88.6998 33.11 88.5498 33.11H84.5398C84.3898 33.11 84.2598 32.98 84.2598 32.83V13.4C84.2598 13.25 84.3898 13.12 84.5398 13.12H88.5498C88.6998 13.12 88.8298 13.25 88.8298 13.4V16.34Z" fill="#1E64D3"/>
<path d="M99.2598 32.84V0.78C99.2598 0.63 99.3898 0.5 99.5398 0.5H103.55C103.7 0.5 103.83 0.63 103.83 0.78V32.84C103.83 32.99 103.7 33.12 103.55 33.12H99.5398C99.3898 33.12 99.2598 32.99 99.2598 32.84Z" fill="#1E64D3"/>
<path d="M111.78 42.4999H107.71C107.5 42.4999 107.37 42.2799 107.46 42.0999L112.68 31.5099C112.72 31.4399 112.72 31.3599 112.68 31.2799L105.56 13.5599C105.49 13.3799 105.62 13.1799 105.82 13.1799H110.26C110.38 13.1799 110.48 13.2499 110.52 13.3699L114.12 23.5199C114.33 24.1499 114.52 24.7899 114.68 25.4499C114.84 26.0999 114.97 26.7599 115.07 27.4399C115.25 26.7399 115.69 25.6199 116.37 24.0899L116.48 23.8399L121.33 13.3499C121.38 13.2499 121.47 13.1899 121.58 13.1899H125.9C126.11 13.1899 126.24 13.4099 126.15 13.5899L112.03 42.3599C111.98 42.4599 111.89 42.5199 111.78 42.5199V42.4999Z" fill="#1E64D3"/>
<path d="M63.7499 11.69L62.8399 11.65C62.4399 11.63 62.0999 11.35 61.9999 10.96L61.6399 9.51999C61.6399 9.51999 56.1499 3.43998 50.6899 7.21998C50.6899 7.21998 54.7199 6.48998 55.8299 8.69998C56.0799 9.19998 55.9599 9.96998 55.6099 10.4L54.6599 11.57L57.8499 14.17L57.8699 14.14C58.4499 13.42 59.3399 13.02 60.2699 13.06H60.2799C60.6799 13.08 61.0199 13.36 61.1199 13.75L61.3399 14.63L62.2499 15.37L64.6599 12.42L63.7499 11.68V11.69Z" fill="#1E64D3"/>
<path d="M43.43 33.9801L56.47 14.4301L54.83 13.0901L37.77 33.9801H43.43Z" fill="#1E64D3"/>
<path d="M44.8698 14L48.5398 19.09L45.8698 22.36L39.8398 14H44.8698Z" fill="#1E64D3"/>
<path d="M59.2701 33.96H54.2701L49.3101 27.1L51.7101 23.49L59.2701 33.96Z" fill="#1E64D3"/>
</g>
<defs>
<clipPath id="clip0_2_1019">
<rect width="126.18" height="42" fill="white" transform="translate(0 0.5)"/>
</clipPath>
</defs>
</svg>
