<svg width="20" height="18" viewBox="0 0 20 18" fill="none" xmlns="http://www.w3.org/2000/svg">
<path d="M7.98766 3.04017C8.6198 2.87311 9.2911 2.77778 10 2.77778C15.7273 2.77778 19 9 19 9C19 9 18.2539 10.4185 16.8508 11.9009M3.1142 6.1362C1.73368 7.6051 1 9 1 9C1 9 4.27273 15.2222 10 15.2222C10.7219 15.2222 11.4047 15.1234 12.047 14.9506M9.55 11.6298C8.57424 11.4681 7.77595 10.7895 7.45364 9.88889M10.45 6.3702C11.5806 6.55755 12.473 7.43889 12.6627 8.55556M1.9 1L18.1 17" stroke="#172327" stroke-width="1.5" stroke-linecap="round" stroke-linejoin="round"/>
</svg>
