<svg width="16" height="16" viewBox="0 0 16 16" fill="none" xmlns="http://www.w3.org/2000/svg">
<g clip-path="url(#clip0_452_18842)">
<g clip-path="url(#clip1_452_18842)">
<path d="M0.319824 4.22281H15.6798V2.68681C15.6798 1.40681 14.6558 0.382812 13.3758 0.382812H2.62382C1.34382 0.382812 0.319824 1.40681 0.319824 2.68681V4.22281ZM5.37582 1.66281C5.69582 1.66281 6.01582 1.91881 6.01582 2.30281C6.01582 2.68681 5.69582 2.94281 5.37582 2.94281C5.05582 2.94281 4.73582 2.68681 4.73582 2.30281C4.73582 1.91881 5.05582 1.66281 5.37582 1.66281ZM2.87982 1.66281C3.19982 1.66281 3.51982 1.91881 3.51982 2.30281C3.51982 2.68681 3.19982 2.94281 2.87982 2.94281C2.55982 2.94281 2.23982 2.68681 2.23982 2.30281C2.23982 1.91881 2.49582 1.66281 2.87982 1.66281ZM0.319824 13.3108C0.319824 14.5908 1.34382 15.6148 2.62382 15.6148H13.3758C14.6558 15.6148 15.6798 14.5908 15.6798 13.3108V5.50281H0.319824V13.3108ZM7.99982 7.48681C8.70382 7.48681 9.34382 8.06281 9.34382 8.76681C9.34382 9.47081 8.76782 10.1108 7.99982 10.1108C7.29582 10.1108 6.71982 9.53481 6.71982 8.76681C6.71982 8.12681 7.29582 7.48681 7.99982 7.48681ZM5.50382 12.4788C5.75982 11.9668 6.20782 11.5188 6.65582 11.2628C6.78382 11.1988 6.97582 11.1988 7.10382 11.2628C7.67982 11.4548 8.25582 11.4548 8.76782 11.2628C8.89582 11.1988 9.08782 11.1988 9.21582 11.2628C9.72782 11.5188 10.1758 11.9668 10.4318 12.4788C10.6878 12.9908 10.3038 13.6308 9.72782 13.6308H6.20782C5.63182 13.6308 5.24782 12.9908 5.50382 12.4788Z" fill="#525866"/>
</g>
</g>
<defs>
<clipPath id="clip0_452_18842">
<rect width="16" height="16" fill="white"/>
</clipPath>
<clipPath id="clip1_452_18842">
<rect width="16" height="16" fill="white"/>
</clipPath>
</defs>
</svg>
