<svg width="21" height="21" viewBox="0 0 21 21" fill="none" xmlns="http://www.w3.org/2000/svg">
<path d="M18.8537 13.3465C17.6292 13.3465 16.4269 13.1549 15.2876 12.7784C14.7293 12.588 14.043 12.7627 13.7023 13.1127L11.4535 14.8103C8.84553 13.4181 7.23907 11.8122 5.86594 9.2238L7.5136 7.03359C7.94167 6.60609 8.09522 5.98161 7.91126 5.39568C7.53313 4.25036 7.34105 3.04865 7.34105 1.82365C7.3411 0.938698 6.62115 0.21875 5.73626 0.21875H2.06334C1.17844 0.21875 0.458496 0.938698 0.458496 1.82359C0.458496 11.9668 8.71047 20.2188 18.8537 20.2188C19.7386 20.2188 20.4585 19.4988 20.4585 18.6139V14.9513C20.4585 14.0664 19.7385 13.3465 18.8537 13.3465Z" fill="#1E64D3"/>
</svg>
