<svg width="51" height="64" viewBox="0 0 51 64" fill="none" xmlns="http://www.w3.org/2000/svg">
<path opacity="0.1" d="M39.5 32.9584C45 45.9584 66 58.4583 31 63.9583C13.8792 63.9583 0 50.0792 0 32.9584C8.5 11.9584 2.16961 -12.9455 29.5 8.9189C39.5 16.9189 52.5 17.4193 39.5 32.9584Z" fill="#0E46A3"/>
<g clip-path="url(#clip0_2_1197)">
<g clip-path="url(#clip1_2_1197)">
<path d="M31.857 24.7236H21.5713V32.4379H24.2951C23.0209 31.4119 22.5325 29.6939 23.0764 28.1511C23.6203 26.6083 25.0783 25.5765 26.7141 25.5765C28.35 25.5765 29.8079 26.6083 30.3518 28.1511C30.8958 29.6939 30.4073 31.412 29.1332 32.4379H31.857V24.7236Z" fill="#1E64D3"/>
<path d="M18.5714 22.5808C18.5719 22.1077 18.9554 21.7242 19.4285 21.7237H27.5714V20.438H17.2856V32.438H18.5714V22.5808Z" fill="#1E64D3"/>
<path d="M19.4287 32.4382H20.7144V24.7239C20.715 24.2508 21.0984 23.8674 21.5716 23.8668H29.7144V22.5811H19.4287V32.4382Z" fill="#1E64D3"/>
<path d="M28.834 31.5591C29.693 30.7015 29.9506 29.4108 29.4866 28.2892C29.0226 27.1676 27.9284 26.4361 26.7146 26.436C25.5008 26.436 24.4065 27.1674 23.9424 28.289C23.4783 29.4105 23.7358 30.7013 24.5947 31.559C24.6329 31.2808 24.7334 31.0148 24.8889 30.781C25.0444 30.5472 25.2507 30.3515 25.4925 30.2087C24.831 29.5361 24.8373 28.4555 25.5066 27.7907C26.1759 27.1259 27.2566 27.1268 27.9247 27.7928C28.5928 28.4588 28.5973 29.5394 27.9346 30.2109C28.0299 30.2683 28.1204 30.3334 28.2053 30.4054C28.5537 30.6962 28.7785 31.1087 28.834 31.5591ZM32.7144 29.0095H33.5716V32.4381H32.7144V29.0095Z" fill="#1E64D3"/>
<path d="M26.7141 29.8667C27.1875 29.8667 27.5712 29.4829 27.5712 29.0095C27.5712 28.5361 27.1875 28.1523 26.7141 28.1523C26.2407 28.1523 25.8569 28.5361 25.8569 29.0095C25.8569 29.4829 26.2407 29.8667 26.7141 29.8667Z" fill="#1E64D3"/>
<path d="M25.4287 31.7607V32.1443C25.8298 32.3375 26.2692 32.4379 26.7144 32.4379C27.1596 32.4379 27.599 32.3375 28.0001 32.1443V31.7607C27.9973 31.6246 27.9643 31.4908 27.9034 31.369C27.8425 31.2473 27.7552 31.1406 27.6479 31.0567C27.3877 30.8358 27.0558 30.7174 26.7144 30.7236C26.0755 30.6634 25.5051 31.1235 25.4287 31.7607ZM16.4287 32.5034V29.0093H13.1836L14.567 32.8137L16.4287 32.5034ZM21.143 33.295H17.1592L13.1797 44.4379H33.0201L36.9997 33.295H21.143ZM30.143 37.5198V38.4379C30.1422 39.1476 29.567 39.7228 28.8573 39.7236H22.8573C22.1475 39.7228 21.5723 39.1476 21.5715 38.4379V37.5198C20.7357 37.304 20.1907 36.5003 20.2995 35.644C20.4082 34.7876 21.1369 34.1457 22.0001 34.1457C22.8634 34.1457 23.5919 34.7876 23.7007 35.644C23.8095 36.5003 23.2645 37.304 22.4287 37.5198V38.4379C22.4288 38.5515 22.474 38.6604 22.5543 38.7408C22.6347 38.8211 22.7436 38.8663 22.8573 38.8664H28.8573C28.9709 38.8663 29.0798 38.8211 29.1602 38.7408C29.2405 38.6604 29.2857 38.5515 29.2858 38.4379V37.5198C28.45 37.304 27.905 36.5003 28.0138 35.644C28.1225 34.7876 28.8512 34.1457 29.7144 34.1457C30.5777 34.1457 31.3062 34.7876 31.415 35.644C31.5238 36.5003 30.9788 37.304 30.143 37.5198Z" fill="#1E64D3"/>
<path d="M29.7143 35.0093C29.5258 35.0087 29.3424 35.0704 29.1927 35.1849C29.043 35.2993 28.9353 35.46 28.8864 35.642C28.8375 35.824 28.8501 36.0171 28.9224 36.1911C28.9946 36.3652 29.1223 36.5105 29.2857 36.6044V36.2951C29.2857 36.1814 29.3309 36.0724 29.4113 35.992C29.4916 35.9117 29.6006 35.8665 29.7143 35.8665C29.828 35.8665 29.937 35.9117 30.0174 35.992C30.0977 36.0724 30.1429 36.1814 30.1429 36.2951V36.6044C30.3063 36.5105 30.4341 36.3652 30.5063 36.1911C30.5785 36.017 30.5912 35.824 30.5423 35.642C30.4933 35.46 30.3856 35.2992 30.2359 35.1848C30.0861 35.0704 29.9027 35.0087 29.7143 35.0093ZM22.4285 36.6044C22.592 36.5101 22.7197 36.3644 22.7919 36.1901C22.8641 36.0158 22.8768 35.8225 22.828 35.6402C22.7791 35.4579 22.6715 35.2968 22.5218 35.182C22.3721 35.0671 22.1887 35.0048 22 35.0048C21.8113 35.0048 21.6278 35.0671 21.4781 35.182C21.3284 35.2968 21.2208 35.4579 21.172 35.6402C21.1231 35.8225 21.1358 36.0158 21.208 36.1901C21.2802 36.3644 21.408 36.5101 21.5714 36.6044V36.2951C21.5714 36.1814 21.6165 36.0724 21.6969 35.992C21.7773 35.9117 21.8863 35.8665 22 35.8665C22.1136 35.8665 22.2226 35.9117 22.303 35.992C22.3834 36.0724 22.4285 36.1814 22.4285 36.2951V36.6044ZM14.7078 33.6592C14.5103 33.6922 14.3075 33.655 14.1346 33.5541C13.9616 33.4532 13.8295 33.2949 13.7611 33.1067L13 31.0137V42.3923L16.2083 33.4091L14.7078 33.6592Z" fill="#1E64D3"/>
</g>
</g>
<defs>
<clipPath id="clip0_2_1197">
<rect width="24" height="24" fill="white" transform="translate(13 20.4375)"/>
</clipPath>
<clipPath id="clip1_2_1197">
<rect width="24" height="24" fill="white" transform="translate(13 20.438)"/>
</clipPath>
</defs>
</svg>
