<svg width="12" height="12" viewBox="0 0 12 12" fill="none" xmlns="http://www.w3.org/2000/svg">
<g clip-path="url(#clip0_489_33869)">
<path d="M0.240234 3.16809H11.7602V2.01609C11.7602 1.05609 10.9922 0.288086 10.0322 0.288086H1.96823C1.00823 0.288086 0.240234 1.05609 0.240234 2.01609V3.16809ZM4.03223 1.24809C4.27223 1.24809 4.51223 1.44009 4.51223 1.72809C4.51223 2.01609 4.27223 2.20809 4.03223 2.20809C3.79223 2.20809 3.55223 2.01609 3.55223 1.72809C3.55223 1.44009 3.79223 1.24809 4.03223 1.24809ZM2.16023 1.24809C2.40023 1.24809 2.64023 1.44009 2.64023 1.72809C2.64023 2.01609 2.40023 2.20809 2.16023 2.20809C1.92023 2.20809 1.68023 2.01609 1.68023 1.72809C1.68023 1.44009 1.87223 1.24809 2.16023 1.24809ZM0.240234 9.98408C0.240234 10.9441 1.00823 11.7121 1.96823 11.7121H10.0322C10.9922 11.7121 11.7602 10.9441 11.7602 9.98408V4.12809H0.240234V9.98408ZM6.00023 5.61609C6.52823 5.61609 7.00823 6.04809 7.00823 6.57609C7.00823 7.10408 6.57623 7.58409 6.00023 7.58409C5.47223 7.58409 5.04023 7.15209 5.04023 6.57609C5.04023 6.09609 5.47223 5.61609 6.00023 5.61609ZM4.12823 9.36008C4.32023 8.97608 4.65623 8.64009 4.99223 8.44808C5.08823 8.40009 5.23223 8.40009 5.32823 8.44808C5.76023 8.59208 6.19223 8.59208 6.57623 8.44808C6.67223 8.40009 6.81623 8.40009 6.91223 8.44808C7.29623 8.64009 7.63223 8.97608 7.82423 9.36008C8.01623 9.74409 7.72823 10.2241 7.29623 10.2241H4.65623C4.22423 10.2241 3.93623 9.74409 4.12823 9.36008Z" fill="#0E121B"/>
</g>
<defs>
<clipPath id="clip0_489_33869">
<rect width="12" height="12" fill="white"/>
</clipPath>
</defs>
</svg>
