<svg width="52" height="65" viewBox="0 0 52 65" fill="none" xmlns="http://www.w3.org/2000/svg">
<path opacity="0.1" d="M40 33.4779C45.5 46.4779 66.5 58.9779 31.5 64.4779C14.3792 64.4779 0.5 50.5987 0.5 33.4779C9 12.4779 2.66961 -12.4259 30 9.43843C40 17.4384 53 17.9388 40 33.4779Z" fill="#0E46A3"/>
<g clip-path="url(#clip0_2_1168)">
<path d="M27.03 23.3077L16.04 21.6377C15.53 21.5577 15.01 21.6977 14.62 22.0277C14.23 22.3677 14 22.8577 14 23.3677V44.4377C14 44.9877 14.45 45.4377 15 45.4377H18.25V40.1877C18.25 39.2177 19.03 38.4377 20 38.4377H22.5C23.47 38.4377 24.25 39.2177 24.25 40.1877V45.4377H28.5V25.0377C28.5 24.1777 27.88 23.4477 27.03 23.3077ZM19.5 36.1877H18C17.8011 36.1877 17.6103 36.1087 17.4697 35.9681C17.329 35.8274 17.25 35.6366 17.25 35.4377C17.25 35.2388 17.329 35.048 17.4697 34.9074C17.6103 34.7667 17.8011 34.6877 18 34.6877H19.5C19.6989 34.6877 19.8897 34.7667 20.0303 34.9074C20.171 35.048 20.25 35.2388 20.25 35.4377C20.25 35.6366 20.171 35.8274 20.0303 35.9681C19.8897 36.1087 19.6989 36.1877 19.5 36.1877ZM19.5 33.1877H18C17.8011 33.1877 17.6103 33.1087 17.4697 32.9681C17.329 32.8274 17.25 32.6366 17.25 32.4377C17.25 32.2388 17.329 32.048 17.4697 31.9074C17.6103 31.7667 17.8011 31.6877 18 31.6877H19.5C19.6989 31.6877 19.8897 31.7667 20.0303 31.9074C20.171 32.048 20.25 32.2388 20.25 32.4377C20.25 32.6366 20.171 32.8274 20.0303 32.9681C19.8897 33.1087 19.6989 33.1877 19.5 33.1877ZM19.5 30.1877H18C17.8011 30.1877 17.6103 30.1087 17.4697 29.9681C17.329 29.8274 17.25 29.6366 17.25 29.4377C17.25 29.2388 17.329 29.048 17.4697 28.9074C17.6103 28.7667 17.8011 28.6877 18 28.6877H19.5C19.6989 28.6877 19.8897 28.7667 20.0303 28.9074C20.171 29.048 20.25 29.2388 20.25 29.4377C20.25 29.6366 20.171 29.8274 20.0303 29.9681C19.8897 30.1087 19.6989 30.1877 19.5 30.1877ZM19.5 27.1877H18C17.8011 27.1877 17.6103 27.1087 17.4697 26.9681C17.329 26.8274 17.25 26.6366 17.25 26.4377C17.25 26.2388 17.329 26.048 17.4697 25.9074C17.6103 25.7667 17.8011 25.6877 18 25.6877H19.5C19.6989 25.6877 19.8897 25.7667 20.0303 25.9074C20.171 26.048 20.25 26.2388 20.25 26.4377C20.25 26.6366 20.171 26.8274 20.0303 26.9681C19.8897 27.1087 19.6989 27.1877 19.5 27.1877ZM24.5 36.1877H23C22.8011 36.1877 22.6103 36.1087 22.4697 35.9681C22.329 35.8274 22.25 35.6366 22.25 35.4377C22.25 35.2388 22.329 35.048 22.4697 34.9074C22.6103 34.7667 22.8011 34.6877 23 34.6877H24.5C24.6989 34.6877 24.8897 34.7667 25.0303 34.9074C25.171 35.048 25.25 35.2388 25.25 35.4377C25.25 35.6366 25.171 35.8274 25.0303 35.9681C24.8897 36.1087 24.6989 36.1877 24.5 36.1877ZM24.5 33.1877H23C22.8011 33.1877 22.6103 33.1087 22.4697 32.9681C22.329 32.8274 22.25 32.6366 22.25 32.4377C22.25 32.2388 22.329 32.048 22.4697 31.9074C22.6103 31.7667 22.8011 31.6877 23 31.6877H24.5C24.6989 31.6877 24.8897 31.7667 25.0303 31.9074C25.171 32.048 25.25 32.2388 25.25 32.4377C25.25 32.6366 25.171 32.8274 25.0303 32.9681C24.8897 33.1087 24.6989 33.1877 24.5 33.1877ZM24.5 30.1877H23C22.8011 30.1877 22.6103 30.1087 22.4697 29.9681C22.329 29.8274 22.25 29.6366 22.25 29.4377C22.25 29.2388 22.329 29.048 22.4697 28.9074C22.6103 28.7667 22.8011 28.6877 23 28.6877H24.5C24.6989 28.6877 24.8897 28.7667 25.0303 28.9074C25.171 29.048 25.25 29.2388 25.25 29.4377C25.25 29.6366 25.171 29.8274 25.0303 29.9681C24.8897 30.1087 24.6989 30.1877 24.5 30.1877ZM24.5 27.1877H23C22.8011 27.1877 22.6103 27.1087 22.4697 26.9681C22.329 26.8274 22.25 26.6366 22.25 26.4377C22.25 26.2388 22.329 26.048 22.4697 25.9074C22.6103 25.7667 22.8011 25.6877 23 25.6877H24.5C24.6989 25.6877 24.8897 25.7667 25.0303 25.9074C25.171 26.048 25.25 26.2388 25.25 26.4377C25.25 26.6366 25.171 26.8274 25.0303 26.9681C24.8897 27.1087 24.6989 27.1877 24.5 27.1877ZM36.62 32.2797L29.5 30.7887V45.4377H36.25C37.215 45.4377 38 44.6527 38 43.6877V33.9897C38 33.1637 37.437 32.4607 36.62 32.2797ZM34.25 42.4377H32.75C32.5511 42.4377 32.3603 42.3587 32.2197 42.2181C32.079 42.0774 32 41.8866 32 41.6877C32 41.4888 32.079 41.298 32.2197 41.1574C32.3603 41.0167 32.5511 40.9377 32.75 40.9377H34.25C34.4489 40.9377 34.6397 41.0167 34.7803 41.1574C34.921 41.298 35 41.4888 35 41.6877C35 41.8866 34.921 42.0774 34.7803 42.2181C34.6397 42.3587 34.4489 42.4377 34.25 42.4377ZM34.25 39.4377H32.75C32.5511 39.4377 32.3603 39.3587 32.2197 39.2181C32.079 39.0774 32 38.8866 32 38.6877C32 38.4888 32.079 38.298 32.2197 38.1574C32.3603 38.0167 32.5511 37.9377 32.75 37.9377H34.25C34.4489 37.9377 34.6397 38.0167 34.7803 38.1574C34.921 38.298 35 38.4888 35 38.6877C35 38.8866 34.921 39.0774 34.7803 39.2181C34.6397 39.3587 34.4489 39.4377 34.25 39.4377ZM34.25 36.4377H32.75C32.5511 36.4377 32.3603 36.3587 32.2197 36.2181C32.079 36.0774 32 35.8866 32 35.6877C32 35.4888 32.079 35.298 32.2197 35.1574C32.3603 35.0167 32.5511 34.9377 32.75 34.9377H34.25C34.4489 34.9377 34.6397 35.0167 34.7803 35.1574C34.921 35.298 35 35.4888 35 35.6877C35 35.8866 34.921 36.0774 34.7803 36.2181C34.6397 36.3587 34.4489 36.4377 34.25 36.4377Z" fill="#1E64D3"/>
</g>
<defs>
<clipPath id="clip0_2_1168">
<rect width="24" height="24" fill="white" transform="translate(14 21.4375)"/>
</clipPath>
</defs>
</svg>
