<svg width="13" height="13" viewBox="0 0 13 13" fill="none" xmlns="http://www.w3.org/2000/svg">
<path d="M10.7156 5.64797C10.621 5.64797 10.5304 5.68553 10.4635 5.75238C10.3966 5.81924 10.3591 5.90992 10.3591 6.00447V9.70137C10.3585 10.167 10.1732 10.6134 9.84397 10.9426C9.51473 11.2718 9.06835 11.4571 8.60273 11.4577H2.79357C2.32795 11.4571 1.88158 11.2718 1.55234 10.9426C1.22309 10.6134 1.03785 10.167 1.03722 9.70137V3.89221C1.03785 3.42658 1.22309 2.98021 1.55234 2.65097C1.88158 2.32173 2.32795 2.13648 2.79357 2.13585H6.49047C6.58502 2.13585 6.6757 2.09829 6.74256 2.03143C6.80941 1.96458 6.84697 1.8739 6.84697 1.77935C6.84697 1.6848 6.80941 1.59412 6.74256 1.52727C6.6757 1.46041 6.58502 1.42285 6.49047 1.42285H2.79357C2.13896 1.42348 1.51132 1.68376 1.04838 2.14659C0.58544 2.60942 0.325005 3.23699 0.324219 3.89161V9.70077C0.325005 10.3554 0.58544 10.983 1.04838 11.4458C1.51132 11.9086 2.13896 12.1689 2.79357 12.1695H8.60273C9.25725 12.1687 9.88473 11.9084 10.3475 11.4456C10.8104 10.9828 11.0707 10.3553 11.0715 9.70077V6.00387C11.0715 5.90932 11.0339 5.81864 10.9671 5.75179C10.9002 5.68493 10.8095 5.64737 10.715 5.64737L10.7156 5.64797Z" fill="#525866"/>
<path d="M11.9715 0.169434H9.11832C9.02377 0.169434 8.93309 0.206993 8.86624 0.27385C8.79938 0.340707 8.76182 0.431384 8.76182 0.525933C8.76182 0.620483 8.79938 0.71116 8.86624 0.778016C8.93309 0.844873 9.02377 0.882433 9.11832 0.882433H11.1112L6.55271 5.44028C6.48974 5.50786 6.45546 5.59725 6.45709 5.6896C6.45872 5.78196 6.49613 5.87008 6.56145 5.9354C6.62676 6.00071 6.71488 6.03813 6.80724 6.03976C6.8996 6.04139 6.98898 6.00711 7.05656 5.94413L11.6144 1.38629V3.39694C11.6144 3.49149 11.652 3.58217 11.7188 3.64903C11.7857 3.71588 11.8764 3.75344 11.9709 3.75344C12.0655 3.75344 12.1561 3.71588 12.223 3.64903C12.2899 3.58217 12.3274 3.49149 12.3274 3.39694V0.525933C12.3274 0.431384 12.2899 0.340707 12.223 0.27385C12.1561 0.206993 12.0661 0.169434 11.9715 0.169434Z" fill="#525866"/>
</svg>
