<svg width="16" height="16" viewBox="0 0 16 16" fill="none" xmlns="http://www.w3.org/2000/svg">
<path d="M8.0013 3.81836C8.16706 3.81836 8.32603 3.88421 8.44324 4.00142C8.56045 4.11863 8.6263 4.2776 8.6263 4.44336V9.38003C8.6263 9.54579 8.56045 9.70476 8.44324 9.82197C8.32603 9.93918 8.16706 10.005 8.0013 10.005C7.83554 10.005 7.67657 9.93918 7.55936 9.82197C7.44215 9.70476 7.3763 9.54579 7.3763 9.38003V4.44336C7.3763 4.2776 7.44215 4.11863 7.55936 4.00142C7.67657 3.88421 7.83554 3.81836 8.0013 3.81836ZM8.83464 11.3334C8.83464 11.5544 8.74684 11.7663 8.59056 11.9226C8.43428 12.0789 8.22232 12.1667 8.0013 12.1667C7.78029 12.1667 7.56833 12.0789 7.41205 11.9226C7.25577 11.7663 7.16797 11.5544 7.16797 11.3334C7.16797 11.1123 7.25577 10.9004 7.41205 10.7441C7.56833 10.5878 7.78029 10.5 8.0013 10.5C8.22232 10.5 8.43428 10.5878 8.59056 10.7441C8.74684 10.9004 8.83464 11.1123 8.83464 11.3334Z" fill="#1E64D3"/>
<path fill-rule="evenodd" clip-rule="evenodd" d="M15.5 8C15.5 8.98491 15.306 9.96018 14.9291 10.8701C14.5522 11.7801 13.9997 12.6069 13.3033 13.3033C12.6069 13.9997 11.7801 14.5522 10.8701 14.9291C9.96018 15.306 8.98491 15.5 8 15.5C7.01509 15.5 6.03982 15.306 5.12987 14.9291C4.21993 14.5522 3.39314 13.9997 2.6967 13.3033C2.00026 12.6069 1.44781 11.7801 1.0709 10.8701C0.693993 9.96018 0.5 8.98491 0.5 8C0.5 6.01088 1.29018 4.10322 2.6967 2.6967C4.10322 1.29018 6.01088 0.5 8 0.5C9.98912 0.5 11.8968 1.29018 13.3033 2.6967C14.7098 4.10322 15.5 6.01088 15.5 8ZM14.25 8C14.25 9.6576 13.5915 11.2473 12.4194 12.4194C11.2473 13.5915 9.6576 14.25 8 14.25C6.3424 14.25 4.75269 13.5915 3.58058 12.4194C2.40848 11.2473 1.75 9.6576 1.75 8C1.75 6.3424 2.40848 4.75268 3.58058 3.58058C4.75269 2.40848 6.3424 1.75 8 1.75C9.6576 1.75 11.2473 2.40848 12.4194 3.58058C13.5915 4.75268 14.25 6.3424 14.25 8Z" fill="#1E64D3"/>
</svg>
