<svg width="17" height="16" viewBox="0 0 17 16" fill="none" xmlns="http://www.w3.org/2000/svg">
<path d="M10.3379 12.9219C10.3379 13.0844 10.2785 13.2344 10.1754 13.3469H4.65039C4.28476 12.9531 4.58789 12.2656 5.13164 12.2781H9.69414C10.0504 12.2781 10.3379 12.5656 10.3379 12.9219ZM4.65039 13.7812C4.28476 14.175 4.58789 14.8625 5.13164 14.85H9.69414C10.2379 14.8625 10.541 14.1719 10.1723 13.7812H4.65039ZM6.46601 15.9688H8.36289C8.76914 15.9688 9.10351 15.6719 9.16914 15.2844H5.65976C5.72539 15.6719 6.05976 15.9688 6.46601 15.9688ZM10.5691 9.56875C9.90039 10.15 9.49101 10.9688 9.40664 11.8438H8.02226V3.09375C8.02226 2.90937 8.17851 2.7625 8.36289 2.77813C11.7816 3.08125 13.116 7.37188 10.5691 9.56875ZM11.1754 6.64375C11.1848 5.33125 10.3223 4.1 9.07851 3.67188C8.95039 3.625 8.80351 3.69375 8.75976 3.825C8.71289 3.95625 8.77851 4.09688 8.90976 4.14375C9.95351 4.50313 10.6816 5.5375 10.6723 6.64375C10.6785 6.97188 11.1723 6.97188 11.1754 6.64375ZM4.81601 10.3562C4.97851 10.1875 5.34726 9.96875 5.48476 10.2781C5.53476 10.4062 5.46914 10.5531 5.33789 10.6031C4.77539 10.8594 5.06601 11.6187 5.41601 11.8438H6.53789C6.77851 11.6687 6.93476 11.3875 6.93476 11.0688V3.98438C6.92851 2.9625 5.52851 2.6625 5.10976 3.59063C5.44726 3.65625 6.44414 4.50625 5.72851 4.66563C5.49101 4.65625 5.43789 4.34062 5.25039 4.23438C4.30976 3.49062 2.97226 4.50938 3.37851 5.59375C3.80351 5.51562 4.36289 5.725 4.64726 6.08437C4.78789 6.2375 4.65976 6.50312 4.45664 6.49687C4.38476 6.49687 4.31601 6.46562 4.26601 6.40625C4.20039 6.32812 4.05351 6.18438 3.82226 6.11875C3.65976 6.06563 3.43476 6.07812 3.30351 6.12187C2.00664 6.5 1.90039 8.34375 3.13789 8.87187C3.30664 8.6 4.29414 7.84688 4.47226 8.375C4.50664 8.50937 4.42226 8.64688 4.29101 8.67813C2.86601 9.03125 3.06289 11.0312 4.53164 11.0719C4.53476 10.8281 4.61289 10.5594 4.81601 10.3562ZM11.3879 3.56562C11.4535 3.56562 11.516 3.54063 11.566 3.49375L12.7254 2.33437C12.9535 2.09687 12.6066 1.75 12.3723 1.98125L11.2129 3.14062C11.0504 3.2875 11.1723 3.57187 11.3879 3.56562ZM14.4191 6.42812H12.7816C12.4504 6.43437 12.4535 6.925 12.7816 6.92812H14.4191C14.7504 6.925 14.7473 6.43437 14.4191 6.42812ZM11.5629 9.86875C11.3254 9.64062 10.9785 9.9875 11.2098 10.2219L12.3691 11.3813C12.6035 11.6125 12.9535 11.2594 12.7223 11.0281C12.7223 11.025 11.5629 9.86875 11.5629 9.86875ZM8.02226 2.17188C8.15976 2.17188 8.27226 2.05938 8.27226 1.92188V0.28125C8.27226 0.14375 8.15976 0.03125 8.02226 0.03125C7.88476 0.03125 7.77226 0.14375 7.77226 0.28125V1.91875C7.77226 2.05938 7.88476 2.17188 8.02226 2.17188Z" fill="#525866"/>
</svg>
