<svg width="102" height="21" viewBox="0 0 102 21" fill="none" xmlns="http://www.w3.org/2000/svg">
<g clip-path="url(#clip0_2_1070)">
<path d="M0 4.9805C0 2.78483 1.77995 1.00488 3.97562 1.00488H12.5806C14.7763 1.00488 16.5563 2.78483 16.5563 4.9805V13.5855C16.5563 15.7812 14.7763 17.5611 12.5806 17.5611H3.97562C1.77994 17.5611 0 15.7812 0 13.5855V4.9805ZM17.9359 4.9805C17.9359 2.78483 19.7159 1.00488 21.9116 1.00488H30.5166C32.7123 1.00488 34.4922 2.78483 34.4922 4.9805V13.5855C34.4922 15.7812 32.7123 17.5611 30.5166 17.5611H21.9116C19.7159 17.5611 17.9359 15.7812 17.9359 13.5855V4.9805ZM35.8719 4.9805C35.8719 2.78483 37.6518 1.00488 39.8475 1.00488H48.4525C50.6482 1.00488 52.4282 2.78483 52.4282 4.9805V13.5855C52.4282 15.7812 50.6482 17.5611 48.4525 17.5611H39.8475C37.6518 17.5611 35.8719 15.7812 35.8719 13.5855V4.9805ZM53.8078 4.9805C53.8078 2.78483 55.5878 1.00488 57.7835 1.00488H66.3885C68.5842 1.00488 70.3641 2.78483 70.3641 4.9805V13.5855C70.3641 15.7812 68.5842 17.5611 66.3885 17.5611H57.7835C55.5878 17.5611 53.8078 15.7812 53.8078 13.5855V4.9805ZM71.7438 4.9805C71.7438 2.78483 73.5237 1.00488 75.7194 1.00488H84.3244C86.5201 1.00488 88.3 2.78483 88.3 4.9805V13.5855C88.3 15.7812 86.5201 17.5611 84.3244 17.5611H75.7194C73.5237 17.5611 71.7438 15.7812 71.7438 13.5855V4.9805Z" fill="#185D31"/>
<path d="M8.27809 12.1632L10.796 11.5251L11.848 14.7674L8.27809 12.1632ZM14.0728 7.97239H9.64053L8.27809 3.79883L6.91565 7.97239H2.4834L6.07059 10.5593L4.70815 14.7329L8.29533 12.1459L10.5028 10.5593L14.0728 7.97239ZM26.214 12.1632L28.732 11.5251L29.784 14.7674L26.214 12.1632ZM32.0087 7.97239H27.5765L26.214 3.79883L24.8516 7.97239H20.4193L24.0065 10.5593L22.6441 14.7329L26.2313 12.1459L28.4388 10.5593L32.0087 7.97239ZM44.15 12.1632L46.6679 11.5251L47.7199 14.7674L44.15 12.1632ZM49.9447 7.97239H45.5124L44.15 3.79883L42.7875 7.97239H38.3553L41.9425 10.5593L40.58 14.7329L44.1672 12.1459L46.3747 10.5593L49.9447 7.97239ZM62.0859 12.1632L64.6039 11.5251L65.6559 14.7674L62.0859 12.1632ZM67.8806 7.97239H63.4484L62.0859 3.79883L60.7235 7.97239H56.2912L59.8784 10.5593L58.516 14.7329L62.1032 12.1459L64.3107 10.5593L67.8806 7.97239ZM80.0219 12.1632L82.5398 11.5251L83.5918 14.7674L80.0219 12.1632ZM85.8166 7.97239H81.3843L80.0219 3.79883L78.6594 7.97239H74.2272L77.8144 10.5593L76.4519 14.7329L80.0391 12.1459L82.2466 10.5593L85.8166 7.97239Z" fill="white"/>
</g>
<defs>
<clipPath id="clip0_2_1070">
<rect width="101" height="20" fill="white" transform="translate(0.149902 0.5)"/>
</clipPath>
</defs>
</svg>
