<svg width="20" height="20" viewBox="0 0 20 20" fill="none" xmlns="http://www.w3.org/2000/svg">
<path d="M10.0001 0C5.78186 0 2.3501 3.4318 2.3501 7.65C2.3501 11.8682 5.78189 15.3 10.0001 15.3C14.2183 15.3 17.6501 11.8682 17.6501 7.65C17.6501 3.4318 14.2183 0 10.0001 0ZM13.5899 12.5909L10.0001 10.8921L6.41029 12.5909L6.91662 8.65191L4.1917 5.76281L8.09439 5.02715L10.0001 1.5427L11.9058 5.02707L15.8085 5.76273L13.0836 8.65188L13.5899 12.5909Z" fill="#1E64D3"/>
<path d="M11.1438 6.07539L10.0002 3.98438L8.85656 6.07539L6.51445 6.51687L8.14977 8.2507L7.8459 10.6146L10.0002 9.59512L12.1545 10.6146L11.8506 8.2507L13.4859 6.51687L11.1438 6.07539ZM4.65625 17.3218C5.17329 17.2468 5.67057 17.071 6.11988 16.8045V15.5765C5.60342 15.323 5.11318 15.0193 4.65625 14.6697V17.3218ZM13.8805 16.8045C14.3298 17.071 14.8271 17.2468 15.3441 17.3218V14.6697C14.8872 15.0193 14.397 15.323 13.8805 15.5765V16.8045ZM7.29176 16.0493V19.9995C8.1593 19.8742 8.95699 19.4713 9.58176 18.8339L10.0002 18.407L10.4186 18.8339C11.0434 19.4712 11.8411 19.8742 12.7086 19.9995V16.0493C11.8448 16.3268 10.9337 16.4713 10.0002 16.4713C9.06672 16.4713 8.15559 16.3268 7.29176 16.0493Z" fill="#1E64D3"/>
</svg>
