<svg width="16" height="16" viewBox="0 0 16 16" fill="none" xmlns="http://www.w3.org/2000/svg">
<g clip-path="url(#clip0_228_6050)">
<path d="M9 9H7C6.44772 9 6 9.44772 6 10V14C6 14.5523 6.44772 15 7 15H9C9.55228 15 10 14.5523 10 14V10C10 9.44772 9.55228 9 9 9Z" fill="#525866"/>
<path d="M4 10.5H2C1.44772 10.5 1 10.9477 1 11.5V14C1 14.5523 1.44772 15 2 15H4C4.55228 15 5 14.5523 5 14V11.5C5 10.9477 4.55228 10.5 4 10.5Z" fill="#525866"/>
<path d="M14 6.5H12C11.4477 6.5 11 6.94772 11 7.5V14C11 14.5523 11.4477 15 12 15H14C14.5523 15 15 14.5523 15 14V7.5C15 6.94772 14.5523 6.5 14 6.5Z" fill="#525866"/>
<path d="M2.99982 8.5C3.04147 8.49996 3.08295 8.49475 3.12332 8.4845C4.91296 8.02858 6.63488 7.33934 8.24482 6.4345C9.99747 5.4441 11.5988 4.20714 12.9998 2.7615V4C12.9998 4.13261 13.0525 4.25979 13.1463 4.35355C13.24 4.44732 13.3672 4.5 13.4998 4.5C13.6324 4.5 13.7596 4.44732 13.8534 4.35355C13.9471 4.25979 13.9998 4.13261 13.9998 4V1.5C13.9998 1.36739 13.9471 1.24021 13.8534 1.14645C13.7596 1.05268 13.6324 1 13.4998 1H10.9998C10.8672 1 10.74 1.05268 10.6463 1.14645C10.5525 1.24021 10.4998 1.36739 10.4998 1.5C10.4998 1.63261 10.5525 1.75979 10.6463 1.85355C10.74 1.94732 10.8672 2 10.9998 2H12.3378C10.9915 3.40445 9.4476 4.60508 7.75482 5.564C6.22119 6.42509 4.58095 7.08071 2.87632 7.514C2.75684 7.54284 2.65218 7.61468 2.58231 7.7158C2.51243 7.81691 2.48225 7.94022 2.49753 8.06218C2.51281 8.18414 2.57247 8.29619 2.66512 8.37695C2.75777 8.45771 2.87692 8.50152 2.99982 8.5Z" fill="#525866"/>
</g>
<defs>
<clipPath id="clip0_228_6050">
<rect width="16" height="16" fill="white"/>
</clipPath>
</defs>
</svg>
