<svg width="235" height="209" viewBox="0 0 235 209" fill="none" xmlns="http://www.w3.org/2000/svg">
<ellipse opacity="0.1" cx="132.514" cy="103.181" rx="64.4471" ry="64.2981" fill="#1E64D3"/>
<ellipse cx="132.514" cy="103.181" rx="51.1786" ry="51.0603" fill="#1E64D3"/>
<g clip-path="url(#clip0_450_16087)">
<path d="M146.56 86.164C146.56 84.944 146.084 83.7955 145.221 82.9326L140.912 78.6242C140.062 77.7732 138.854 77.2852 137.652 77.2852H137.39V86.4258H146.56L146.56 86.164Z" fill="white"/>
<path d="M134.822 108.723C135.113 107.837 135.622 107.013 136.286 106.345L146.601 96.0718V89.4727H135.896C135.054 89.4727 134.422 88.7913 134.422 87.9492V77.2852H111.57C109.05 77.2852 107 79.3353 107 81.8555V124.715C107 127.235 109.05 129.285 111.57 129.285H141.99C144.51 129.285 146.601 127.235 146.601 124.715V113.345L144.926 114.978C144.248 115.651 143.454 116.14 142.558 116.439L137.714 118.057L136.976 118.097C135.756 118.097 134.602 117.503 133.884 116.509C133.173 115.52 132.98 114.238 133.367 113.079L134.822 108.723ZM114.617 104.707H129.802C130.644 104.707 131.326 105.388 131.326 106.23C131.326 107.073 130.644 107.754 129.802 107.754H114.617C113.775 107.754 113.094 107.073 113.094 106.23C113.094 105.388 113.775 104.707 114.617 104.707ZM113.094 100.137C113.094 99.2947 113.775 98.6133 114.617 98.6133H129.802C130.644 98.6133 131.326 99.2947 131.326 100.137C131.326 100.979 130.644 101.66 129.802 101.66H114.617C113.775 101.66 113.094 100.979 113.094 100.137ZM113.094 112.324C113.094 111.482 113.775 110.801 114.617 110.801H129.802C130.644 110.801 131.326 111.482 131.326 112.324C131.326 113.166 130.644 113.848 129.802 113.848H114.617C113.775 113.848 113.094 113.166 113.094 112.324ZM135.896 119.941C136.738 119.941 137.419 120.623 137.419 121.465C137.419 122.307 136.738 122.988 135.896 122.988H126.755C125.913 122.988 125.232 122.307 125.232 121.465C125.232 120.623 125.913 119.941 126.755 119.941H135.896ZM114.617 95.5664C113.775 95.5664 113.094 94.885 113.094 94.043C113.094 93.2009 113.775 92.5195 114.617 92.5195H135.896C136.738 92.5195 137.419 93.2009 137.419 94.043C137.419 94.885 136.738 95.5664 135.896 95.5664H114.617Z" fill="white"/>
<path d="M137.582 110.072L136.256 114.048C136.058 114.644 136.624 115.21 137.22 115.011L141.194 113.684L137.582 110.072ZM149.413 97.5285L139.38 107.562L143.707 111.889C145.975 109.621 150.387 105.208 153.74 101.855L149.413 97.5285ZM158.105 93.159C157.569 92.6204 156.781 92.3125 155.944 92.3125C155.108 92.3125 154.32 92.6204 153.781 93.1605L151.568 95.3743L155.894 99.7007L158.108 97.4867C159.298 96.2949 159.298 94.3536 158.105 93.159Z" fill="white"/>
<path d="M158.108 97.4869L158.108 97.4867L158.117 97.478C158.114 97.481 158.111 97.484 158.108 97.4869ZM158.13 97.4645C158.14 97.4546 158.14 97.4544 158.13 97.4645V97.4645Z" fill="white"/>
</g>
<path d="M1.43664 148.297C11.1085 152.228 35.7076 156.43 36.9002 134.359C38.3904 106.779 11.7839 126.847 32.6016 136.503C53.4192 146.16 57.3186 126.854 57.3186 126.854" stroke="#76D2FD" stroke-width="2" stroke-linecap="round"/>
<path d="M198.1 45.314C204.548 45.314 217.873 41.6686 219.593 27.0871C221.742 8.86023 231.414 8.86023 233.563 9.9324" stroke="#76D2FD" stroke-width="2" stroke-linecap="round" stroke-linejoin="round"/>
<path d="M186.279 169.688C192.011 170.402 203.689 175.906 204.548 192.203" stroke="#F4C36D" stroke-width="2" stroke-linecap="round" stroke-linejoin="round"/>
<ellipse cx="217.442" cy="97.8528" rx="7.52257" ry="7.50518" fill="#76D2FD"/>
<ellipse cx="155.112" cy="200.779" rx="7.52257" ry="7.50518" fill="#14A3BF"/>
<ellipse cx="135.767" cy="194.345" rx="3.22396" ry="3.21651" fill="#70C043"/>
<ellipse cx="64.8417" cy="179.337" rx="7.52257" ry="7.50518" fill="#70C043"/>
<ellipse cx="49.797" cy="74.263" rx="7.52257" ry="7.50518" fill="#F4C36D"/>
<ellipse cx="112.123" cy="7.79034" rx="7.52257" ry="7.50518" fill="#C05DFE"/>
<ellipse cx="133.621" cy="20.6579" rx="3.22396" ry="3.21651" fill="#F8C264"/>
<defs>
<clipPath id="clip0_450_16087">
<rect width="52" height="52" fill="white" transform="translate(107 77.2852)"/>
</clipPath>
</defs>
</svg>
