<svg width="21" height="21" viewBox="0 0 21 21" fill="none" xmlns="http://www.w3.org/2000/svg">
<g clip-path="url(#clip0_247_13924)">
<g clip-path="url(#clip1_247_13924)">
<path fill-rule="evenodd" clip-rule="evenodd" d="M10.2709 11.9519C8.7236 11.9519 7.46266 10.69 7.46266 9.14364C7.46266 7.59724 8.7236 6.3363 10.2709 6.3363C11.8173 6.3363 13.0783 7.59724 13.0783 9.14364C13.0783 10.69 11.8173 11.9519 10.2709 11.9519ZM5.27775 15.4634L5.4687 17.3004H4.97117C4.94307 17.3004 4.91529 17.2944 4.88972 17.2827C4.86415 17.2711 4.84139 17.254 4.82296 17.2328C4.80454 17.2116 4.79089 17.1867 4.78293 17.1597C4.77497 17.1328 4.7729 17.1044 4.77684 17.0766C4.86015 16.5164 5.02909 15.9723 5.27775 15.4634ZM15.0729 17.3004L15.2634 15.4638C15.512 15.9726 15.6807 16.5166 15.7637 17.0767C15.7677 17.1045 15.7656 17.1327 15.7577 17.1596C15.7497 17.1866 15.7361 17.2114 15.7177 17.2326C15.6993 17.2538 15.6766 17.2708 15.6511 17.2824C15.6255 17.294 15.5978 17.3001 15.5698 17.3001C15.3585 17.3004 15.0729 17.3004 15.0729 17.3004ZM13.5071 13.3846H7.03402C7.94536 12.7299 9.06307 12.3444 10.2709 12.3444C11.4784 12.3444 12.5959 12.7299 13.5071 13.3846ZM5.32363 20.4345C5.27158 20.4345 5.22166 20.4139 5.18486 20.3771C5.14806 20.3403 5.12738 20.2903 5.12738 20.2383V19.2285C5.12738 19.1765 5.14806 19.1265 5.18486 19.0897C5.22166 19.0529 5.27158 19.0323 5.32363 19.0323H15.2173C15.2694 19.0323 15.3193 19.0529 15.3561 19.0897C15.3929 19.1265 15.4136 19.1765 15.4136 19.2285V20.2383C15.4136 20.2903 15.3929 20.3403 15.3561 20.3771C15.3193 20.4139 15.2694 20.4345 15.2173 20.4345H5.32363ZM3.02933 4.02547C3.04283 3.98378 3.06919 3.94744 3.10463 3.92167C3.14007 3.89589 3.18277 3.882 3.22659 3.882C3.27042 3.882 3.31311 3.89589 3.34856 3.92167C3.384 3.94744 3.41036 3.98378 3.42386 4.02547L3.84266 5.3144C3.8562 5.35605 3.88258 5.39236 3.91801 5.41811C3.95345 5.44385 3.99612 5.45773 4.03993 5.45774H5.39518C5.43897 5.45777 5.48163 5.47165 5.51705 5.4974C5.55246 5.52314 5.57883 5.55944 5.59236 5.60108C5.6059 5.64273 5.60591 5.68759 5.59239 5.72924C5.57888 5.77089 5.55254 5.8072 5.51713 5.83296L4.42069 6.62958C4.38526 6.65532 4.35888 6.69162 4.34534 6.73328C4.33181 6.77493 4.3318 6.81981 4.34533 6.86146L4.76412 8.15039C4.77766 8.19204 4.77765 8.23692 4.76412 8.27857C4.75058 8.32023 4.72421 8.35653 4.68877 8.38228C4.65334 8.40803 4.61067 8.4219 4.56687 8.4219C4.52306 8.42191 4.48039 8.40805 4.44495 8.38231L3.3485 7.5857C3.31306 7.55997 3.27038 7.54611 3.22657 7.54611C3.18277 7.54611 3.14009 7.55997 3.10465 7.5857L2.00824 8.38231C1.9728 8.40807 1.93012 8.42194 1.88631 8.42194C1.8425 8.42194 1.79982 8.40807 1.76437 8.38232C1.72893 8.35657 1.70255 8.32026 1.68902 8.2786C1.67548 8.23693 1.67548 8.19205 1.68903 8.15039L2.10782 6.86146C2.12137 6.81981 2.12137 6.77493 2.10783 6.73327C2.09429 6.69161 2.06791 6.65531 2.03246 6.62958L0.936058 5.83296C0.900631 5.80721 0.874263 5.77091 0.860732 5.72925C0.847202 5.6876 0.847204 5.64273 0.860737 5.60108C0.87427 5.55942 0.900641 5.52312 0.93607 5.49737C0.9715 5.47162 1.01417 5.45775 1.05797 5.45774H2.41322C2.45703 5.45773 2.49971 5.44386 2.53514 5.41811C2.57058 5.39236 2.59696 5.35606 2.61049 5.3144L3.02933 4.02547ZM16.6861 4.02547C16.6997 3.98382 16.726 3.94753 16.7615 3.92178C16.7969 3.89604 16.8396 3.88218 16.8834 3.88218C16.9272 3.88218 16.9699 3.89604 17.0053 3.92178C17.0407 3.94753 17.0671 3.98382 17.0807 4.02547L17.4995 5.3144C17.513 5.35606 17.5394 5.39236 17.5748 5.41811C17.6103 5.44386 17.653 5.45773 17.6968 5.45774H19.052C19.0958 5.45775 19.1385 5.47162 19.1739 5.49737C19.2093 5.52312 19.2357 5.55942 19.2492 5.60108C19.2628 5.64273 19.2628 5.6876 19.2492 5.72925C19.2357 5.77091 19.2093 5.80721 19.1739 5.83296L18.0775 6.62958C18.0421 6.65531 18.0157 6.69161 18.0021 6.73327C17.9886 6.77493 17.9886 6.81981 18.0022 6.86146L18.421 8.15039C18.4345 8.19205 18.4345 8.23691 18.4209 8.27856C18.4074 8.32021 18.381 8.35651 18.3456 8.38225C18.3101 8.408 18.2675 8.42187 18.2237 8.42188C18.1799 8.42189 18.1372 8.40804 18.1017 8.38231L17.0053 7.5857C16.9699 7.55997 16.9272 7.54611 16.8834 7.54611C16.8396 7.54611 16.7969 7.55997 16.7615 7.5857L15.665 8.38231C15.6296 8.40805 15.5869 8.42191 15.5431 8.4219C15.4993 8.4219 15.4566 8.40803 15.4212 8.38228C15.3858 8.35653 15.3594 8.32023 15.3459 8.27857C15.3323 8.23692 15.3323 8.19204 15.3459 8.15039L15.7647 6.86146C15.7782 6.81981 15.7782 6.77493 15.7646 6.73328C15.7511 6.69162 15.7247 6.65532 15.6893 6.62958L14.5928 5.83296C14.5574 5.8072 14.5311 5.77089 14.5176 5.72924C14.5041 5.68759 14.5041 5.64273 14.5176 5.60108C14.5312 5.55944 14.5575 5.52314 14.5929 5.4974C14.6284 5.47165 14.671 5.45777 14.7148 5.45774H16.0701C16.1139 5.45773 16.1565 5.44385 16.192 5.41811C16.2274 5.39236 16.2538 5.35605 16.2673 5.3144L16.6861 4.02547ZM10.0732 1.41682C10.0867 1.37515 10.1131 1.33883 10.1485 1.31307C10.184 1.28731 10.2267 1.27344 10.2705 1.27344C10.3143 1.27344 10.357 1.28731 10.3924 1.31307C10.4278 1.33883 10.4542 1.37515 10.4677 1.41682L10.8865 2.70578C10.9001 2.74743 10.9265 2.78373 10.9619 2.80947C10.9973 2.83521 11.04 2.84907 11.0838 2.84908H12.4391C12.4829 2.84911 12.5256 2.86299 12.561 2.88874C12.5964 2.9145 12.6228 2.9508 12.6363 2.99245C12.6498 3.03411 12.6498 3.07897 12.6363 3.12063C12.6228 3.16228 12.5964 3.19859 12.561 3.22435L11.4646 4.02092C11.4291 4.04668 11.4028 4.08299 11.3892 4.12465C11.3757 4.16631 11.3757 4.21118 11.3892 4.25285L11.808 5.54177C11.8216 5.58343 11.8215 5.6283 11.808 5.66995C11.7944 5.7116 11.7681 5.74789 11.7326 5.77364C11.6972 5.79938 11.6545 5.81325 11.6107 5.81326C11.5669 5.81327 11.5243 5.79942 11.4888 5.7737L10.3924 4.97708C10.3569 4.95133 10.3143 4.93746 10.2705 4.93746C10.2267 4.93746 10.184 4.95133 10.1486 4.97708L9.05212 5.7737C9.01668 5.79945 8.974 5.81332 8.93019 5.81332C8.88638 5.81333 8.84369 5.79946 8.80825 5.77371C8.77281 5.74796 8.74643 5.71165 8.73289 5.66998C8.71936 5.62832 8.71936 5.58343 8.7329 5.54177L9.1517 4.25285C9.16524 4.21119 9.16524 4.16631 9.15171 4.12465C9.13818 4.08299 9.11181 4.04667 9.07638 4.02092L7.97993 3.22435C7.94452 3.19859 7.91816 3.16228 7.90463 3.12063C7.89111 3.07897 7.89111 3.03411 7.90464 2.99245C7.91817 2.9508 7.94454 2.9145 7.97996 2.88874C8.01538 2.86299 8.05805 2.84911 8.10184 2.84908H9.4571C9.5009 2.84908 9.54358 2.83522 9.57903 2.80948C9.61447 2.78374 9.64086 2.74744 9.65441 2.70578L10.0732 1.41682ZM6.21483 18.4043L5.8349 14.7493C5.82523 14.6563 5.83521 14.5623 5.86419 14.4734C5.89316 14.3845 5.94048 14.3027 6.00308 14.2333C6.06569 14.1638 6.14218 14.1083 6.22761 14.0703C6.31304 14.0323 6.4055 14.0126 6.499 14.0126H14.0421C14.1356 14.0126 14.228 14.0323 14.3134 14.0703C14.3988 14.1083 14.4753 14.1638 14.5379 14.2332C14.6005 14.3026 14.6479 14.3845 14.6769 14.4733C14.7058 14.5622 14.7158 14.6562 14.7062 14.7492L14.327 18.4043H6.21483ZM10.2709 17.1045C10.7818 17.1045 11.1984 16.7811 11.1984 16.3858C11.1984 15.9895 10.7818 15.6671 10.2709 15.6671C9.76011 15.6671 9.34253 15.9895 9.34253 16.3858C9.34253 16.7811 9.76011 17.1045 10.2709 17.1045Z" fill="#1E64D3"/>
</g>
</g>
<defs>
<clipPath id="clip0_247_13924">
<rect width="20.0174" height="20.0174" fill="white" transform="translate(0.026123 0.507812)"/>
</clipPath>
<clipPath id="clip1_247_13924">
<rect width="20.0174" height="20.0174" fill="white" transform="translate(0.0466309 0.847656)"/>
</clipPath>
</defs>
</svg>
