<svg width="16" height="16" viewBox="0 0 16 16" fill="none" xmlns="http://www.w3.org/2000/svg">
<g clip-path="url(#clip0_450_16735)">
<g clip-path="url(#clip1_450_16735)">
<path d="M14.6667 3.33206H11.3333V2.66537C11.3333 1.93003 10.7354 1.33203 10 1.33203H6C5.26466 1.33203 4.66666 1.93 4.66666 2.66537V3.33203H1.33334C0.597969 3.33206 1.38604e-08 3.93003 1.38604e-08 4.66537V6.66537C1.38604e-08 7.40075 0.597969 7.99872 1.33334 7.99872H6.66669V7.66537C6.66666 7.62159 6.67526 7.57823 6.692 7.53778C6.70875 7.49732 6.7333 7.46056 6.76426 7.4296C6.79522 7.39864 6.83198 7.37409 6.87243 7.35735C6.91289 7.34061 6.95625 7.332 7.00003 7.33203H9.00003C9.04381 7.332 9.08717 7.34061 9.12763 7.35735C9.16809 7.37409 9.20485 7.39864 9.2358 7.4296C9.26676 7.46056 9.29132 7.49732 9.30806 7.53778C9.3248 7.57823 9.3334 7.62159 9.33337 7.66537V7.99872H14.6667C15.402 7.99872 16 7.40075 16 6.66537V4.66537C16 3.93003 15.402 3.33206 14.6667 3.33206ZM10 3.33206H6V2.66537H10V3.33206ZM15.8151 8.35841C15.7595 8.33085 15.6974 8.31934 15.6356 8.32514C15.5739 8.33095 15.5149 8.35385 15.4655 8.39128C15.2285 8.57066 14.9524 8.66538 14.6666 8.66538H9.33334V9.66537C9.33337 9.70916 9.32477 9.75252 9.30803 9.79297C9.29129 9.83343 9.26673 9.87019 9.23577 9.90115C9.20481 9.93211 9.16805 9.95666 9.1276 9.9734C9.08714 9.99015 9.04378 9.99875 9 9.99872H7C6.95622 9.99875 6.91286 9.99015 6.8724 9.9734C6.83194 9.95666 6.79519 9.93211 6.76423 9.90115C6.73327 9.87019 6.70871 9.83343 6.69197 9.79297C6.67523 9.75252 6.66663 9.70916 6.66666 9.66537V8.66538H1.33334C1.04753 8.66538 0.7715 8.57066 0.5345 8.39128C0.485173 8.35356 0.42623 8.33047 0.364406 8.32466C0.302582 8.31885 0.240369 8.33054 0.184875 8.35841C0.129331 8.38603 0.0825996 8.42861 0.0499382 8.48135C0.0172769 8.53409 -1.7873e-05 8.5949 1.38604e-08 8.65694L1.38604e-08 13.3321C1.38604e-08 14.0674 0.597969 14.6654 1.33334 14.6654H14.6667C15.402 14.6654 16 14.0674 16 13.3321V8.65694C16 8.5949 15.9827 8.53409 15.9501 8.48135C15.9174 8.42861 15.8706 8.38603 15.8151 8.35841Z" fill="#525866"/>
</g>
</g>
<defs>
<clipPath id="clip0_450_16735">
<rect width="16" height="16" fill="white"/>
</clipPath>
<clipPath id="clip1_450_16735">
<rect width="16" height="16" fill="white"/>
</clipPath>
</defs>
</svg>
