<svg width="20" height="20" viewBox="0 0 20 20" fill="none" xmlns="http://www.w3.org/2000/svg">
<path fill-rule="evenodd" clip-rule="evenodd" d="M10.3915 1.90625C12.5911 1.946 14.6873 2.84772 16.2288 4.41736C17.7703 5.987 18.634 8.09909 18.634 10.2991C18.634 12.4991 17.7703 14.6112 16.2288 16.1809C14.6873 17.7505 12.5911 18.6522 10.3915 18.692C8.19183 18.6522 6.09569 17.7505 4.55416 16.1809C3.01262 14.6112 2.14893 12.4991 2.14893 10.2991C2.14893 8.09909 3.01262 5.987 4.55416 4.41736C6.09569 2.84772 8.19183 1.946 10.3915 1.90625ZM8.64851 13.0255L6.59312 10.9683C6.42488 10.7994 6.33041 10.5708 6.33041 10.3324C6.33041 10.0941 6.42488 9.86547 6.59312 9.69665C6.76222 9.52857 6.99096 9.43423 7.22938 9.43423C7.4678 9.43423 7.69654 9.52857 7.86564 9.69665L9.31355 11.1464L12.9173 7.5426C13.0862 7.37435 13.3148 7.27988 13.5531 7.27988C13.7915 7.27988 14.0201 7.37435 14.1889 7.5426C14.357 7.71154 14.4513 7.94012 14.4513 8.1784C14.4513 8.41667 14.357 8.64525 14.1889 8.8142L9.94843 13.0547C9.86235 13.1403 9.75986 13.2077 9.6471 13.2528C9.53434 13.2978 9.41365 13.3197 9.29225 13.3169C9.17085 13.3142 9.05126 13.287 8.94064 13.2369C8.83002 13.1868 8.73066 13.1149 8.64851 13.0255Z" fill="#1E64D3"/>
</svg>
