<svg width="121" height="126" viewBox="0 0 121 126" fill="none" xmlns="http://www.w3.org/2000/svg">
<rect x="5" y="49.418" width="55.6477" height="53.7613" rx="14" transform="rotate(-62.1415 5 49.418)" fill="#0011B7" fill-opacity="0.1"/>
<g filter="url(#filter0_d_70_780)">
<circle cx="60.6478" cy="53.9808" r="29.2386" fill="white"/>
</g>
<g clip-path="url(#clip0_70_780)">
<path fill-rule="evenodd" clip-rule="evenodd" d="M65.2207 53.4958H51.6368C50.8954 53.4958 50.2944 52.8948 50.2944 52.1534V47.6607C50.2944 46.9193 50.8954 46.3184 51.6368 46.3184H58.2699C59.1 48.154 60.95 49.4364 63.0898 49.4364C65.2297 49.4364 67.079 48.154 67.9087 46.3184H69.7721C70.5135 46.3184 71.1145 46.9193 71.1145 47.6607V52.1534C71.1145 52.8685 70.5553 53.453 69.8504 53.4935V51.8703C69.8504 50.5965 68.8106 49.5541 67.5368 49.5541C66.2636 49.5541 65.2207 50.5971 65.2207 51.8703V53.4958ZM52.5321 49.2915H58.0439C58.3037 49.2915 58.5145 49.0806 58.5145 48.8209C58.5145 48.5611 58.3037 48.3503 58.0439 48.3503H52.5321C52.2724 48.3503 52.0616 48.5611 52.0616 48.8209C52.0616 49.0806 52.2724 49.2915 52.5321 49.2915ZM52.5321 51.4638H62.6579C62.9177 51.4638 63.1285 51.253 63.1285 50.9932C63.1285 50.7335 62.9177 50.5227 62.6579 50.5227H52.5321C52.2724 50.5227 52.0616 50.7335 52.0616 50.9932C52.0616 51.253 52.2724 51.4638 52.5321 51.4638ZM68.1915 66.4626H59.212C59.1987 66.4331 59.1841 66.4042 59.1682 66.376C58.8793 65.8601 58.7451 65.3544 58.7451 64.7637V59.0084C58.7451 58.3247 59.305 57.7675 59.986 57.7675C60.3936 57.7675 60.7547 57.9635 60.9818 58.268V58.0616C60.9818 57.3625 61.5519 56.7898 62.251 56.7898C62.7514 56.7898 63.1848 57.0813 63.3938 57.5044C63.4067 56.746 64.0336 56.132 64.792 56.132C65.4627 56.132 66.0251 56.6067 66.1618 57.2387V51.8703C66.1618 51.1144 66.781 50.4953 67.5368 50.4953C68.2927 50.4953 68.9092 51.1144 68.9092 51.8703V58.397L69.3839 58.4098C70.7511 58.4434 71.7056 59.2921 71.7056 60.6594L71.4915 63.0688C71.4116 63.9794 70.8414 64.6811 70.052 65.1403L68.6564 65.9529C68.4434 66.0771 68.285 66.2531 68.1915 66.4626ZM59.3101 67.4038H68.094V68.6307H59.3101V67.4038ZM63.0898 48.4952C60.6971 48.4952 58.7451 46.5445 58.7451 44.1518C58.7451 41.7591 60.6971 39.8071 63.0898 39.8071C65.4826 39.8071 67.4332 41.7591 67.4332 44.1518C67.4332 46.5445 65.4826 48.4952 63.0898 48.4952ZM62.5196 44.5342L61.5487 43.5634C61.2973 43.3119 60.889 43.3119 60.6376 43.5634C60.3861 43.8161 60.3861 44.2231 60.6376 44.4745L62.0646 45.9029C62.316 46.1544 62.7243 46.1544 62.9758 45.9029C63.8364 45.0422 64.6867 44.1725 65.5434 43.308C65.7936 43.0552 65.7923 42.6483 65.5408 42.3981C65.2894 42.148 64.8811 42.1492 64.631 42.4007L62.5196 44.5342Z" fill="#1E64D3"/>
</g>
<defs>
<filter id="filter0_d_70_780" x="0.40918" y="4.74219" width="120.477" height="120.477" filterUnits="userSpaceOnUse" color-interpolation-filters="sRGB">
<feFlood flood-opacity="0" result="BackgroundImageFix"/>
<feColorMatrix in="SourceAlpha" type="matrix" values="0 0 0 0 0 0 0 0 0 0 0 0 0 0 0 0 0 0 127 0" result="hardAlpha"/>
<feMorphology radius="9" operator="erode" in="SourceAlpha" result="effect1_dropShadow_70_780"/>
<feOffset dy="11"/>
<feGaussianBlur stdDeviation="20"/>
<feComposite in2="hardAlpha" operator="out"/>
<feColorMatrix type="matrix" values="0 0 0 0 0.625 0 0 0 0 0.605781 0 0 0 0 0.601562 0 0 0 0.25 0"/>
<feBlend mode="normal" in2="BackgroundImageFix" result="effect1_dropShadow_70_780"/>
<feBlend mode="normal" in="SourceGraphic" in2="effect1_dropShadow_70_780" result="shape"/>
</filter>
<clipPath id="clip0_70_780">
<rect width="30" height="30" fill="white" transform="translate(46 39.2188)"/>
</clipPath>
</defs>
</svg>
