<svg width="21" height="20" viewBox="0 0 21 20" fill="none" xmlns="http://www.w3.org/2000/svg">
<g clip-path="url(#clip0_272_3749)">
<path d="M17.6322 12.9213C16.5657 11.8548 15.2963 11.0653 13.9113 10.5874C15.3947 9.56575 16.3692 7.85592 16.3692 5.92253C16.3692 2.80116 13.8298 0.261719 10.7084 0.261719C7.58705 0.261719 5.04761 2.80116 5.04761 5.92253C5.04761 7.85592 6.02215 9.56575 7.50555 10.5874C6.12056 11.0653 4.85116 11.8548 3.78467 12.9213C1.93527 14.7707 0.916748 17.2296 0.916748 19.8451H2.4467C2.4467 15.2895 6.15288 11.5833 10.7084 11.5833C15.2639 11.5833 18.9701 15.2895 18.9701 19.8451H20.5001C20.5001 17.2296 19.4816 14.7707 17.6322 12.9213ZM10.7084 10.0534C8.43067 10.0534 6.57756 8.20031 6.57756 5.92253C6.57756 3.64474 8.43067 1.79167 10.7084 1.79167C12.9862 1.79167 14.8393 3.64474 14.8393 5.92253C14.8393 8.20031 12.9862 10.0534 10.7084 10.0534Z" fill="#525866"/>
</g>
<defs>
<clipPath id="clip0_272_3749">
<rect width="19.5833" height="19.5833" fill="white" transform="translate(0.916748 0.261719)"/>
</clipPath>
</defs>
</svg>
