<svg width="30" height="30" viewBox="0 0 30 30" fill="none" xmlns="http://www.w3.org/2000/svg">
<g clip-path="url(#clip0_204_3200)">
<path d="M12 13C9.243 13 7 10.757 7 8C7 5.243 9.243 3 12 3C14.757 3 17 5.243 17 8C17 10.757 14.757 13 12 13ZM7.75 15C5.13 15 3 17.13 3 19.75V23.25C3 23.66 3.34 24 3.75 24H13V20.75C13 18.87 14.4 17.32 16.21 17.05C16.47 16.29 16.96 15.65 17.59 15.19C16.59 14.904 16.536 15 7.75 15ZM25.25 19H24V18.25C24 17.285 23.215 16.5 22.25 16.5H19.75C18.785 16.5 18 17.285 18 18.25V19H16.75C16.516 19 16.2845 19.0473 16.0692 19.1388C15.8539 19.2304 15.6593 19.3645 15.497 19.533L21 22.404L26.503 19.533C26.3407 19.3645 26.1461 19.2304 25.9308 19.1388C25.7155 19.0473 25.484 19 25.25 19ZM19.5 19V18.25C19.5 18.1837 19.5263 18.1201 19.5732 18.0732C19.6201 18.0263 19.6837 18 19.75 18H22.25C22.3163 18 22.3799 18.0263 22.4268 18.0732C22.4737 18.1201 22.5 18.1837 22.5 18.25V19H19.5Z" fill="white"/>
<path d="M21.347 23.9148C21.24 23.9706 21.1211 23.9997 21.0005 23.9997C20.8799 23.9997 20.761 23.9706 20.654 23.9148L15 20.9648V25.2498C15 26.2148 15.785 26.9998 16.75 26.9998H25.25C26.215 26.9998 27 26.2148 27 25.2498V20.9648L21.347 23.9148Z" fill="white"/>
</g>
<defs>
<clipPath id="clip0_204_3200">
<rect width="24" height="24" fill="white" transform="translate(3 3)"/>
</clipPath>
</defs>
</svg>
