<svg width="52" height="65" viewBox="0 0 52 65" fill="none" xmlns="http://www.w3.org/2000/svg">
<path opacity="0.1" d="M40 33.4779C45.5 46.4779 66.5 58.9779 31.5 64.4779C14.3792 64.4779 0.5 50.5987 0.5 33.4779C9 12.4779 2.66961 -12.4259 30 9.43843C40 17.4384 53 17.9388 40 33.4779Z" fill="#0E46A3"/>
<g clip-path="url(#clip0_2_1174)">
<path d="M26.2628 40.4458C26.3645 40.6769 26.4803 40.9005 26.6092 41.1152C25.8386 41.6088 24.9925 42.056 24.0887 42.4464C24.0409 42.4671 23.9902 42.4774 23.9396 42.4774C23.889 42.4774 23.8384 42.4671 23.791 42.4464C21.3324 41.3838 19.359 39.9311 17.8965 38.1105V38.11L18.1768 37.2846C18.9235 34.7393 21.2724 32.9744 23.9396 32.9744C25.1293 32.9744 26.2637 33.3152 27.2443 33.9639C26.3096 35.0397 25.7434 36.4436 25.7434 37.9774C25.7434 38.8553 25.929 39.6902 26.2627 40.4458H26.2628ZM23.9397 25.8428C22.1804 25.8428 20.7489 27.2739 20.7489 29.0336C20.7489 30.7933 22.1804 32.2244 23.9397 32.2244C25.6989 32.2244 27.1304 30.7928 27.1304 29.0336C27.1304 27.2744 25.6993 25.8428 23.9397 25.8428ZM37.2488 37.9774C37.2488 40.9427 34.8362 43.3553 31.8709 43.3553C28.9056 43.3553 26.4934 40.9427 26.4934 37.9774C26.4934 35.0121 28.9056 32.5994 31.8709 32.5994C34.8362 32.5994 37.2488 35.0121 37.2488 37.9774ZM34.8141 36.6991C34.8141 36.2641 34.4602 35.9102 34.0252 35.9102H33.5012V35.05C33.5012 34.1514 32.7699 33.4197 31.8709 33.4197C30.9718 33.4197 30.2405 34.1514 30.2405 35.05V35.9102H29.717C29.282 35.9102 28.928 36.2641 28.928 36.6991V41.0078C28.928 41.4429 29.282 41.7968 29.717 41.7968H34.0252C34.4602 41.7968 34.8141 41.4429 34.8141 41.0078V36.6991ZM22.0538 32.4935C20.8304 31.8236 19.9988 30.5243 19.9988 29.0336C19.9988 26.8605 21.7665 25.0928 23.9396 25.0928C26.1127 25.0928 27.8804 26.8605 27.8804 29.0336C27.8804 30.5219 27.0512 31.8203 25.8301 32.4907C26.5215 32.6913 27.1768 33.003 27.7787 33.4202C28.8643 32.4438 30.2996 31.8494 31.8709 31.8494C31.9205 31.8494 31.9698 31.8499 32.019 31.8513C32.2735 31.8574 32.5243 31.8789 32.7704 31.9155C33.1796 29.8225 33.2387 27.4488 32.9476 24.8519C32.9378 24.7664 32.899 24.6868 32.8375 24.6264C32.7761 24.5661 32.6958 24.5287 32.6101 24.5205C29.4821 24.2243 26.6443 23.0655 24.1749 21.0761C24.1082 21.0224 24.0252 20.9932 23.9396 20.9932C23.854 20.9932 23.771 21.0224 23.7043 21.0761C21.2354 23.0655 18.3972 24.2243 15.2697 24.5205C15.1839 24.5286 15.1036 24.566 15.0421 24.6263C14.9807 24.6867 14.9418 24.7663 14.9322 24.8519C14.4451 29.1893 14.9411 32.8694 16.4068 35.7902C16.6681 36.3114 16.964 36.8144 17.2928 37.2958C17.4522 36.8889 17.6865 36.4178 17.6865 36.4178C18.4712 34.5011 20.0959 33.0635 22.0538 32.4935ZM34.0641 36.6991V41.0078C34.0641 41.0285 34.0459 41.0468 34.0252 41.0468H29.717C29.6959 41.0468 29.678 41.0285 29.678 41.0078V36.6991C29.678 36.6785 29.6959 36.6602 29.717 36.6602H34.0252C34.0459 36.6602 34.0641 36.6785 34.0641 36.6991ZM33.227 37.7538C33.0723 37.616 32.8351 37.6296 32.6977 37.7838L31.5038 39.1221L31.0346 38.6364C30.8907 38.4874 30.6535 38.4836 30.5045 38.6275C30.3554 38.7714 30.3512 39.0086 30.4951 39.1577L31.2446 39.9339C31.2797 39.9701 31.3216 39.9989 31.368 40.0185C31.4144 40.0382 31.4642 40.0483 31.5146 40.0483H31.5221C31.5737 40.0473 31.6245 40.0357 31.6714 40.0142C31.7182 39.9926 31.7601 39.9617 31.7945 39.9232L33.257 38.2835C33.2898 38.2467 33.3151 38.2039 33.3314 38.1574C33.3477 38.1109 33.3546 38.0616 33.3518 38.0124C33.349 37.9632 33.3366 37.915 33.3152 37.8707C33.2937 37.8263 33.2638 37.7866 33.227 37.7538ZM32.7512 35.05C32.7512 34.5649 32.3565 34.1697 31.8709 34.1697C31.3852 34.1697 30.9905 34.5649 30.9905 35.05V35.9102H32.7512V35.05Z" fill="#1E64D3"/>
</g>
<defs>
<clipPath id="clip0_2_1174">
<rect width="24" height="24" fill="white" transform="translate(14 20.4375)"/>
</clipPath>
</defs>
</svg>
