<svg width="14" height="16" viewBox="0 0 14 16" fill="none" xmlns="http://www.w3.org/2000/svg">
<path d="M8.71515 5.714C10.293 5.714 11.5722 4.43488 11.5722 2.857C11.5722 1.27912 10.293 0 8.71515 0C7.13728 0 5.85815 1.27912 5.85815 2.857C5.85815 4.43488 7.13728 5.714 8.71515 5.714Z" fill="white"/>
<path d="M3.40004 7.60547L0.144042 8.63497V12.7435C0.127935 13.2076 0.225968 13.6686 0.429542 14.086C1.14404 15.5035 2.94404 15.909 3.40104 15.995C3.85254 15.909 5.65254 15.5035 6.36654 14.086C6.5685 13.6741 6.66668 13.219 6.65254 12.7605V8.63497L3.40004 7.60547ZM5.79504 10.783L3.56604 13.005C3.51389 13.0592 3.45134 13.1023 3.38213 13.1317C3.31293 13.1611 3.2385 13.1763 3.16329 13.1763C3.08809 13.1763 3.01365 13.1611 2.94445 13.1317C2.87525 13.1023 2.8127 13.0592 2.76054 13.005L1.57754 11.828C1.52458 11.7751 1.48257 11.7123 1.4539 11.6432C1.42523 11.5741 1.41048 11.5 1.41048 11.4252C1.41048 11.3504 1.42523 11.2763 1.4539 11.2072C1.48257 11.1381 1.52458 11.0753 1.57754 11.0225C1.68543 10.9154 1.83128 10.8553 1.98329 10.8553C2.1353 10.8553 2.28115 10.9154 2.38904 11.0225L3.16604 11.794L4.98354 9.97647C5.09141 9.86954 5.23715 9.80955 5.38904 9.80955C5.54093 9.80955 5.68667 9.86954 5.79454 9.97647C5.84761 10.0293 5.88973 10.0921 5.91848 10.1612C5.94723 10.2304 5.96206 10.3045 5.96211 10.3794C5.96215 10.4542 5.94742 10.5284 5.91875 10.5976C5.89008 10.6667 5.84804 10.7301 5.79504 10.783Z" fill="white"/>
<path d="M13.8576 16.0004H12.1436V10.8574C12.1436 10.7059 12.0834 10.5605 11.9762 10.4533C11.869 10.3461 11.7236 10.2859 11.5721 10.2859C11.4205 10.2859 11.2751 10.3461 11.168 10.4533C11.0608 10.5605 11.0006 10.7059 11.0006 10.8574V16.0004H6.42908V15.8204C6.82473 15.4785 7.14996 15.0628 7.38658 14.5964C7.67406 14.0228 7.81444 13.3867 7.79508 12.7454V8.21492C7.79535 8.09341 7.75678 7.975 7.685 7.87696C7.61322 7.77891 7.51199 7.70637 7.39608 7.66992L6.26758 7.31342C6.89847 7.01421 7.58782 6.85847 8.28608 6.85742H9.14308C10.393 6.85888 11.5913 7.35605 12.4751 8.23987C13.3589 9.1237 13.8561 10.322 13.8576 11.5719V16.0004Z" fill="white"/>
</svg>
